<?xml version="1.0" standalone="no"?>
<!DOCTYPE svg PUBLIC "-//W3C//DTD SVG 1.1//EN" "http://www.w3.org/Graphics/SVG/1.1/DTD/svg11.dtd" >
<svg>
<metadata>
Created by FontForge 20090914 at Fri Aug 19 15:59:36 2011
 By www-data
Copyright (c) 2010-2011 by Titus Nemeth. Published by Rosetta. All rights reserved.
</metadata>
<defs>
<font id="BBCNassim" horiz-adv-x="460" >
  <font-face 
    font-family="BBCNassim"
    font-weight="400"
    font-stretch="normal"
    units-per-em="1000"
    panose-1="2 0 5 0 0 0 0 0 0 0"
    ascent="650"
    descent="-350"
    x-height="382.998"
    cap-height="526.999"
    bbox="-52.998 -661.996 980 1010"
    underline-thickness="50"
    underline-position="-10"
    unicode-range="U+000D-U+FEFC"
  />
<missing-glyph horiz-adv-x="355" 
d="M0 0v498h355v-498h-355zM57 462l121 -181l121 181h-242zM320 430l-121 -181l121 -182v363zM299 36l-121 181l-121 -181h242zM36 67l120 182l-120 181v-363z" />
    <glyph glyph-name="uniFEF5" unicode="&#xfedf;&#xfe82;" horiz-adv-x="459" arabic-form="isolated" 
d="M141 79c34 24.667 62.8369 47.8301 86.5039 69.4971s43.5 43.167 59.5 64.5c-22 30 -47.5 58.833 -76.5 86.5s-59.167 51.834 -90.5 72.501l-21 -27c-8.66699 16 -19.334 31 -32.001 45s-25 25.667 -37 35l25 83c20 -12 42.167 -27.167 66.5 -45.5
s48.666 -38.166 72.999 -59.499s47.5 -43.666 69.5 -66.999s40.667 -45.333 56 -66c17.333 41.333 26 91.666 26 150.999c0 27.333 -1.33301 53.833 -4 79.5s-6 46.834 -10 63.501l67 56c2.66699 -17.333 5 -39.166 7 -65.499s3 -54.5 3 -84.5
c0 -50 -5.16699 -94.5 -15.5 -133.5s-25.833 -75.167 -46.5 -108.5c12.667 -22 22.5 -42.5 29.5 -61.5s10.833 -34.167 11.5 -45.5c0 -5.33301 -0.833008 -12 -2.5 -20s-3.83398 -16.167 -6.50098 -24.5s-5.83398 -16.5 -9.50098 -24.5s-7.16699 -15 -10.5 -21
c-9.33301 -14.667 -21.833 -26.167 -37.5 -34.5s-37.5 -12.5 -65.5 -12.5s-53.5 2.16699 -76.5 6.5s-43.167 9.16602 -60.5 14.499zM350.004 80.9961c-4 29.333 -16.9971 61.667 -38.9971 97c-33.333 -38 -75.333 -74.333 -126 -109
c15.333 -2.66699 29.666 -4.33398 42.999 -5.00098s28.333 -1 45 -1c17.333 0 32.666 1.33301 45.999 4s23.666 7.33398 30.999 14.001zM227.007 681.997c8 -4.66699 12.001 -12.3359 12.001 -23.0029c0 -15.333 -9.5 -28.333 -28.5 -39s-45.167 -18 -78.5 -22
c-38.667 -5.33301 -68 -13.166 -88 -23.499s-33.333 -22.166 -40 -35.499c-6.66699 2.66699 -12.334 7.33398 -17.001 14.001s-7 13.667 -7 21c0 17.333 9.33301 31 28 41s49 17.333 91 22c40.667 4.66699 70 10.167 88 16.5s31.333 15.833 40 28.5z" />
    <glyph glyph-name="uniFEF6" unicode="&#xfee0;&#xfe82;" horiz-adv-x="537" arabic-form="final" 
d="M441 621c5.33301 -50 9.16895 -107.331 11.502 -171.998s3.5 -131.334 3.5 -200.001c0 -64 6.16699 -109.5 18.5 -136.5s33.166 -40.5 62.499 -40.5c7.33301 0 14.166 -3.33301 20.499 -10s9.5 -16.334 9.5 -29.001s-3.16699 -22.5 -9.5 -29.5
s-13.166 -10.5 -20.499 -10.5c-38 0 -67.5 11.833 -88.5 35.5s-34.167 61.5 -39.5 113.5c-7.33301 -17.333 -17.5 -34 -30.5 -50s-28 -31.167 -45 -45.5s-35.333 -27.333 -55 -39s-40.167 -21.5 -61.5 -29.5l-166 43l10 20c91.333 5.33301 166.5 23 225.5 53
s98.167 66 117.5 108c0 32.667 -0.5 65.834 -1.5 99.501s-2.33301 66.167 -4 97.5s-3.83398 61.166 -6.50098 89.499s-6 53.833 -10 76.5zM75.0029 518.002c38 -21.333 72.666 -44.998 103.999 -70.998s59 -53.833 83 -83.5s43.833 -60.334 59.5 -92.001
s26.5 -63.834 32.5 -96.501l-21 -17c-8 22.667 -19 45.167 -33 67.5s-29.667 43.333 -47 63s-35.833 37.5 -55.5 53.5s-39.5 29 -59.5 39l-14 -31c-7.33301 14 -17.666 29.5 -30.999 46.5s-27.333 31.167 -42 42.5zM232.002 682.004
c8 -4.66699 12.001 -12.3359 12.001 -23.0029c0 -15.333 -9.5 -28.333 -28.5 -39s-45.167 -18 -78.5 -22c-38.667 -5.33301 -68 -13.166 -88 -23.499s-33.333 -22.166 -40 -35.499c-6.66699 2.66699 -12.334 7.33398 -17.001 14.001s-7 13.667 -7 21
c0 17.333 9.33301 31 28 41s49 17.333 91 22c40.667 4.66699 70 10.167 88 16.5s31.333 15.833 40 28.5z" />
    <glyph glyph-name="uniFEF7" unicode="&#xfedf;&#xfe84;" horiz-adv-x="459" arabic-form="isolated" 
d="M141 79c34 24.667 62.8369 47.8301 86.5039 69.4971s43.5 43.167 59.5 64.5c-22 30 -47.5 58.833 -76.5 86.5s-59.167 51.834 -90.5 72.501l-21 -27c-8.66699 16 -19.334 31 -32.001 45s-25 25.667 -37 35l25 83c20 -12 42.167 -27.167 66.5 -45.5
s48.666 -38.166 72.999 -59.499s47.5 -43.666 69.5 -66.999s40.667 -45.333 56 -66c17.333 41.333 26 91.666 26 150.999c0 27.333 -1.33301 53.833 -4 79.5s-6 46.834 -10 63.501l67 56c2.66699 -17.333 5 -39.166 7 -65.499s3 -54.5 3 -84.5
c0 -50 -5.16699 -94.5 -15.5 -133.5s-25.833 -75.167 -46.5 -108.5c12.667 -22 22.5 -42.5 29.5 -61.5s10.833 -34.167 11.5 -45.5c0 -5.33301 -0.833008 -12 -2.5 -20s-3.83398 -16.167 -6.50098 -24.5s-5.83398 -16.5 -9.50098 -24.5s-7.16699 -15 -10.5 -21
c-9.33301 -14.667 -21.833 -26.167 -37.5 -34.5s-37.5 -12.5 -65.5 -12.5s-53.5 2.16699 -76.5 6.5s-43.167 9.16602 -60.5 14.499zM350.004 80.9961c-4 29.333 -16.9971 61.667 -38.9971 97c-33.333 -38 -75.333 -74.333 -126 -109
c15.333 -2.66699 29.666 -4.33398 42.999 -5.00098s28.333 -1 45 -1c17.333 0 32.666 1.33301 45.999 4s23.666 7.33398 30.999 14.001zM108.007 665.997c-10 6 -20.3311 9.00391 -30.998 9.00391c-9.33301 0 -19 -2.83301 -29 -8.5s-17 -13.5 -21 -23.5
c6 -7.33301 14.667 -13 26 -17s22.666 -6 33.999 -6c12 0 24.333 2.33301 37 7s26 11 40 19l-13 -50c-11.333 -3.33301 -23.333 -7.33301 -36 -12s-25.334 -9.83398 -38.001 -15.501s-25 -11.834 -37 -18.501s-23 -13.334 -33 -20.001c-1.33301 5.33301 -2 9.33301 -2 12
c0 12 4.66699 22 14 30s18.666 13.333 27.999 16c-29.333 7.33301 -44 21.333 -44 42c0 25.333 7.83301 46.166 23.5 62.499s34.834 24.5 57.501 24.5c18 0 33.667 -5 47 -15z" />
    <glyph glyph-name="uniFEF8" unicode="&#xfee0;&#xfe84;" horiz-adv-x="529" arabic-form="final" 
d="M433 621c5.33301 -50 9.16895 -107.331 11.502 -171.998s3.5 -131.334 3.5 -200.001c0 -64 6.16699 -109.5 18.5 -136.5s33.166 -40.5 62.499 -40.5c7.33301 0 14.166 -3.33301 20.499 -10s9.5 -16.334 9.5 -29.001s-3.16699 -22.5 -9.5 -29.5
s-13.166 -10.5 -20.499 -10.5c-38 0 -67.5 11.833 -88.5 35.5s-34.167 61.5 -39.5 113.5c-7.33301 -17.333 -17.5 -34 -30.5 -50s-28 -31.167 -45 -45.5s-35.333 -27.333 -55 -39s-40.167 -21.5 -61.5 -29.5l-166 43l10 20c91.333 5.33301 166.5 23 225.5 53
s98.167 66 117.5 108c0 32.667 -0.5 65.834 -1.5 99.501s-2.33301 66.167 -4 97.5s-3.83398 61.166 -6.50098 89.499s-6 53.833 -10 76.5zM67.0029 518.002c38 -21.333 72.666 -44.998 103.999 -70.998s59 -53.833 83 -83.5s43.833 -60.334 59.5 -92.001
s26.5 -63.834 32.5 -96.501l-21 -17c-8 22.667 -19 45.167 -33 67.5s-29.667 43.333 -47 63s-35.833 37.5 -55.5 53.5s-39.5 29 -59.5 39l-14 -31c-7.33301 14 -17.666 29.5 -30.999 46.5s-27.333 31.167 -42 42.5zM115.002 676.004c-10 6 -20.3311 9.00391 -30.998 9.00391
c-9.33301 0 -19 -2.83301 -29 -8.5s-17 -13.5 -21 -23.5c6 -7.33301 14.667 -13 26 -17s22.666 -6 33.999 -6c12 0 24.333 2.33301 37 7s26 11 40 19l-13 -50c-11.333 -3.33301 -23.333 -7.33301 -36 -12s-25.334 -9.83398 -38.001 -15.501s-25 -11.834 -37 -18.501
s-23 -13.334 -33 -20.001c-1.33301 5.33301 -2 9.33301 -2 12c0 12 4.66699 22 14 30s18.666 13.333 27.999 16c-29.333 7.33301 -44 21.333 -44 42c0 25.333 7.83301 46.166 23.5 62.499s34.834 24.5 57.501 24.5c18 0 33.667 -5 47 -15z" />
    <glyph glyph-name="uniFEF9" unicode="&#xfedf;&#xfe88;" horiz-adv-x="459" arabic-form="isolated" 
d="M141 79c34 24.667 62.8369 47.8301 86.5039 69.4971s43.5 43.167 59.5 64.5c-22 30 -47.5 58.833 -76.5 86.5s-59.167 51.834 -90.5 72.501l-21 -27c-8.66699 16 -19.334 31 -32.001 45s-25 25.667 -37 35l25 83c20 -12 42.167 -27.167 66.5 -45.5
s48.666 -38.166 72.999 -59.499s47.5 -43.666 69.5 -66.999s40.667 -45.333 56 -66c17.333 41.333 26 91.666 26 150.999c0 27.333 -1.33301 53.833 -4 79.5s-6 46.834 -10 63.501l67 56c2.66699 -17.333 5 -39.166 7 -65.499s3 -54.5 3 -84.5
c0 -50 -5.16699 -94.5 -15.5 -133.5s-25.833 -75.167 -46.5 -108.5c12.667 -22 22.5 -42.5 29.5 -61.5s10.833 -34.167 11.5 -45.5c0 -5.33301 -0.833008 -12 -2.5 -20s-3.83398 -16.167 -6.50098 -24.5s-5.83398 -16.5 -9.50098 -24.5s-7.16699 -15 -10.5 -21
c-9.33301 -14.667 -21.833 -26.167 -37.5 -34.5s-37.5 -12.5 -65.5 -12.5s-53.5 2.16699 -76.5 6.5s-43.167 9.16602 -60.5 14.499zM350.004 80.9961c-4 29.333 -16.9971 61.667 -38.9971 97c-33.333 -38 -75.333 -74.333 -126 -109
c15.333 -2.66699 29.666 -4.33398 42.999 -5.00098s28.333 -1 45 -1c17.333 0 32.666 1.33301 45.999 4s23.666 7.33398 30.999 14.001zM206.007 -116.003c-10 6 -20.3311 9.00391 -30.998 9.00391c-9.33301 0 -19 -2.83301 -29 -8.5s-17 -13.5 -21 -23.5
c6 -7.33301 14.667 -13 26 -17s22.666 -6 33.999 -6c12 0 24.333 2.33301 37 7s26 11 40 19l-13 -50c-11.333 -3.33301 -23.333 -7.33301 -36 -12s-25.334 -9.83398 -38.001 -15.501s-25 -11.834 -37 -18.501s-23 -13.334 -33 -20.001c-1.33301 5.33301 -2 9.33301 -2 12
c0 12 4.66699 22 14 30s18.666 13.333 27.999 16c-29.333 7.33301 -44 21.333 -44 42c0 25.333 7.83301 46.166 23.5 62.499s34.834 24.5 57.501 24.5c18 0 33.667 -5 47 -15z" />
    <glyph glyph-name="uniFEFA" unicode="&#xfee0;&#xfe88;" horiz-adv-x="529" arabic-form="final" 
d="M433 621c5.33301 -50 9.16895 -107.331 11.502 -171.998s3.5 -131.334 3.5 -200.001c0 -64 6.16699 -109.5 18.5 -136.5s33.166 -40.5 62.499 -40.5c7.33301 0 14.166 -3.33301 20.499 -10s9.5 -16.334 9.5 -29.001s-3.16699 -22.5 -9.5 -29.5
s-13.166 -10.5 -20.499 -10.5c-38 0 -67.5 11.833 -88.5 35.5s-34.167 61.5 -39.5 113.5c-7.33301 -17.333 -17.5 -34 -30.5 -50s-28 -31.167 -45 -45.5s-35.333 -27.333 -55 -39s-40.167 -21.5 -61.5 -29.5l-166 43l10 20c91.333 5.33301 166.5 23 225.5 53
s98.167 66 117.5 108c0 32.667 -0.5 65.834 -1.5 99.501s-2.33301 66.167 -4 97.5s-3.83398 61.166 -6.50098 89.499s-6 53.833 -10 76.5zM67.0029 518.002c38 -21.333 72.666 -44.998 103.999 -70.998s59 -53.833 83 -83.5s43.833 -60.334 59.5 -92.001
s26.5 -63.834 32.5 -96.501l-21 -17c-8 22.667 -19 45.167 -33 67.5s-29.667 43.333 -47 63s-35.833 37.5 -55.5 53.5s-39.5 29 -59.5 39l-14 -31c-7.33301 14 -17.666 29.5 -30.999 46.5s-27.333 31.167 -42 42.5zM176.002 -115.996
c-10 6 -20.3311 9.00391 -30.998 9.00391c-9.33301 0 -19 -2.83301 -29 -8.5s-17 -13.5 -21 -23.5c6 -7.33301 14.667 -13 26 -17s22.666 -6 33.999 -6c12 0 24.333 2.33301 37 7s26 11 40 19l-13 -50c-11.333 -3.33301 -23.333 -7.33301 -36 -12
s-25.334 -9.83398 -38.001 -15.501s-25 -11.834 -37 -18.501s-23 -13.334 -33 -20.001c-1.33301 5.33301 -2 9.33301 -2 12c0 12 4.66699 22 14 30s18.666 13.333 27.999 16c-29.333 7.33301 -44 21.333 -44 42c0 25.333 7.83301 46.166 23.5 62.499
s34.834 24.5 57.501 24.5c18 0 33.667 -5 47 -15z" />
    <glyph glyph-name="uniFEFB" unicode="&#xfedf;&#xfe8e;" horiz-adv-x="459" arabic-form="isolated" 
d="M141 79c34 24.667 62.8369 47.8301 86.5039 69.4971s43.5 43.167 59.5 64.5c-22 30 -47.5 58.833 -76.5 86.5s-59.167 51.834 -90.5 72.501l-21 -27c-8.66699 16 -19.334 31 -32.001 45s-25 25.667 -37 35l25 83c20 -12 42.167 -27.167 66.5 -45.5
s48.666 -38.166 72.999 -59.499s47.5 -43.666 69.5 -66.999s40.667 -45.333 56 -66c17.333 41.333 26 91.666 26 150.999c0 27.333 -1.33301 53.833 -4 79.5s-6 46.834 -10 63.501l67 56c2.66699 -17.333 5 -39.166 7 -65.499s3 -54.5 3 -84.5
c0 -50 -5.16699 -94.5 -15.5 -133.5s-25.833 -75.167 -46.5 -108.5c12.667 -22 22.5 -42.5 29.5 -61.5s10.833 -34.167 11.5 -45.5c0 -5.33301 -0.833008 -12 -2.5 -20s-3.83398 -16.167 -6.50098 -24.5s-5.83398 -16.5 -9.50098 -24.5s-7.16699 -15 -10.5 -21
c-9.33301 -14.667 -21.833 -26.167 -37.5 -34.5s-37.5 -12.5 -65.5 -12.5s-53.5 2.16699 -76.5 6.5s-43.167 9.16602 -60.5 14.499zM350.004 80.9961c-4 29.333 -16.9971 61.667 -38.9971 97c-33.333 -38 -75.333 -74.333 -126 -109
c15.333 -2.66699 29.666 -4.33398 42.999 -5.00098s28.333 -1 45 -1c17.333 0 32.666 1.33301 45.999 4s23.666 7.33398 30.999 14.001z" />
    <glyph glyph-name="uniFEFC" unicode="&#xfee0;&#xfe8e;" horiz-adv-x="529" arabic-form="final" 
d="M433 621c5.33301 -50 9.16895 -107.331 11.502 -171.998s3.5 -131.334 3.5 -200.001c0 -64 6.16699 -109.5 18.5 -136.5s33.166 -40.5 62.499 -40.5c7.33301 0 14.166 -3.33301 20.499 -10s9.5 -16.334 9.5 -29.001s-3.16699 -22.5 -9.5 -29.5
s-13.166 -10.5 -20.499 -10.5c-38 0 -67.5 11.833 -88.5 35.5s-34.167 61.5 -39.5 113.5c-7.33301 -17.333 -17.5 -34 -30.5 -50s-28 -31.167 -45 -45.5s-35.333 -27.333 -55 -39s-40.167 -21.5 -61.5 -29.5l-166 43l10 20c91.333 5.33301 166.5 23 225.5 53
s98.167 66 117.5 108c0 32.667 -0.5 65.834 -1.5 99.501s-2.33301 66.167 -4 97.5s-3.83398 61.166 -6.50098 89.499s-6 53.833 -10 76.5zM67.0029 518.002c38 -21.333 72.666 -44.998 103.999 -70.998s59 -53.833 83 -83.5s43.833 -60.334 59.5 -92.001
s26.5 -63.834 32.5 -96.501l-21 -17c-8 22.667 -19 45.167 -33 67.5s-29.667 43.333 -47 63s-35.833 37.5 -55.5 53.5s-39.5 29 -59.5 39l-14 -31c-7.33301 14 -17.666 29.5 -30.999 46.5s-27.333 31.167 -42 42.5z" />
    <glyph glyph-name="uni06440671" unicode="&#xfedf;&#xfb51;" horiz-adv-x="459" 
d="M141 79c34 24.667 62.8369 47.8301 86.5039 69.4971s43.5 43.167 59.5 64.5c-22 30 -47.5 58.833 -76.5 86.5s-59.167 51.834 -90.5 72.501l-21 -27c-8.66699 16 -19.334 31 -32.001 45s-25 25.667 -37 35l25 83c20 -12 42.167 -27.167 66.5 -45.5
s48.666 -38.166 72.999 -59.499s47.5 -43.666 69.5 -66.999s40.667 -45.333 56 -66c17.333 41.333 26 91.666 26 150.999c0 27.333 -1.33301 53.833 -4 79.5s-6 46.834 -10 63.501l67 56c2.66699 -17.333 5 -39.166 7 -65.499s3 -54.5 3 -84.5
c0 -50 -5.16699 -94.5 -15.5 -133.5s-25.833 -75.167 -46.5 -108.5c12.667 -22 22.5 -42.5 29.5 -61.5s10.833 -34.167 11.5 -45.5c0 -5.33301 -0.833008 -12 -2.5 -20s-3.83398 -16.167 -6.50098 -24.5s-5.83398 -16.5 -9.50098 -24.5s-7.16699 -15 -10.5 -21
c-9.33301 -14.667 -21.833 -26.167 -37.5 -34.5s-37.5 -12.5 -65.5 -12.5s-53.5 2.16699 -76.5 6.5s-43.167 9.16602 -60.5 14.499zM350.004 80.9961c-4 29.333 -16.9971 61.667 -38.9971 97c-33.333 -38 -75.333 -74.333 -126 -109
c15.333 -2.66699 29.666 -4.33398 42.999 -5.00098s28.333 -1 45 -1c17.333 0 32.666 1.33301 45.999 4s23.666 7.33398 30.999 14.001zM-15.9932 549.997c-4 8.66699 -6.00098 17.001 -6.00098 25.001c0 11.333 3.33301 20.666 10 27.999s15.667 12 27 14
c8 28 20 49.5 36 64.5s34.667 22.5 56 22.5c15.333 0 28 -5.5 38 -16.5s15 -25.167 15 -42.5c0 -18.667 -7.5 -34.167 -22.5 -46.5s-38.167 -18.5 -69.5 -18.5c-13.333 0 -24.333 -0.333008 -33 -1s-16.167 -2.16699 -22.5 -4.5s-11.666 -5.5 -15.999 -9.5
s-8.5 -9 -12.5 -15zM35.0059 619.998c6 -1.33301 12.3311 -2 18.998 -2h19c37.333 0 56 7.66699 56 23c0 8 -3.16699 14.167 -9.5 18.5s-14.166 6.5 -23.499 6.5c-11.333 0 -22.666 -4 -33.999 -12s-20.333 -19.333 -27 -34z" />
    <glyph glyph-name="uni06440671.fina" unicode="&#xfee0;&#xfb51;" horiz-adv-x="529" 
d="M433 621c5.33301 -50 9.16895 -107.331 11.502 -171.998s3.5 -131.334 3.5 -200.001c0 -64 6.16699 -109.5 18.5 -136.5s33.166 -40.5 62.499 -40.5c7.33301 0 14.166 -3.33301 20.499 -10s9.5 -16.334 9.5 -29.001s-3.16699 -22.5 -9.5 -29.5
s-13.166 -10.5 -20.499 -10.5c-38 0 -67.5 11.833 -88.5 35.5s-34.167 61.5 -39.5 113.5c-7.33301 -17.333 -17.5 -34 -30.5 -50s-28 -31.167 -45 -45.5s-35.333 -27.333 -55 -39s-40.167 -21.5 -61.5 -29.5l-166 43l10 20c91.333 5.33301 166.5 23 225.5 53
s98.167 66 117.5 108c0 32.667 -0.5 65.834 -1.5 99.501s-2.33301 66.167 -4 97.5s-3.83398 61.166 -6.50098 89.499s-6 53.833 -10 76.5zM67.0029 518.002c38 -21.333 72.666 -44.998 103.999 -70.998s59 -53.833 83 -83.5s43.833 -60.334 59.5 -92.001
s26.5 -63.834 32.5 -96.501l-21 -17c-8 22.667 -19 45.167 -33 67.5s-29.667 43.333 -47 63s-35.833 37.5 -55.5 53.5s-39.5 29 -59.5 39l-14 -31c-7.33301 14 -17.666 29.5 -30.999 46.5s-27.333 31.167 -42 42.5zM1.00195 560.004
c-4 8.66699 -6.00098 17.001 -6.00098 25.001c0 11.333 3.33301 20.666 10 27.999s15.667 12 27 14c8 28 20 49.5 36 64.5s34.667 22.5 56 22.5c15.333 0 28 -5.5 38 -16.5s15 -25.167 15 -42.5c0 -18.667 -7.5 -34.167 -22.5 -46.5s-38.167 -18.5 -69.5 -18.5
c-13.333 0 -24.333 -0.333008 -33 -1s-16.167 -2.16699 -22.5 -4.5s-11.666 -5.5 -15.999 -9.5s-8.5 -9 -12.5 -15zM52.001 630.005c6 -1.33301 12.3311 -2 18.998 -2h19c37.333 0 56 7.66699 56 23c0 8 -3.16699 14.167 -9.5 18.5s-14.166 6.5 -23.499 6.5
c-11.333 0 -22.666 -4 -33.999 -12s-20.333 -19.333 -27 -34z" />
    <glyph glyph-name="uni0621" unicode="&#x621;" horiz-adv-x="335" arabic-form="isolated" 
d="M58 20c-0.666992 1.33301 -1.33301 3 -2 5s-1 6.33301 -1 13c0 10 5 21.667 15 35s28.667 26.333 56 39c-19.333 3.33301 -34.333 10.333 -45 21s-16 22.334 -16 35.001c0 17.333 3 34.5 9 51.5s14.167 32.333 24.5 46s22.833 24.834 37.5 33.501s31 13 49 13
c13.333 0 26.833 -2.5 40.5 -7.5s26.167 -12.167 37.5 -21.5l-38 -57c-19.333 15.333 -40 23 -62 23c-14.667 0 -27.834 -4.83301 -39.501 -14.5s-19.167 -21.167 -22.5 -34.5c8.66699 -12.667 20.834 -22.667 36.501 -30s35.167 -11 58.5 -11c17.333 0 36.333 2.33301 57 7
s43 12 67 22l-28 -71c-40 -10.667 -80.5 -24.334 -121.5 -41.001s-78.5 -35.334 -112.5 -56.001z" />
    <glyph glyph-name="uni0622" unicode="&#x622;" horiz-adv-x="200" arabic-form="isolated" 
d="M137 575c0 -39.333 0.666992 -79.498 2 -120.498l4 -121.5c2 -38 3.66699 -74 5 -108s2 -65 2 -93c0 -26.667 -0.5 -46 -1.5 -58s-2.83301 -22.667 -5.5 -32c-2.66699 -8 -6.33398 -17.333 -11.001 -28s-9.66699 -20.667 -15 -30h-20c0 71.333 -1.5 132.666 -4.5 183.999
s-6.5 98.666 -10.5 141.999c-3.33301 41.333 -6.16602 80.333 -8.49902 117s-3.5 77 -3.5 121l67 56v-29zM223 737.002c8 -4.66699 12.001 -12.3359 12.001 -23.0029c0 -15.333 -9.5 -28.333 -28.5 -39s-45.167 -18 -78.5 -22c-38.667 -5.33301 -68 -13.166 -88 -23.499
s-33.333 -22.166 -40 -35.499c-6.66699 2.66699 -12.334 7.33398 -17.001 14.001s-7 13.667 -7 21c0 17.333 9.33301 31 28 41s49 17.333 91 22c40.667 4.66699 70 10.167 88 16.5s31.333 15.833 40 28.5z" />
    <glyph glyph-name="uni0623" unicode="&#x623;" horiz-adv-x="200" arabic-form="isolated" 
d="M137 575c0 -39.333 0.666992 -79.498 2 -120.498l4 -121.5c2 -38 3.66699 -74 5 -108s2 -65 2 -93c0 -26.667 -0.5 -46 -1.5 -58s-2.83301 -22.667 -5.5 -32c-2.66699 -8 -6.33398 -17.333 -11.001 -28s-9.66699 -20.667 -15 -30h-20c0 71.333 -1.5 132.666 -4.5 183.999
s-6.5 98.666 -10.5 141.999c-3.33301 41.333 -6.16602 80.333 -8.49902 117s-3.5 77 -3.5 121l67 56v-29zM131 746.002c-10 6 -20.3311 9.00391 -30.998 9.00391c-9.33301 0 -19 -2.83301 -29 -8.5s-17 -13.5 -21 -23.5c6 -7.33301 14.667 -13 26 -17s22.666 -6 33.999 -6
c12 0 24.333 2.33301 37 7s26 11 40 19l-13 -50c-11.333 -3.33301 -23.333 -7.33301 -36 -12s-25.334 -9.83398 -38.001 -15.501s-25 -11.834 -37 -18.501s-23 -13.334 -33 -20.001c-1.33301 5.33301 -2 9.33301 -2 12c0 12 4.66699 22 14 30s18.666 13.333 27.999 16
c-29.333 7.33301 -44 21.333 -44 42c0 25.333 7.83301 46.166 23.5 62.499s34.834 24.5 57.501 24.5c18 0 33.667 -5 47 -15z" />
    <glyph glyph-name="uni0624" unicode="&#x624;" horiz-adv-x="360" arabic-form="isolated" 
d="M5 -174c38.667 10.667 73.4941 24.1689 104.494 40.502s58 34 81 53s41.667 38.833 56 59.5s24.166 40.667 29.499 60c-7.33301 -7.33301 -17.166 -14 -29.499 -20s-25.833 -9 -40.5 -9c-15.333 0 -29.666 2.83301 -42.999 8.5s-25 13.667 -35 24
s-17.833 22.5 -23.5 36.5s-8.5 29.333 -8.5 46c0 15.333 2.83301 31 8.5 47s13.334 30.5 23.001 43.5s20.834 23.667 33.501 32s26 12.5 40 12.5c16 0 31.167 -4.83301 45.5 -14.5s27 -22.834 38 -39.501s19.667 -36.167 26 -58.5s9.5 -45.833 9.5 -70.5
c0 -30.667 -4.16699 -60.334 -12.5 -89.001s-20.166 -55.334 -35.499 -80.001s-33.666 -47.167 -54.999 -67.5s-44.666 -37.166 -69.999 -50.499l-128 16zM129.994 126.002c7.33301 -15.333 18.165 -26.667 32.498 -34s30.833 -11 49.5 -11c12 0 24.333 1.66699 37 5
s21.667 7 27 11c-4.66699 28 -15.167 49.667 -31.5 65s-32.833 23 -49.5 23c-15.333 0 -28.666 -5.5 -39.999 -16.5s-19.666 -25.167 -24.999 -42.5zM216.993 429.001c-10 6 -20.3311 9.00391 -30.998 9.00391c-9.33301 0 -19 -2.83301 -29 -8.5s-17 -13.5 -21 -23.5
c6 -7.33301 14.667 -13 26 -17s22.666 -6 33.999 -6c12 0 24.333 2.33301 37 7s26 11 40 19l-13 -50c-11.333 -3.33301 -23.333 -7.33301 -36 -12s-25.334 -9.83398 -38.001 -15.501s-25 -11.834 -37 -18.501s-23 -13.334 -33 -20.001c-1.33301 5.33301 -2 9.33301 -2 12
c0 12 4.66699 22 14 30s18.666 13.333 27.999 16c-29.333 7.33301 -44 21.333 -44 42c0 25.333 7.83301 46.166 23.5 62.499s34.834 24.5 57.501 24.5c18 0 33.667 -5 47 -15z" />
    <glyph glyph-name="uni0625" unicode="&#x625;" horiz-adv-x="200" arabic-form="isolated" 
d="M132 575c0 -39.333 0.666992 -79.498 2 -120.498l4 -121.5c2 -38 3.66699 -74 5 -108s2 -65 2 -93c0 -26.667 -0.5 -46 -1.5 -58s-2.83301 -22.667 -5.5 -32c-2.66699 -8 -6.33398 -17.333 -11.001 -28s-9.66699 -20.667 -15 -30h-20c0 71.333 -1.5 132.666 -4.5 183.999
s-6.5 98.666 -10.5 141.999c-3.33301 41.333 -6.16602 80.333 -8.49902 117s-3.5 77 -3.5 121l67 56v-29zM144 -123.998c-10 6 -20.3311 9.00391 -30.998 9.00391c-9.33301 0 -19 -2.83301 -29 -8.5s-17 -13.5 -21 -23.5c6 -7.33301 14.667 -13 26 -17s22.666 -6 33.999 -6
c12 0 24.333 2.33301 37 7s26 11 40 19l-13 -50c-11.333 -3.33301 -23.333 -7.33301 -36 -12s-25.334 -9.83398 -38.001 -15.501s-25 -11.834 -37 -18.501s-23 -13.334 -33 -20.001c-1.33301 5.33301 -2 9.33301 -2 12c0 12 4.66699 22 14 30s18.666 13.333 27.999 16
c-29.333 7.33301 -44 21.333 -44 42c0 25.333 7.83301 46.166 23.5 62.499s34.834 24.5 57.501 24.5c18 0 33.667 -5 47 -15z" />
    <glyph glyph-name="uni0626" unicode="&#x626;" horiz-adv-x="629" arabic-form="isolated" 
d="M101 124c-5.33301 -12.667 -9.33398 -26 -12.001 -40s-4 -31.333 -4 -52c0 -48.667 16.5 -86.334 49.5 -113.001s77.833 -40 134.5 -40c59.333 0 109.333 7.66699 150 23s69.667 34 87 56c-3.33301 4 -7.16602 7.83301 -11.499 11.5s-10 8 -17 13
s-16.167 10.5 -27.5 16.5l-42 22c-17.333 8.66699 -31.5 16.334 -42.5 23.001s-19.5 13.167 -25.5 19.5s-10.167 12.833 -12.5 19.5s-3.5 14 -3.5 22c0 23.333 5.5 46.833 16.5 70.5s25.833 45.167 44.5 64.5s40.5 35.166 65.5 47.499s51.5 18.5 79.5 18.5
c15.333 0 29.5 -2 42.5 -6s24.167 -8.66699 33.5 -14l-37 -74c-8 4 -17.167 7.5 -27.5 10.5s-21.833 4.5 -34.5 4.5c-30.667 0 -57.834 -8 -81.501 -24s-42.167 -37.667 -55.5 -65c2.66699 -3.33301 6 -6.5 10 -9.5s9.5 -6.5 16.5 -10.5l26.5 -14.5l40 -20.5
c32 -16 54.333 -30 67 -42s19 -23.667 19 -35c0 -8 -1.16699 -18.5 -3.5 -31.5s-6.16602 -26.167 -11.499 -39.5c-18.667 -42 -52.5 -75.667 -101.5 -101s-110.167 -38 -183.5 -38c-70 0 -122.5 17.333 -157.5 52s-52.5 84 -52.5 148c0 29.333 4.5 54.333 13.5 75
s18.833 34.334 29.5 41.001zM152.999 293c-10 6 -20.3311 9.00391 -30.998 9.00391c-9.33301 0 -19 -2.83301 -29 -8.5s-17 -13.5 -21 -23.5c6 -7.33301 14.667 -13 26 -17s22.666 -6 33.999 -6c12 0 24.333 2.33301 37 7s26 11 40 19l-13 -50
c-11.333 -3.33301 -23.333 -7.33301 -36 -12s-25.334 -9.83398 -38.001 -15.501s-25 -11.834 -37 -18.501s-23 -13.334 -33 -20.001c-1.33301 5.33301 -2 9.33301 -2 12c0 12 4.66699 22 14 30s18.666 13.333 27.999 16c-29.333 7.33301 -44 21.333 -44 42
c0 25.333 7.83301 46.166 23.5 62.499s34.834 24.5 57.501 24.5c18 0 33.667 -5 47 -15z" />
    <glyph glyph-name="uni0627" unicode="&#x627;" horiz-adv-x="200" arabic-form="isolated" 
d="M137 575c0 -39.333 0.666992 -79.498 2 -120.498l4 -121.5c2 -38 3.66699 -74 5 -108s2 -65 2 -93c0 -26.667 -0.5 -46 -1.5 -58s-2.83301 -22.667 -5.5 -32c-2.66699 -8 -6.33398 -17.333 -11.001 -28s-9.66699 -20.667 -15 -30h-20c0 71.333 -1.5 132.666 -4.5 183.999
s-6.5 98.666 -10.5 141.999c-3.33301 41.333 -6.16602 80.333 -8.49902 117s-3.5 77 -3.5 121l67 56v-29z" />
    <glyph glyph-name="uni0628" unicode="&#x628;" horiz-adv-x="779" arabic-form="isolated" 
d="M697 358c6 -8 11.832 -18.3311 17.499 -30.998s10.667 -26.5 15 -41.5s7.83301 -30.5 10.5 -46.5s4 -31.667 4 -47c0 -22.667 -5.83301 -45.334 -17.5 -68.001s-30.167 -42.667 -55.5 -60c-20 -13.333 -43.5 -25.166 -70.5 -35.499s-56 -19 -87 -26
s-63.5 -12.167 -97.5 -15.5s-68 -5 -102 -5c-53.333 0 -97.833 3.5 -133.5 10.5s-64.167 17.5 -85.5 31.5s-36.666 31.667 -45.999 53s-14 46.666 -14 75.999c0 25.333 3 48.166 9 68.499s12.667 32.833 20 37.5l19 12c-1.33301 -7.33301 -2.66602 -15.833 -3.99902 -25.5
s-2 -17.167 -2 -22.5c0 -28 4.5 -52 13.5 -72s23.833 -36.333 44.5 -49s47.5 -22 80.5 -28s73.5 -9 121.5 -9c34.667 0 69 1.66699 103 5s66.667 8.16602 98 14.499s60.666 14 87.999 23s51 19.167 71 30.5c-4 24.667 -10.833 49.334 -20.5 74.001s-20.167 44.667 -31.5 60z
M340.999 -189.998c-10.667 4.66699 -22.499 12 -35.499 22s-23.5 20.667 -31.5 32l49 60c8 -10.667 18.667 -21 32 -31s24.666 -17.667 33.999 -23z" />
    <glyph glyph-name="uni0629" unicode="&#x629;" horiz-adv-x="338" arabic-form="isolated" 
d="M156 354c18.667 -8 36.834 -19.8359 54.501 -35.5029s33.334 -33 47.001 -52s24.667 -39.333 33 -61s12.5 -42.5 12.5 -62.5c0 -22 -3.66699 -42.167 -11 -60.5s-17.333 -34.166 -30 -47.499s-27.834 -23.666 -45.501 -30.999s-36.834 -11 -57.501 -11
c-38 0 -68.167 11.667 -90.5 35s-33.5 53.333 -33.5 90c0 30.667 8.66699 62.334 26 95.001s43 61.667 77 87zM156 256.997c-25.333 -19.333 -43.333 -39 -54 -59s-16 -40.667 -16 -62s7.5 -37.333 22.5 -48s32.167 -16 51.5 -16c22 0 41.667 3.83301 59 11.5
s31 18.167 41 31.5c-7.33301 28 -20 55 -38 81s-40 46.333 -66 61zM215 397.997c-9.33301 4 -19.499 10 -30.499 18s-20.5 16.333 -28.5 25l-34 -50c-10.667 4.66699 -22.5 11.5 -35.5 20.5s-23.5 19.167 -31.5 30.5l46 61c6.66699 -8.66699 15 -17.667 25 -27
s19.667 -16.666 29 -21.999l39 56c8.66699 -10 19.667 -19.833 33 -29.5s24.666 -16.834 33.999 -21.501z" />
    <glyph glyph-name="uni062A" unicode="&#x62a;" horiz-adv-x="779" arabic-form="isolated" 
d="M697 358c6 -8 11.832 -18.3311 17.499 -30.998s10.667 -26.5 15 -41.5s7.83301 -30.5 10.5 -46.5s4 -31.667 4 -47c0 -22.667 -5.83301 -45.334 -17.5 -68.001s-30.167 -42.667 -55.5 -60c-20 -13.333 -43.5 -25.166 -70.5 -35.499s-56 -19 -87 -26
s-63.5 -12.167 -97.5 -15.5s-68 -5 -102 -5c-53.333 0 -97.833 3.5 -133.5 10.5s-64.167 17.5 -85.5 31.5s-36.666 31.667 -45.999 53s-14 46.666 -14 75.999c0 25.333 3 48.166 9 68.499s12.667 32.833 20 37.5l19 12c-1.33301 -7.33301 -2.66602 -15.833 -3.99902 -25.5
s-2 -17.167 -2 -22.5c0 -28 4.5 -52 13.5 -72s23.833 -36.333 44.5 -49s47.5 -22 80.5 -28s73.5 -9 121.5 -9c34.667 0 69 1.66699 103 5s66.667 8.16602 98 14.499s60.666 14 87.999 23s51 19.167 71 30.5c-4 24.667 -10.833 49.334 -20.5 74.001s-20.167 44.667 -31.5 60z
M413.999 297.002c-9.33301 4 -19.499 10 -30.499 18s-20.5 16.333 -28.5 25l-34 -50c-10.667 4.66699 -22.5 11.5 -35.5 20.5s-23.5 19.167 -31.5 30.5l46 61c6.66699 -8.66699 15 -17.667 25 -27s19.667 -16.666 29 -21.999l39 56c8.66699 -10 19.667 -19.833 33 -29.5
s24.666 -16.834 33.999 -21.501z" />
    <glyph glyph-name="uni062B" unicode="&#x62b;" horiz-adv-x="779" arabic-form="isolated" 
d="M697 358c6 -8 11.832 -18.3311 17.499 -30.998s10.667 -26.5 15 -41.5s7.83301 -30.5 10.5 -46.5s4 -31.667 4 -47c0 -22.667 -5.83301 -45.334 -17.5 -68.001s-30.167 -42.667 -55.5 -60c-20 -13.333 -43.5 -25.166 -70.5 -35.499s-56 -19 -87 -26
s-63.5 -12.167 -97.5 -15.5s-68 -5 -102 -5c-53.333 0 -97.833 3.5 -133.5 10.5s-64.167 17.5 -85.5 31.5s-36.666 31.667 -45.999 53s-14 46.666 -14 75.999c0 25.333 3 48.166 9 68.499s12.667 32.833 20 37.5l19 12c-1.33301 -7.33301 -2.66602 -15.833 -3.99902 -25.5
s-2 -17.167 -2 -22.5c0 -28 4.5 -52 13.5 -72s23.833 -36.333 44.5 -49s47.5 -22 80.5 -28s73.5 -9 121.5 -9c34.667 0 69 1.66699 103 5s66.667 8.16602 98 14.499s60.666 14 87.999 23s51 19.167 71 30.5c-4 24.667 -10.833 49.334 -20.5 74.001s-20.167 44.667 -31.5 60z
M350.999 400.002c-4 1.33301 -9.33301 4.16602 -16 8.49902s-13.167 9.33301 -19.5 15s-12 11.167 -17 16.5s-8.5 9.66602 -10.5 12.999l48 59c6 -9.33301 15.167 -19.666 27.5 -30.999s23.5 -19.666 33.5 -24.999zM413.999 297.002c-9.33301 4 -19.499 10 -30.499 18
s-20.5 16.333 -28.5 25l-34 -50c-10.667 4.66699 -22.5 11.5 -35.5 20.5s-23.5 19.167 -31.5 30.5l46 61c6.66699 -8.66699 15 -17.667 25 -27s19.667 -16.666 29 -21.999l39 56c8.66699 -10 19.667 -19.833 33 -29.5s24.666 -16.834 33.999 -21.501z" />
    <glyph glyph-name="uni062C" unicode="&#x62c;" horiz-adv-x="544" arabic-form="isolated" 
d="M44 272c-2 2.66699 -3.50391 5.66602 -4.50391 8.99902s-1.5 6.33301 -1.5 9c0 7.33301 2.5 16.333 7.5 27s12.833 22 23.5 34c13.333 16.667 28 29 44 37s29.667 12 41 12c14.667 0 31.5 -3.16699 50.5 -9.5s44.5 -17.166 76.5 -32.499c17.333 -8 33.5 -14.667 48.5 -20
s30.333 -9.5 46 -12.5s33 -5.16699 52 -6.5s41.167 -2 66.5 -2l-25 -70c-54 -1.33301 -104.833 -9.16602 -152.5 -23.499s-89.5 -33.666 -125.5 -57.999s-64.5 -53 -85.5 -86s-31.5 -68.833 -31.5 -107.5c0 -50.667 20.833 -90.5 62.5 -119.5s100.834 -43.5 177.501 -43.5
c42 0 79.167 2.16699 111.5 6.5s65.166 11.833 98.499 22.5l-4 -21c-1.33301 -6 -8.83301 -14 -22.5 -24s-32.167 -20 -55.5 -30s-50.166 -18.667 -80.499 -26s-62.5 -11 -96.5 -11c-75.333 0 -135 17.5 -179 52.5s-66 86.5 -66 154.5c0 42.667 7.16699 81.5 21.5 116.5
s34 66.5 59 94.5s54.333 52.833 88 74.5s69.834 41.167 108.501 58.5c-24.667 14 -49.667 24.667 -75 32s-50.666 12.333 -75.999 15c-15.333 -4.66699 -32.166 -11.834 -50.499 -21.501s-35.5 -19.834 -51.5 -30.501zM308.996 -46.001
c-10.667 4.66699 -22.499 12 -35.499 22s-23.5 20.667 -31.5 32l49 60c8 -10.667 18.667 -21 32 -31s24.666 -17.667 33.999 -23z" />
    <glyph glyph-name="uni062D" unicode="&#x62d;" horiz-adv-x="544" arabic-form="isolated" 
d="M44 272c-2 2.66699 -3.50391 5.66602 -4.50391 8.99902s-1.5 6.33301 -1.5 9c0 7.33301 2.5 16.333 7.5 27s12.833 22 23.5 34c13.333 16.667 28 29 44 37s29.667 12 41 12c14.667 0 31.5 -3.16699 50.5 -9.5s44.5 -17.166 76.5 -32.499c17.333 -8 33.5 -14.667 48.5 -20
s30.333 -9.5 46 -12.5s33 -5.16699 52 -6.5s41.167 -2 66.5 -2l-25 -70c-54 -1.33301 -104.833 -9.16602 -152.5 -23.499s-89.5 -33.666 -125.5 -57.999s-64.5 -53 -85.5 -86s-31.5 -68.833 -31.5 -107.5c0 -50.667 20.833 -90.5 62.5 -119.5s100.834 -43.5 177.501 -43.5
c42 0 79.167 2.16699 111.5 6.5s65.166 11.833 98.499 22.5l-4 -21c-1.33301 -6 -8.83301 -14 -22.5 -24s-32.167 -20 -55.5 -30s-50.166 -18.667 -80.499 -26s-62.5 -11 -96.5 -11c-75.333 0 -135 17.5 -179 52.5s-66 86.5 -66 154.5c0 42.667 7.16699 81.5 21.5 116.5
s34 66.5 59 94.5s54.333 52.833 88 74.5s69.834 41.167 108.501 58.5c-24.667 14 -49.667 24.667 -75 32s-50.666 12.333 -75.999 15c-15.333 -4.66699 -32.166 -11.834 -50.499 -21.501s-35.5 -19.834 -51.5 -30.501z" />
    <glyph glyph-name="uni062E" unicode="&#x62e;" horiz-adv-x="544" arabic-form="isolated" 
d="M44 272c-2 2.66699 -3.50391 5.66602 -4.50391 8.99902s-1.5 6.33301 -1.5 9c0 7.33301 2.5 16.333 7.5 27s12.833 22 23.5 34c13.333 16.667 28 29 44 37s29.667 12 41 12c14.667 0 31.5 -3.16699 50.5 -9.5s44.5 -17.166 76.5 -32.499c17.333 -8 33.5 -14.667 48.5 -20
s30.333 -9.5 46 -12.5s33 -5.16699 52 -6.5s41.167 -2 66.5 -2l-25 -70c-54 -1.33301 -104.833 -9.16602 -152.5 -23.499s-89.5 -33.666 -125.5 -57.999s-64.5 -53 -85.5 -86s-31.5 -68.833 -31.5 -107.5c0 -50.667 20.833 -90.5 62.5 -119.5s100.834 -43.5 177.501 -43.5
c42 0 79.167 2.16699 111.5 6.5s65.166 11.833 98.499 22.5l-4 -21c-1.33301 -6 -8.83301 -14 -22.5 -24s-32.167 -20 -55.5 -30s-50.166 -18.667 -80.499 -26s-62.5 -11 -96.5 -11c-75.333 0 -135 17.5 -179 52.5s-66 86.5 -66 154.5c0 42.667 7.16699 81.5 21.5 116.5
s34 66.5 59 94.5s54.333 52.833 88 74.5s69.834 41.167 108.501 58.5c-24.667 14 -49.667 24.667 -75 32s-50.666 12.333 -75.999 15c-15.333 -4.66699 -32.166 -11.834 -50.499 -21.501s-35.5 -19.834 -51.5 -30.501zM155.996 443.999
c-10.667 4.66699 -22.499 12 -35.499 22s-23.5 20.667 -31.5 32l49 60c8 -10.667 18.667 -21 32 -31s24.666 -17.667 33.999 -23z" />
    <glyph glyph-name="uni062F" unicode="&#x62f;" horiz-adv-x="432" arabic-form="isolated" 
d="M173 410c42.667 -36.667 76.998 -68.1699 102.998 -94.5029s46.167 -49.833 60.5 -70.5s23.833 -39.5 28.5 -56.5s7 -34.5 7 -52.5c0 -15.333 -2.83301 -31.166 -8.5 -47.499s-12.5 -30.166 -20.5 -41.499c-14 -18.667 -34.833 -32.334 -62.5 -41.001
s-61.5 -13 -101.5 -13c-35.333 0 -64 7.83301 -86 23.5s-33 39.167 -33 70.5c0 16 2.5 30.333 7.5 43s10.167 20.667 15.5 24l16 11c-1.33301 -6 -2.5 -12.167 -3.5 -18.5s-1.5 -14.166 -1.5 -23.499c0 -17.333 7.5 -30.166 22.5 -38.499s39.167 -12.5 72.5 -12.5
c36 0 65.833 1.66699 89.5 5s42.167 8.33301 55.5 15c-1.33301 13.333 -4.16602 26.5 -8.49902 39.5s-12.666 28 -24.999 45s-30 37 -53 60s-53.833 51.167 -92.5 84.5z" />
    <glyph glyph-name="uni0630" unicode="&#x630;" horiz-adv-x="432" arabic-form="isolated" 
d="M173 410c42.667 -36.667 76.998 -68.1699 102.998 -94.5029s46.167 -49.833 60.5 -70.5s23.833 -39.5 28.5 -56.5s7 -34.5 7 -52.5c0 -15.333 -2.83301 -31.166 -8.5 -47.499s-12.5 -30.166 -20.5 -41.499c-14 -18.667 -34.833 -32.334 -62.5 -41.001
s-61.5 -13 -101.5 -13c-35.333 0 -64 7.83301 -86 23.5s-33 39.167 -33 70.5c0 16 2.5 30.333 7.5 43s10.167 20.667 15.5 24l16 11c-1.33301 -6 -2.5 -12.167 -3.5 -18.5s-1.5 -14.166 -1.5 -23.499c0 -17.333 7.5 -30.166 22.5 -38.499s39.167 -12.5 72.5 -12.5
c36 0 65.833 1.66699 89.5 5s42.167 8.33301 55.5 15c-1.33301 13.333 -4.16602 26.5 -8.49902 39.5s-12.666 28 -24.999 45s-30 37 -53 60s-53.833 51.167 -92.5 84.5zM176.998 461.997c-10.667 4.66699 -22.499 12 -35.499 22s-23.5 20.667 -31.5 32l49 60
c8 -10.667 18.667 -21 32 -31s24.666 -17.667 33.999 -23z" />
    <glyph glyph-name="uni0631" unicode="&#x631;" horiz-adv-x="355" arabic-form="isolated" 
d="M224 257c32 -36 55.168 -71 69.501 -105s21.5 -69 21.5 -105c0 -23.333 -4 -47.166 -12 -71.499s-19.333 -48 -34 -71s-32.334 -44.5 -53.001 -64.5s-43.667 -36.667 -69 -50l-128 16l-14 20c36 10 69.167 22.667 99.5 38s57.333 32.166 81 50.499s43.167 37.333 58.5 57
s26 39.167 32 58.5c-5.33301 21.333 -16 44.333 -32 69s-36.667 48.667 -62 72z" />
    <glyph glyph-name="uni0632" unicode="&#x632;" horiz-adv-x="355" arabic-form="isolated" 
d="M224 257c32 -36 55.168 -71 69.501 -105s21.5 -69 21.5 -105c0 -23.333 -4 -47.166 -12 -71.499s-19.333 -48 -34 -71s-32.334 -44.5 -53.001 -64.5s-43.667 -36.667 -69 -50l-128 16l-14 20c36 10 69.167 22.667 99.5 38s57.333 32.166 81 50.499s43.167 37.333 58.5 57
s26 39.167 32 58.5c-5.33301 21.333 -16 44.333 -32 69s-36.667 48.667 -62 72zM221.001 340c-10.667 4.66699 -22.499 12 -35.499 22s-23.5 20.667 -31.5 32l49 60c8 -10.667 18.667 -21 32 -31s24.666 -17.667 33.999 -23z" />
    <glyph glyph-name="uni0633" unicode="&#x633;" horiz-adv-x="812" arabic-form="isolated" 
d="M87 126c-5.33301 -12 -9.33301 -27.6719 -12 -47.0049s-4 -38.666 -4 -57.999c0 -50 11.5 -87.5 34.5 -112.5s60.833 -37.5 113.5 -37.5c40 0 76.667 6.66699 110 20s58.666 31.666 75.999 54.999c-3.33301 38.667 -8.83301 72.334 -16.5 101.001
s-17.167 52.667 -28.5 72l47 65c12.667 -36 28.334 -63.333 47.001 -82s35.667 -28 51 -28c14.667 0 27.5 9.33301 38.5 28s23.833 51.334 38.5 98.001l31 14l-7 -40c18 -32 39.333 -55 64 -69s49.667 -21.333 75 -22c-2 25.333 -8 50 -18 74s-22.333 44 -37 60l36 76
c8.66699 -8.66699 16.667 -19 24 -31s13.666 -24.667 18.999 -38s9.66602 -26.666 12.999 -39.999s5 -26 5 -38c0 -10.667 -1.16699 -23.667 -3.5 -39s-7.5 -31 -15.5 -47c-10.667 -21.333 -21 -36 -31 -44s-20.667 -12 -32 -12c-21.333 0 -43.666 7.66699 -66.999 23
s-44.666 38 -63.999 68c-13.333 -39.333 -26 -65.833 -38 -79.5s-24.333 -20.5 -37 -20.5c-22 0 -38 8.66699 -48 26c0 -28.667 -2.5 -54.167 -7.5 -76.5s-13.833 -43.5 -26.5 -63.5c-16 -25.333 -41.667 -47.166 -77 -65.499s-79.666 -27.5 -132.999 -27.5
c-62.667 0 -108.667 16.333 -138 49s-44 77.334 -44 134.001c0 17.333 1.33301 34 4 50s6.16699 30.5 10.5 43.5s9.16602 24 14.499 33s10.333 15.167 15 18.5l18 11v-1z" />
    <glyph glyph-name="uni0634" unicode="&#x634;" horiz-adv-x="823" arabic-form="isolated" 
d="M88 126c-5.33301 -12 -9.33301 -27.6719 -12 -47.0049s-4 -38.666 -4 -57.999c0 -50 11.5 -87.5 34.5 -112.5s60.833 -37.5 113.5 -37.5c40 0 76.667 6.66699 110 20s58.666 31.666 75.999 54.999c-3.33301 38.667 -8.83301 72.334 -16.5 101.001
s-17.167 52.667 -28.5 72l47 65c12.667 -36 28.334 -63.333 47.001 -82s35.667 -28 51 -28c14.667 0 27.5 9.33301 38.5 28s23.833 51.334 38.5 98.001l31 14l-7 -40c18 -32 39.333 -55 64 -69s49.667 -21.333 75 -22c-2 25.333 -8 50 -18 74s-22.333 44 -37 60l36 76
c8.66699 -8.66699 16.667 -19 24 -31s13.666 -24.667 18.999 -38s9.66602 -26.666 12.999 -39.999s5 -26 5 -38c0 -10.667 -1.16699 -23.667 -3.5 -39s-7.5 -31 -15.5 -47c-10.667 -21.333 -21 -36 -31 -44s-20.667 -12 -32 -12c-21.333 0 -43.666 7.66699 -66.999 23
s-44.666 38 -63.999 68c-13.333 -39.333 -26 -65.833 -38 -79.5s-24.333 -20.5 -37 -20.5c-22 0 -38 8.66699 -48 26c0 -28.667 -2.5 -54.167 -7.5 -76.5s-13.833 -43.5 -26.5 -63.5c-16 -25.333 -41.667 -47.166 -77 -65.499s-79.666 -27.5 -132.999 -27.5
c-62.667 0 -108.667 16.333 -138 49s-44 77.334 -44 134.001c0 17.333 1.33301 34 4 50s6.16699 30.5 10.5 43.5s9.16602 24 14.499 33s10.333 15.167 15 18.5l18 11v-1zM527 386.995c-4 1.33301 -9.33301 4.16602 -16 8.49902s-13.167 9.33301 -19.5 15
s-12 11.167 -17 16.5s-8.5 9.66602 -10.5 12.999l48 59c6 -9.33301 15.167 -19.666 27.5 -30.999s23.5 -19.666 33.5 -24.999zM590 283.995c-9.33301 4 -19.499 10 -30.499 18s-20.5 16.333 -28.5 25l-34 -50c-10.667 4.66699 -22.5 11.5 -35.5 20.5
s-23.5 19.167 -31.5 30.5l46 61c6.66699 -8.66699 15 -17.667 25 -27s19.667 -16.666 29 -21.999l39 56c8.66699 -10 19.667 -19.833 33 -29.5s24.666 -16.834 33.999 -21.501z" />
    <glyph glyph-name="uni0635" unicode="&#x635;" horiz-adv-x="904" arabic-form="isolated" 
d="M87 127c-5.33301 -12.667 -9.33496 -28.6729 -12.002 -48.0059s-4 -38.666 -4 -57.999c0 -50 11.5 -87.5 34.5 -112.5s60.833 -37.5 113.5 -37.5c40 0 76.667 6.66699 110 20s58.666 31.666 75.999 54.999c-3.33301 38.667 -8.83301 72.334 -16.5 101.001
s-17.167 52.667 -28.5 72l45 62c7.33301 -19.333 17 -36.666 29 -51.999s25.333 -28.333 40 -39c16.667 28 36.334 55.333 59.001 82s46.334 50.5 71.001 71.5s49.834 37.833 75.501 50.5s50.167 19 73.5 19c15.333 0 30 -3.83301 44 -11.5s26.333 -18 37 -31
s19.167 -28 25.5 -45s9.5 -35.167 9.5 -54.5c0 -11.333 -4.5 -26.166 -13.5 -44.499s-20.833 -36.833 -35.5 -55.5c-9.33301 -11.333 -22.833 -21.666 -40.5 -30.999s-37.5 -17.5 -59.5 -24.5s-44.667 -12.5 -68 -16.5s-45.333 -6 -66 -6
c-32.667 0 -59.834 2.33301 -81.501 7s-39.5 11.667 -53.5 21c0 -30 -2.5 -55.833 -7.5 -77.5s-13.833 -42.5 -26.5 -62.5c-16 -25.333 -41.667 -47.166 -77 -65.499s-79.666 -27.5 -132.999 -27.5c-62.667 0 -108.667 16.333 -138 49s-44 77.334 -44 134.001
c0 17.333 1.33301 34 4 50s6.16699 30.5 10.5 43.5s9 24 14 33s10.167 15.167 15.5 18.5zM819.998 121.994c-4.66699 35.333 -15.332 62.832 -31.999 82.499s-37.334 29.5 -62.001 29.5c-14.667 0 -31.167 -4.5 -49.5 -13.5s-37.166 -20.667 -56.499 -35
s-38.5 -30.833 -57.5 -49.5s-36.5 -38 -52.5 -58c7.33301 -1.33301 16.833 -2.66602 28.5 -3.99902s23.834 -2 36.501 -2c53.333 0 101.166 4.5 143.499 13.5s76.166 21.167 101.499 36.5z" />
    <glyph glyph-name="uni0636" unicode="&#x636;" horiz-adv-x="904" arabic-form="isolated" 
d="M87 127c-5.33301 -12.667 -9.33496 -28.6729 -12.002 -48.0059s-4 -38.666 -4 -57.999c0 -50 11.5 -87.5 34.5 -112.5s60.833 -37.5 113.5 -37.5c40 0 76.667 6.66699 110 20s58.666 31.666 75.999 54.999c-3.33301 38.667 -8.83301 72.334 -16.5 101.001
s-17.167 52.667 -28.5 72l45 62c7.33301 -19.333 17 -36.666 29 -51.999s25.333 -28.333 40 -39c16.667 28 36.334 55.333 59.001 82s46.334 50.5 71.001 71.5s49.834 37.833 75.501 50.5s50.167 19 73.5 19c15.333 0 30 -3.83301 44 -11.5s26.333 -18 37 -31
s19.167 -28 25.5 -45s9.5 -35.167 9.5 -54.5c0 -11.333 -4.5 -26.166 -13.5 -44.499s-20.833 -36.833 -35.5 -55.5c-9.33301 -11.333 -22.833 -21.666 -40.5 -30.999s-37.5 -17.5 -59.5 -24.5s-44.667 -12.5 -68 -16.5s-45.333 -6 -66 -6
c-32.667 0 -59.834 2.33301 -81.501 7s-39.5 11.667 -53.5 21c0 -30 -2.5 -55.833 -7.5 -77.5s-13.833 -42.5 -26.5 -62.5c-16 -25.333 -41.667 -47.166 -77 -65.499s-79.666 -27.5 -132.999 -27.5c-62.667 0 -108.667 16.333 -138 49s-44 77.334 -44 134.001
c0 17.333 1.33301 34 4 50s6.16699 30.5 10.5 43.5s9 24 14 33s10.167 15.167 15.5 18.5zM819.998 121.994c-4.66699 35.333 -15.332 62.832 -31.999 82.499s-37.334 29.5 -62.001 29.5c-14.667 0 -31.167 -4.5 -49.5 -13.5s-37.166 -20.667 -56.499 -35
s-38.5 -30.833 -57.5 -49.5s-36.5 -38 -52.5 -58c7.33301 -1.33301 16.833 -2.66602 28.5 -3.99902s23.834 -2 36.501 -2c53.333 0 101.166 4.5 143.499 13.5s76.166 21.167 101.499 36.5zM573 390.993c-10.667 4.66699 -22.499 12 -35.499 22s-23.5 20.667 -31.5 32l49 60
c8 -10.667 18.667 -21 32 -31s24.666 -17.667 33.999 -23z" />
    <glyph glyph-name="uni0637" unicode="&#x637;" horiz-adv-x="574" arabic-form="isolated" 
d="M194 621c2 -9.33301 5.16406 -19.6641 9.49707 -30.9971s9.5 -22.333 15.5 -33s12.5 -20.5 19.5 -29.5s13.833 -16.5 20.5 -22.5l-51 -32c0 -28.667 0.5 -59.834 1.5 -93.501s1.5 -62.834 1.5 -87.501c0 -10.667 -0.333008 -22.667 -1 -36s-1.5 -26.833 -2.5 -40.5
s-2.33301 -26.334 -4 -38.001s-3.5 -21.5 -5.5 -29.5h4c16 23.333 32.833 45 50.5 65s35.834 37.5 54.501 52.5s37.834 26.667 57.501 35s39.167 12.5 58.5 12.5c15.333 0 30 -3.83301 44 -11.5s26.333 -18 37 -31s19.167 -28 25.5 -45s9.5 -35.167 9.5 -54.5
c0 -11.333 -4.33301 -26.166 -13 -44.499s-20.667 -36.833 -36 -55.5c-9.33301 -12 -21.833 -22.833 -37.5 -32.5s-33 -17.834 -52 -24.501s-39.5 -11.834 -61.5 -15.501s-44.333 -5.5 -67 -5.5c-22 0 -44.5 1.33301 -67.5 4s-45.167 6.16699 -66.5 10.5
s-41.5 9.33301 -60.5 15s-35.833 11.834 -50.5 18.501l-19 61c24 -4.66699 46.5 -8.5 67.5 -11.5s43.833 -5.5 68.5 -7.5l9 14c1.33301 7.33301 2.33301 16.333 3 27l2 33c0.666992 11.333 1 22.5 1 33.5v28.5c0 38.667 -0.5 72.5 -1.5 101.5s-3.16699 55.833 -6.5 80.5
c-3.33301 25.333 -5.83301 48.166 -7.5 68.499s-3.16699 42.5 -4.5 66.5c-3.33301 8.66699 -5.66602 20.334 -6.99902 35.001zM179.997 78.002c7.33301 -1.33301 16.835 -2.66699 28.502 -4s23.834 -2 36.501 -2c53.333 0 101.166 4.5 143.499 13.5
s76.166 21.167 101.499 36.5c-4.66699 35.333 -15.334 62.833 -32.001 82.5s-37.334 29.5 -62.001 29.5c-14.667 0 -31.167 -4.5 -49.5 -13.5s-37.166 -20.667 -56.499 -35s-38.5 -30.833 -57.5 -49.5s-36.5 -38 -52.5 -58z" />
    <glyph glyph-name="uni0638" unicode="&#x638;" horiz-adv-x="574" arabic-form="isolated" 
d="M194 621c2 -9.33301 5.16406 -19.6641 9.49707 -30.9971s9.5 -22.333 15.5 -33s12.5 -20.5 19.5 -29.5s13.833 -16.5 20.5 -22.5l-51 -32c0 -28.667 0.5 -59.834 1.5 -93.501s1.5 -62.834 1.5 -87.501c0 -10.667 -0.333008 -22.667 -1 -36s-1.5 -26.833 -2.5 -40.5
s-2.33301 -26.334 -4 -38.001s-3.5 -21.5 -5.5 -29.5h4c16 23.333 32.833 45 50.5 65s35.834 37.5 54.501 52.5s37.834 26.667 57.501 35s39.167 12.5 58.5 12.5c15.333 0 30 -3.83301 44 -11.5s26.333 -18 37 -31s19.167 -28 25.5 -45s9.5 -35.167 9.5 -54.5
c0 -11.333 -4.33301 -26.166 -13 -44.499s-20.667 -36.833 -36 -55.5c-9.33301 -12 -21.833 -22.833 -37.5 -32.5s-33 -17.834 -52 -24.501s-39.5 -11.834 -61.5 -15.501s-44.333 -5.5 -67 -5.5c-22 0 -44.5 1.33301 -67.5 4s-45.167 6.16699 -66.5 10.5
s-41.5 9.33301 -60.5 15s-35.833 11.834 -50.5 18.501l-19 61c24 -4.66699 46.5 -8.5 67.5 -11.5s43.833 -5.5 68.5 -7.5l9 14c1.33301 7.33301 2.33301 16.333 3 27l2 33c0.666992 11.333 1 22.5 1 33.5v28.5c0 38.667 -0.5 72.5 -1.5 101.5s-3.16699 55.833 -6.5 80.5
c-3.33301 25.333 -5.83301 48.166 -7.5 68.499s-3.16699 42.5 -4.5 66.5c-3.33301 8.66699 -5.66602 20.334 -6.99902 35.001zM179.997 78.002c7.33301 -1.33301 16.835 -2.66699 28.502 -4s23.834 -2 36.501 -2c53.333 0 101.166 4.5 143.499 13.5
s76.166 21.167 101.499 36.5c-4.66699 35.333 -15.334 62.833 -32.001 82.5s-37.334 29.5 -62.001 29.5c-14.667 0 -31.167 -4.5 -49.5 -13.5s-37.166 -20.667 -56.499 -35s-38.5 -30.833 -57.5 -49.5s-36.5 -38 -52.5 -58zM400.999 391.001
c-10.667 4.66699 -22.499 12 -35.499 22s-23.5 20.667 -31.5 32l49 60c8 -10.667 18.667 -21 32 -31s24.666 -17.667 33.999 -23z" />
    <glyph glyph-name="uni0639" unicode="&#x639;" horiz-adv-x="539" arabic-form="isolated" 
d="M322 375c-14 11.333 -26.668 19.1709 -38.001 23.5039s-26 6.5 -44 6.5c-10.667 0 -22.167 -1.33301 -34.5 -4s-24.333 -6.33398 -36 -11.001s-22.834 -9.83398 -33.501 -15.501s-20 -11.834 -28 -18.501c9.33301 -25.333 26.333 -46.833 51 -64.5s58 -30.167 100 -37.5
c10.667 6 23.334 12.5 38.001 19.5s29.834 13.5 45.501 19.5s31.167 11.5 46.5 16.5s29 8.83301 41 11.5l-19 -90c-41.333 -10 -81.333 -23.167 -120 -39.5s-73 -35.333 -103 -57s-54 -46.167 -72 -73.5s-27 -57 -27 -89c0 -50.667 20.833 -90.5 62.5 -119.5
s100.834 -43.5 177.501 -43.5c42 0 81.167 2.5 117.5 7.5s67.166 12.167 92.499 21.5l-4 -21c-1.33301 -6 -8.83301 -14 -22.5 -24s-32.167 -20 -55.5 -30s-50.166 -18.667 -80.499 -26s-62.5 -11 -96.5 -11c-36 0 -69.167 4.33301 -99.5 13s-56.166 21.667 -77.499 39
s-38 38.833 -50 64.5s-18 55.834 -18 90.501c0 46.667 12.833 93 38.5 139s62.5 88.333 110.5 127c-36 9.33301 -64 24.333 -84 45s-30 44.667 -30 72c0 17.333 4.16699 35.666 12.5 54.999s19.666 37.166 33.999 53.499s30.833 29.833 49.5 40.5s38.334 16 59.001 16
c21.333 0 40.166 -7 56.499 -21s35.166 -37.667 56.499 -71z" />
    <glyph glyph-name="uni063A" unicode="&#x63a;" horiz-adv-x="539" arabic-form="isolated" 
d="M322 375c-14 11.333 -26.668 19.1709 -38.001 23.5039s-26 6.5 -44 6.5c-10.667 0 -22.167 -1.33301 -34.5 -4s-24.333 -6.33398 -36 -11.001s-22.834 -9.83398 -33.501 -15.501s-20 -11.834 -28 -18.501c9.33301 -25.333 26.333 -46.833 51 -64.5s58 -30.167 100 -37.5
c10.667 6 23.334 12.5 38.001 19.5s29.834 13.5 45.501 19.5s31.167 11.5 46.5 16.5s29 8.83301 41 11.5l-19 -90c-41.333 -10 -81.333 -23.167 -120 -39.5s-73 -35.333 -103 -57s-54 -46.167 -72 -73.5s-27 -57 -27 -89c0 -50.667 20.833 -90.5 62.5 -119.5
s100.834 -43.5 177.501 -43.5c42 0 81.167 2.5 117.5 7.5s67.166 12.167 92.499 21.5l-4 -21c-1.33301 -6 -8.83301 -14 -22.5 -24s-32.167 -20 -55.5 -30s-50.166 -18.667 -80.499 -26s-62.5 -11 -96.5 -11c-36 0 -69.167 4.33301 -99.5 13s-56.166 21.667 -77.499 39
s-38 38.833 -50 64.5s-18 55.834 -18 90.501c0 46.667 12.833 93 38.5 139s62.5 88.333 110.5 127c-36 9.33301 -64 24.333 -84 45s-30 44.667 -30 72c0 17.333 4.16699 35.666 12.5 54.999s19.666 37.166 33.999 53.499s30.833 29.833 49.5 40.5s38.334 16 59.001 16
c21.333 0 40.166 -7 56.499 -21s35.166 -37.667 56.499 -71zM201.999 532.005c-10.667 4.66699 -22.499 12 -35.499 22s-23.5 20.667 -31.5 32l49 60c8 -10.667 18.667 -21 32 -31s24.666 -17.667 33.999 -23z" />
    <glyph glyph-name="uni0641" unicode="&#x641;" horiz-adv-x="779" arabic-form="isolated" 
d="M83 265l-4.00488 -23.999c-1.33301 -8 -2 -14.667 -2 -20c0 -28 4.33301 -52 13 -72s22.834 -36.167 42.501 -48.5s45 -21.333 76 -27s68.833 -8.5 113.5 -8.5c33.333 0 67.833 1.66699 103.5 5s70.334 8 104.001 14s65.5 13.333 95.5 22s56.667 18.667 80 30
c-1.33301 12.667 -2.66602 24.5 -3.99902 35.5s-2.66602 20.167 -3.99902 27.5c-9.33301 -11.333 -21.5 -20.833 -36.5 -28.5s-29.833 -11.5 -44.5 -11.5c-15.333 0 -29.666 2.83301 -42.999 8.5s-25 13.667 -35 24s-17.833 22.5 -23.5 36.5s-8.5 29.333 -8.5 46
c0 15.333 2.83301 31 8.5 47s13.334 30.5 23.001 43.5s20.667 23.667 33 32s25.5 12.5 39.5 12.5c16.667 0 33 -5.5 49 -16.5s30.333 -26.5 43 -46.5s22.834 -43.667 30.501 -71s11.5 -57 11.5 -89c0 -30 -5.83301 -54.833 -17.5 -74.5s-32.5 -38.5 -62.5 -56.5
c-17.333 -10.667 -39.833 -20.5 -67.5 -29.5s-58 -16.667 -91 -23s-67.667 -11.333 -104 -15s-71.5 -5.5 -105.5 -5.5c-49.333 0 -90.5 3.33301 -123.5 10s-59.833 16.834 -80.5 30.501s-35.334 31.167 -44.001 52.5s-13 46.666 -13 75.999
c0 25.333 3.16699 48.166 9.5 68.499s13.166 32.833 20.499 37.5zM539.995 275.001c7.33301 -15.333 18.165 -26.667 32.498 -34s30.833 -11 49.5 -11c12 0 24.333 1.66699 37 5s21.667 7 27 11c-4.66699 28 -15.167 49.667 -31.5 65s-32.833 23 -49.5 23
c-15.333 0 -28.666 -5.5 -39.999 -16.5s-19.666 -25.167 -24.999 -42.5zM601.994 450c-10.667 4.66699 -22.499 12 -35.499 22s-23.5 20.667 -31.5 32l49 60c8 -10.667 18.667 -21 32 -31s24.666 -17.667 33.999 -23z" />
    <glyph glyph-name="uni0642" unicode="&#x642;" horiz-adv-x="562" arabic-form="isolated" 
d="M97 166c-5.33301 -12.667 -9.3418 -28.668 -12.0088 -48.001s-4 -38.666 -4 -57.999c0 -23.333 3 -44.166 9 -62.499s15.667 -34 29 -47s30.5 -23 51.5 -30s46.833 -10.5 77.5 -10.5c24 0 47.5 1.83301 70.5 5.5s44.833 9 65.5 16s39.334 15.333 56.001 25
s30.667 20.167 42 31.5c0 18.667 -0.666992 36.5 -2 53.5s-3.33301 31.167 -6 42.5c-9.33301 -11.333 -21.5 -20.833 -36.5 -28.5s-29.833 -11.5 -44.5 -11.5c-15.333 0 -29.666 2.83301 -42.999 8.5s-25 13.667 -35 24s-17.833 22.5 -23.5 36.5s-8.5 29.333 -8.5 46
c0 15.333 2.83301 31 8.5 47s13.334 30.5 23.001 43.5s20.834 23.667 33.501 32s26 12.5 40 12.5c16.667 0 32.834 -5.5 48.501 -16.5s29.834 -26.5 42.501 -46.5s22.834 -43.5 30.501 -70.5s11.5 -56.5 11.5 -88.5c0 -25.333 -1 -46.666 -3 -63.999
s-5.16699 -32.5 -9.5 -45.5s-10.333 -24.5 -18 -34.5s-17.167 -20 -28.5 -30c-24.667 -21.333 -57.167 -38.5 -97.5 -51.5s-86.166 -19.5 -137.499 -19.5c-65.333 0 -113.666 16.667 -144.999 50s-47 77.666 -47 132.999c0 17.333 1.33301 34.166 4 50.499
s6.16699 31 10.5 44s9 23.833 14 32.5s10.167 14.667 15.5 18zM316.991 159.999c7.33301 -15.333 18.165 -26.667 32.498 -34s30.833 -11 49.5 -11c12 0 24.333 1.66699 37 5s21.667 7 27 11c-4.66699 28 -15.167 49.667 -31.5 65s-32.833 23 -49.5 23
c-15.333 0 -28.666 -5.5 -39.999 -16.5s-19.666 -25.167 -24.999 -42.5zM433.99 343.998c-9.33301 4 -19.499 10 -30.499 18s-20.5 16.333 -28.5 25l-34 -50c-10.667 4.66699 -22.5 11.5 -35.5 20.5s-23.5 19.167 -31.5 30.5l46 61c6.66699 -8.66699 15 -17.667 25 -27
s19.667 -16.666 29 -21.999l39 56c8.66699 -10 19.667 -19.833 33 -29.5s24.666 -16.834 33.999 -21.501z" />
    <glyph glyph-name="uni0643" unicode="&#x643;" horiz-adv-x="612" arabic-form="isolated" 
d="M84 232c-2 -7.33301 -3.66406 -16.1709 -4.99707 -26.5039s-2 -21.166 -2 -32.499c0 -44 13.167 -76 39.5 -96s66.833 -30 121.5 -30c22.667 0 45.667 1.33301 69 4s45.666 6.33398 66.999 11.001s41 10.334 59 17.001s33.333 14 46 22
c0 45.333 -1.66699 90.666 -5 135.999s-7 87.666 -11 126.999l-11 104c-3.33301 30 -5 52.667 -5 68l-4 16.5c-1.33301 5.66699 -2.33301 11.834 -3 18.501l62 50c2 -9.33301 5.16699 -19.666 9.5 -30.999s9.5 -22.333 15.5 -33s12.5 -20.5 19.5 -29.5
s13.833 -16.5 20.5 -22.5l-51 -32c1.33301 -49.333 3.66602 -101 6.99902 -155s5 -112 5 -174c0 -9.33301 -1.66699 -19.333 -5 -30s-7.66602 -21.5 -12.999 -32.5s-11.833 -21.5 -19.5 -31.5s-15.834 -19 -24.501 -27c-10 -8 -23.5 -15.667 -40.5 -23
s-36.333 -13.666 -58 -18.999s-45.334 -9.5 -71.001 -12.5s-52.5 -4.5 -80.5 -4.5c-63.333 0 -109.333 13.167 -138 39.5s-43 63.833 -43 112.5c0 25.333 3 48 9 68s13 32.667 21 38zM168.003 191.995l0.00195312 4.00195c32.667 4.66699 58.667 8.66699 78 12
s34.166 6.16602 44.499 8.49902s17 4 20 5s4.5 2.16699 4.5 3.5c0 2 -2.83301 5.33301 -8.5 10s-17.5 12.667 -35.5 24c-9.33301 6 -16.5 10.833 -21.5 14.5s-8.66699 7 -11 10s-3.83301 5.5 -4.5 7.5s-1 4.33301 -1 7c0 7.33301 2.33301 16.666 7 27.999
c11.333 25.333 29 45.833 53 61.5s48.667 23.5 74 23.5l-22 -50c-30 -4.66699 -50.833 -10.834 -62.5 -18.501s-17.5 -14.5 -17.5 -20.5c0 -3.33301 3.16699 -6.83301 9.5 -10.5s17.166 -10.5 32.499 -20.5c18.667 -12 31.167 -21.167 37.5 -27.5s9.5 -13.166 9.5 -20.499
c0 -16 -6.5 -30.833 -19.5 -44.5s-33.5 -22.5 -61.5 -26.5l-55 -8z" />
    <glyph glyph-name="uni0644" unicode="&#x644;" horiz-adv-x="496" arabic-form="isolated" 
d="M87 79c-3.33301 -9.33301 -5.83496 -19.6719 -7.50195 -31.0049s-2.5 -25.666 -2.5 -42.999c0 -37.333 9.33301 -65.333 28 -84s45 -28 79 -28c38 0 74 4 108 12s62.667 20.667 86 38c0.666992 62.667 -0.833008 120.167 -4.5 172.5s-7.5 103.5 -11.5 153.5l-10 130.5
c-3.33301 43 -5.66602 88.5 -6.99902 136.5c-1.33301 5.33301 -2.5 10.833 -3.5 16.5s-2.16699 11.834 -3.5 18.501l63 50c2 -9.33301 5.16699 -19.666 9.5 -30.999s9.5 -22.333 15.5 -33s12.5 -20.667 19.5 -30s13.833 -16.666 20.5 -21.999l-51 -32
c0.666992 -28 1.66699 -57.5 3 -88.5l4 -96.5c1.33301 -34 2.5 -67.667 3.5 -101s1.5 -65.666 1.5 -96.999s-0.333008 -59.666 -1 -84.999s-3 -47 -7 -65c-4 -20 -13.833 -38 -29.5 -54s-34.667 -29.667 -57 -41s-46.666 -20 -72.999 -26s-52.166 -9 -77.499 -9
c-48 0 -84.5 13 -109.5 39s-37.5 63.667 -37.5 113c0 25.333 3.66699 48.166 11 68.499s14.666 32.833 21.999 37.5z" />
    <glyph glyph-name="uni0645" unicode="&#x645;" horiz-adv-x="458" arabic-form="isolated" 
d="M94 0c3.33301 -23.333 7.83496 -48.5 13.502 -75.5l18.5 -89.5c5.33301 -25.333 9.5 -49.333 12.5 -72s4.5 -42.334 4.5 -59.001c0 -16 -0.666992 -29 -2 -39s-5.33301 -20.667 -12 -32l-19 6c-1.33301 14 -2.83301 26.667 -4.5 38s-4 24.333 -7 39s-7 32.167 -12 52.5
l-19.5 77.5l-15.5 67c-4.33301 19.333 -6.5 35.666 -6.5 48.999c0 28 8 51.667 24 71s37 32.666 63 39.999c-3.33301 9.33301 -6 18.833 -8 28.5s-3 20.167 -3 31.5c0 14 2.66699 28.333 8 43s12.666 28 21.999 40s19.833 21.667 31.5 29s24.167 11 37.5 11
c18 0 36.667 -4.66699 56 -14s38.166 -22.166 56.499 -38.499s35.5 -35.666 51.5 -57.999s29 -46.833 39 -73.5l-35 -79c-9.33301 2.66699 -21.166 5.33398 -35.499 8.00098s-29.666 5 -45.999 7s-32.833 3.66699 -49.5 5s-32.334 2 -47.001 2
c-26.667 0 -49.834 -1.5 -69.501 -4.5s-35.167 -6.5 -46.5 -10.5zM163.002 78c10.667 2 22.3311 3.83398 34.998 5.50098s26.334 2.5 41.001 2.5c8 0 18 -0.5 30 -1.5s24 -2.16699 36 -3.5s23.333 -2.83301 34 -4.5s19 -3.16699 25 -4.5l1 2
c-9.33301 16 -20.166 30.667 -32.499 44s-25.333 25 -39 35s-27.5 17.667 -41.5 23s-27 8 -39 8c-17.333 0 -30.833 -6.83301 -40.5 -20.5s-14.5 -30.834 -14.5 -51.501c0 -10.667 1.66699 -22 5 -34z" />
    <glyph glyph-name="uni0646" unicode="&#x646;" horiz-adv-x="496" arabic-form="isolated" 
d="M246 290c-10.667 4.66699 -22.499 12 -35.499 22s-23.5 20.667 -31.5 32l49 60c8 -10.667 18.667 -21 32 -31s24.666 -17.667 33.999 -23zM97.001 127c-5.33301 -12.667 -9.33301 -28.6699 -12 -48.0029s-4 -38.666 -4 -57.999c0 -50 11.5 -87.5 34.5 -112.5
s60.833 -37.5 113.5 -37.5c40 0 76.667 6.66699 110 20s58.666 31.666 75.999 54.999c-3.33301 38.667 -8.83301 72.834 -16.5 102.501s-18.167 56.5 -31.5 80.5l50 77c13.333 -27.333 24 -57 32 -89s12 -64 12 -96c0 -30 -2.5 -55.833 -7.5 -77.5
s-13.833 -42.5 -26.5 -62.5c-16 -25.333 -41.667 -47.166 -77 -65.499s-79.666 -27.5 -132.999 -27.5c-62.667 0 -108.667 16.333 -138 49s-44 77.334 -44 134.001c0 17.333 1.33301 34 4 50s6.16699 30.5 10.5 43.5s9 24 14 33s10.167 15.167 15.5 18.5z" />
    <glyph glyph-name="uni0648" unicode="&#x648;" horiz-adv-x="360" arabic-form="isolated" 
d="M5 -174c38.667 10.667 73.4941 24.1689 104.494 40.502s58 34 81 53s41.667 38.833 56 59.5s24.166 40.667 29.499 60c-7.33301 -7.33301 -17.166 -14 -29.499 -20s-25.833 -9 -40.5 -9c-15.333 0 -29.666 2.83301 -42.999 8.5s-25 13.667 -35 24
s-17.833 22.5 -23.5 36.5s-8.5 29.333 -8.5 46c0 15.333 2.83301 31 8.5 47s13.334 30.5 23.001 43.5s20.834 23.667 33.501 32s26 12.5 40 12.5c16 0 31.167 -4.83301 45.5 -14.5s27 -22.834 38 -39.501s19.667 -36.167 26 -58.5s9.5 -45.833 9.5 -70.5
c0 -30.667 -4.16699 -60.334 -12.5 -89.001s-20.166 -55.334 -35.499 -80.001s-33.666 -47.167 -54.999 -67.5s-44.666 -37.166 -69.999 -50.499l-128 16zM129.994 126.002c7.33301 -15.333 18.165 -26.667 32.498 -34s30.833 -11 49.5 -11c12 0 24.333 1.66699 37 5
s21.667 7 27 11c-4.66699 28 -15.167 49.667 -31.5 65s-32.833 23 -49.5 23c-15.333 0 -28.666 -5.5 -39.999 -16.5s-19.666 -25.167 -24.999 -42.5z" />
    <glyph glyph-name="uni0649" unicode="&#x649;" horiz-adv-x="629" arabic-form="isolated" 
d="M101 124c-5.33301 -12.667 -9.33398 -26 -12.001 -40s-4 -31.333 -4 -52c0 -48.667 16.5 -86.334 49.5 -113.001s77.833 -40 134.5 -40c59.333 0 109.333 7.66699 150 23s69.667 34 87 56c-3.33301 4 -7.16602 7.83301 -11.499 11.5s-10 8 -17 13
s-16.167 10.5 -27.5 16.5l-42 22c-17.333 8.66699 -31.5 16.334 -42.5 23.001s-19.5 13.167 -25.5 19.5s-10.167 12.833 -12.5 19.5s-3.5 14 -3.5 22c0 23.333 5.5 46.833 16.5 70.5s25.833 45.167 44.5 64.5s40.5 35.166 65.5 47.499s51.5 18.5 79.5 18.5
c15.333 0 29.5 -2 42.5 -6s24.167 -8.66699 33.5 -14l-37 -74c-8 4 -17.167 7.5 -27.5 10.5s-21.833 4.5 -34.5 4.5c-30.667 0 -57.834 -8 -81.501 -24s-42.167 -37.667 -55.5 -65c2.66699 -3.33301 6 -6.5 10 -9.5s9.5 -6.5 16.5 -10.5l26.5 -14.5l40 -20.5
c32 -16 54.333 -30 67 -42s19 -23.667 19 -35c0 -8 -1.16699 -18.5 -3.5 -31.5s-6.16602 -26.167 -11.499 -39.5c-18.667 -42 -52.5 -75.667 -101.5 -101s-110.167 -38 -183.5 -38c-70 0 -122.5 17.333 -157.5 52s-52.5 84 -52.5 148c0 29.333 4.5 54.333 13.5 75
s18.833 34.334 29.5 41.001z" />
    <glyph glyph-name="uni064A" unicode="&#x64a;" horiz-adv-x="629" arabic-form="isolated" 
d="M101 124c-5.33301 -12.667 -9.33398 -26 -12.001 -40s-4 -31.333 -4 -52c0 -48.667 16.5 -86.334 49.5 -113.001s77.833 -40 134.5 -40c59.333 0 109.333 7.66699 150 23s69.667 34 87 56c-3.33301 4 -7.16602 7.83301 -11.499 11.5s-10 8 -17 13
s-16.167 10.5 -27.5 16.5l-42 22c-17.333 8.66699 -31.5 16.334 -42.5 23.001s-19.5 13.167 -25.5 19.5s-10.167 12.833 -12.5 19.5s-3.5 14 -3.5 22c0 23.333 5.5 46.833 16.5 70.5s25.833 45.167 44.5 64.5s40.5 35.166 65.5 47.499s51.5 18.5 79.5 18.5
c15.333 0 29.5 -2 42.5 -6s24.167 -8.66699 33.5 -14l-37 -74c-8 4 -17.167 7.5 -27.5 10.5s-21.833 4.5 -34.5 4.5c-30.667 0 -57.834 -8 -81.501 -24s-42.167 -37.667 -55.5 -65c2.66699 -3.33301 6 -6.5 10 -9.5s9.5 -6.5 16.5 -10.5l26.5 -14.5l40 -20.5
c32 -16 54.333 -30 67 -42s19 -23.667 19 -35c0 -8 -1.16699 -18.5 -3.5 -31.5s-6.16602 -26.167 -11.499 -39.5c-18.667 -42 -52.5 -75.667 -101.5 -101s-110.167 -38 -183.5 -38c-70 0 -122.5 17.333 -157.5 52s-52.5 84 -52.5 148c0 29.333 4.5 54.333 13.5 75
s18.833 34.334 29.5 41.001zM330.999 -357c-9.33301 4 -19.499 10 -30.499 18s-20.5 16.333 -28.5 25l-34 -50c-10.667 4.66699 -22.5 11.5 -35.5 20.5s-23.5 19.167 -31.5 30.5l46 61c6.66699 -8.66699 15 -17.667 25 -27s19.667 -16.666 29 -21.999l39 56
c8.66699 -10 19.667 -19.833 33 -29.5s24.666 -16.834 33.999 -21.501z" />
    <glyph glyph-name="uni0671" unicode="&#x671;" horiz-adv-x="200" arabic-form="isolated" 
d="M137 575c0 -39.333 0.666992 -79.498 2 -120.498l4 -121.5c2 -38 3.66699 -74 5 -108s2 -65 2 -93c0 -26.667 -0.5 -46 -1.5 -58s-2.83301 -22.667 -5.5 -32c-2.66699 -8 -6.33398 -17.333 -11.001 -28s-9.66699 -20.667 -15 -30h-20c0 71.333 -1.5 132.666 -4.5 183.999
s-6.5 98.666 -10.5 141.999c-3.33301 41.333 -6.16602 80.333 -8.49902 117s-3.5 77 -3.5 121l67 56v-29zM20 615.002c-4 8.66699 -6.00098 17.001 -6.00098 25.001c0 11.333 3.33301 20.666 10 27.999s15.667 12 27 14c8 28 20 49.5 36 64.5s34.667 22.5 56 22.5
c15.333 0 28 -5.5 38 -16.5s15 -25.167 15 -42.5c0 -18.667 -7.5 -34.167 -22.5 -46.5s-38.167 -18.5 -69.5 -18.5c-13.333 0 -24.333 -0.333008 -33 -1s-16.167 -2.16699 -22.5 -4.5s-11.666 -5.5 -15.999 -9.5s-8.5 -9 -12.5 -15zM70.999 685.003
c6 -1.33301 12.3311 -2 18.998 -2h19c37.333 0 56 7.66699 56 23c0 8 -3.16699 14.167 -9.5 18.5s-14.166 6.5 -23.499 6.5c-11.333 0 -22.666 -4 -33.999 -12s-20.333 -19.333 -27 -34z" />
    <glyph glyph-name="uni067E" unicode="&#x67e;" horiz-adv-x="779" arabic-form="isolated" 
d="M697 358c6 -8 11.832 -18.3311 17.499 -30.998s10.667 -26.5 15 -41.5s7.83301 -30.5 10.5 -46.5s4 -31.667 4 -47c0 -22.667 -5.83301 -45.334 -17.5 -68.001s-30.167 -42.667 -55.5 -60c-20 -13.333 -43.5 -25.166 -70.5 -35.499s-56 -19 -87 -26
s-63.5 -12.167 -97.5 -15.5s-68 -5 -102 -5c-53.333 0 -97.833 3.5 -133.5 10.5s-64.167 17.5 -85.5 31.5s-36.666 31.667 -45.999 53s-14 46.666 -14 75.999c0 25.333 3 48.166 9 68.499s12.667 32.833 20 37.5l19 12c-1.33301 -7.33301 -2.66602 -15.833 -3.99902 -25.5
s-2 -17.167 -2 -22.5c0 -28 4.5 -52 13.5 -72s23.833 -36.333 44.5 -49s47.5 -22 80.5 -28s73.5 -9 121.5 -9c34.667 0 69 1.66699 103 5s66.667 8.16602 98 14.499s60.666 14 87.999 23s51 19.167 71 30.5c-4 24.667 -10.833 49.334 -20.5 74.001s-20.167 44.667 -31.5 60z
M361.999 -293.998c-12 4.66699 -23.999 11.333 -35.999 20s-21.667 17.667 -29 27l42 58c8 -10 18.167 -19 30.5 -27s25.166 -14.333 38.499 -19zM390 -187.999c-9.33301 4 -19.499 10 -30.499 18s-20.5 16.333 -28.5 25l-34 -50c-10.667 4.66699 -22.5 11.5 -35.5 20.5
s-23.5 19.167 -31.5 30.5l46 61c6.66699 -8.66699 15 -17.667 25 -27s19.667 -16.666 29 -21.999l39 56c8.66699 -10 19.667 -19.833 33 -29.5s24.666 -16.834 33.999 -21.501z" />
    <glyph glyph-name="uni0686" unicode="&#x686;" horiz-adv-x="544" arabic-form="isolated" 
d="M44 272c-2 2.66699 -3.50391 5.66602 -4.50391 8.99902s-1.5 6.33301 -1.5 9c0 7.33301 2.5 16.333 7.5 27s12.833 22 23.5 34c13.333 16.667 28 29 44 37s29.667 12 41 12c14.667 0 31.5 -3.16699 50.5 -9.5s44.5 -17.166 76.5 -32.499c17.333 -8 33.5 -14.667 48.5 -20
s30.333 -9.5 46 -12.5s33 -5.16699 52 -6.5s41.167 -2 66.5 -2l-25 -70c-54 -1.33301 -104.833 -9.16602 -152.5 -23.499s-89.5 -33.666 -125.5 -57.999s-64.5 -53 -85.5 -86s-31.5 -68.833 -31.5 -107.5c0 -50.667 20.833 -90.5 62.5 -119.5s100.834 -43.5 177.501 -43.5
c42 0 79.167 2.16699 111.5 6.5s65.166 11.833 98.499 22.5l-4 -21c-1.33301 -6 -8.83301 -14 -22.5 -24s-32.167 -20 -55.5 -30s-50.166 -18.667 -80.499 -26s-62.5 -11 -96.5 -11c-75.333 0 -135 17.5 -179 52.5s-66 86.5 -66 154.5c0 42.667 7.16699 81.5 21.5 116.5
s34 66.5 59 94.5s54.333 52.833 88 74.5s69.834 41.167 108.501 58.5c-24.667 14 -49.667 24.667 -75 32s-50.666 12.333 -75.999 15c-15.333 -4.66699 -32.166 -11.834 -50.499 -21.501s-35.5 -19.834 -51.5 -30.501zM345.996 -106.001
c-12 4.66699 -23.999 11.333 -35.999 20s-21.667 17.667 -29 27l42 58c8 -10 18.167 -19 30.5 -27s25.166 -14.333 38.499 -19zM373.997 -0.00195312c-9.33301 4 -19.499 10 -30.499 18s-20.5 16.333 -28.5 25l-34 -50c-10.667 4.66699 -22.5 11.5 -35.5 20.5
s-23.5 19.167 -31.5 30.5l46 61c6.66699 -8.66699 15 -17.667 25 -27s19.667 -16.666 29 -21.999l39 56c8.66699 -10 19.667 -19.833 33 -29.5s24.666 -16.834 33.999 -21.501z" />
    <glyph glyph-name="uni0698" unicode="&#x698;" horiz-adv-x="355" arabic-form="isolated" 
d="M224 257c32 -36 55.168 -71 69.501 -105s21.5 -69 21.5 -105c0 -23.333 -4 -47.166 -12 -71.499s-19.333 -48 -34 -71s-32.334 -44.5 -53.001 -64.5s-43.667 -36.667 -69 -50l-128 16l-14 20c36 10 69.167 22.667 99.5 38s57.333 32.166 81 50.499s43.167 37.333 58.5 57
s26 39.167 32 58.5c-5.33301 21.333 -16 44.333 -32 69s-36.667 48.667 -62 72zM207.001 445c-4 1.33301 -9.33301 4.16602 -16 8.49902s-13.167 9.33301 -19.5 15s-12 11.167 -17 16.5s-8.5 9.66602 -10.5 12.999l48 59c6 -9.33301 15.167 -19.666 27.5 -30.999
s23.5 -19.666 33.5 -24.999zM270.001 342c-9.33301 4 -19.499 10 -30.499 18s-20.5 16.333 -28.5 25l-34 -50c-10.667 4.66699 -22.5 11.5 -35.5 20.5s-23.5 19.167 -31.5 30.5l46 61c6.66699 -8.66699 15 -17.667 25 -27s19.667 -16.666 29 -21.999l39 56
c8.66699 -10 19.667 -19.833 33 -29.5s24.666 -16.834 33.999 -21.501z" />
    <glyph glyph-name="uni06A4" unicode="&#x6a4;" horiz-adv-x="779" arabic-form="isolated" 
d="M83 265l-4.00488 -23.999c-1.33301 -8 -2 -14.667 -2 -20c0 -28 4.33301 -52 13 -72s22.834 -36.167 42.501 -48.5s45 -21.333 76 -27s68.833 -8.5 113.5 -8.5c33.333 0 67.833 1.66699 103.5 5s70.334 8 104.001 14s65.5 13.333 95.5 22s56.667 18.667 80 30
c-1.33301 12.667 -2.66602 24.5 -3.99902 35.5s-2.66602 20.167 -3.99902 27.5c-9.33301 -11.333 -21.5 -20.833 -36.5 -28.5s-29.833 -11.5 -44.5 -11.5c-15.333 0 -29.666 2.83301 -42.999 8.5s-25 13.667 -35 24s-17.833 22.5 -23.5 36.5s-8.5 29.333 -8.5 46
c0 15.333 2.83301 31 8.5 47s13.334 30.5 23.001 43.5s20.667 23.667 33 32s25.5 12.5 39.5 12.5c16.667 0 33 -5.5 49 -16.5s30.333 -26.5 43 -46.5s22.834 -43.667 30.501 -71s11.5 -57 11.5 -89c0 -30 -5.83301 -54.833 -17.5 -74.5s-32.5 -38.5 -62.5 -56.5
c-17.333 -10.667 -39.833 -20.5 -67.5 -29.5s-58 -16.667 -91 -23s-67.667 -11.333 -104 -15s-71.5 -5.5 -105.5 -5.5c-49.333 0 -90.5 3.33301 -123.5 10s-59.833 16.834 -80.5 30.501s-35.334 31.167 -44.001 52.5s-13 46.666 -13 75.999
c0 25.333 3.16699 48.166 9.5 68.499s13.166 32.833 20.499 37.5zM539.995 275.001c7.33301 -15.333 18.165 -26.667 32.498 -34s30.833 -11 49.5 -11c12 0 24.333 1.66699 37 5s21.667 7 27 11c-4.66699 28 -15.167 49.667 -31.5 65s-32.833 23 -49.5 23
c-15.333 0 -28.666 -5.5 -39.999 -16.5s-19.666 -25.167 -24.999 -42.5zM582.994 592c-4 1.33301 -9.33301 4.16602 -16 8.49902s-13.167 9.33301 -19.5 15s-12 11.167 -17 16.5s-8.5 9.66602 -10.5 12.999l48 59c6 -9.33301 15.167 -19.666 27.5 -30.999
s23.5 -19.666 33.5 -24.999zM645.994 489c-9.33301 4 -19.499 10 -30.499 18s-20.5 16.333 -28.5 25l-34 -50c-10.667 4.66699 -22.5 11.5 -35.5 20.5s-23.5 19.167 -31.5 30.5l46 61c6.66699 -8.66699 15 -17.667 25 -27s19.667 -16.666 29 -21.999l39 56
c8.66699 -10 19.667 -19.833 33 -29.5s24.666 -16.834 33.999 -21.501z" />
    <glyph glyph-name="uni06A9" unicode="&#x6a9;" horiz-adv-x="798" arabic-form="isolated" 
d="M95 267c-2.66699 -7.33301 -4.49805 -15.6689 -5.49805 -25.002s-1.5 -18 -1.5 -26c0 -26 3 -48.333 9 -67s16.5 -34.334 31.5 -47.001s34.833 -22 59.5 -28s55.667 -9 93 -9c78.667 0 142 4.16699 190 12.5s82 18.166 102 29.499c-1.33301 8.66699 -6.5 22.667 -15.5 42
s-21.5 41.333 -37.5 66s-35.5 51.334 -58.5 80.001s-48.5 57 -76.5 85c0 24.667 6.5 46.334 19.5 65.001s34.5 32 64.5 40l301 82l-40 -74l-288 -80c63.333 -64 108.166 -119.667 134.499 -167s39.5 -84.333 39.5 -111c0 -8 -1.33301 -16.333 -4 -25
s-6.16699 -17.334 -10.5 -26.001s-9.33301 -16.5 -15 -23.5s-11.834 -12.833 -18.501 -17.5c-12 -8 -28.333 -15.833 -49 -23.5s-44.167 -14.167 -70.5 -19.5s-54.833 -9.66602 -85.5 -12.999s-62 -5 -94 -5c-41.333 0 -76.333 3.66699 -105 11s-51.667 18.166 -69 32.499
s-29.833 32 -37.5 53s-11.5 45.167 -11.5 72.5c0 12.667 0.833008 24.834 2.5 36.501s4 22.334 7 32.001s6.16699 17.834 9.5 24.501s7 11 11 13l19 10v0z" />
    <glyph glyph-name="uni06AF" unicode="&#x6af;" horiz-adv-x="798" arabic-form="isolated" 
d="M95 267c-2.66699 -7.33301 -4.49805 -15.6689 -5.49805 -25.002s-1.5 -18 -1.5 -26c0 -26 3 -48.333 9 -67s16.5 -34.334 31.5 -47.001s34.833 -22 59.5 -28s55.667 -9 93 -9c78.667 0 142 4.16699 190 12.5s82 18.166 102 29.499c-1.33301 8.66699 -6.5 22.667 -15.5 42
s-21.5 41.333 -37.5 66s-35.5 51.334 -58.5 80.001s-48.5 57 -76.5 85c0 24.667 6.5 46.334 19.5 65.001s34.5 32 64.5 40l301 82l-40 -74l-288 -80c63.333 -64 108.166 -119.667 134.499 -167s39.5 -84.333 39.5 -111c0 -8 -1.33301 -16.333 -4 -25
s-6.16699 -17.334 -10.5 -26.001s-9.33301 -16.5 -15 -23.5s-11.834 -12.833 -18.501 -17.5c-12 -8 -28.333 -15.833 -49 -23.5s-44.167 -14.167 -70.5 -19.5s-54.833 -9.66602 -85.5 -12.999s-62 -5 -94 -5c-41.333 0 -76.333 3.66699 -105 11s-51.667 18.166 -69 32.499
s-29.833 32 -37.5 53s-11.5 45.167 -11.5 72.5c0 12.667 0.833008 24.834 2.5 36.501s4 22.334 7 32.001s6.16699 17.834 9.5 24.501s7 11 11 13l19 10v0zM455.002 585.997l337 96h6l-25 -52l-335 -94h-5z" />
    <glyph glyph-name="uni06CC" unicode="&#x6cc;" horiz-adv-x="636" arabic-form="isolated" 
d="M101 124c-5.33301 -12.667 -9.33105 -26.0059 -11.998 -40.0059s-4 -31.333 -4 -52c0 -24.667 3.5 -46.5 10.5 -65.5s18.5 -35 34.5 -48s37 -22.833 63 -29.5s57.667 -10 95 -10c130 0 210.333 34 241 102c-2 2 -4.83301 3.83301 -8.5 5.5s-9.66699 3.83398 -18 6.50098
s-19.666 5.33398 -33.999 8.00098l-55.5 10c-37.333 6 -62.5 15.667 -75.5 29s-19.5 29 -19.5 47c0 22.667 5.5 46.834 16.5 72.501s25.833 49.334 44.5 71.001s40.5 39.667 65.5 54s51.5 21.5 79.5 21.5c16 0 30.5 -2.16699 43.5 -6.5s24.167 -9.83301 33.5 -16.5l-37 -74
c-9.33301 4.66699 -19.666 8.83398 -30.999 12.501s-25.333 5.5 -42 5.5c-17.333 0 -33.833 -3.33301 -49.5 -10s-29.5 -15.667 -41.5 -27s-22 -24.166 -30 -38.499s-13.333 -28.833 -16 -43.5c3.33301 -2.66699 7.16602 -5 11.499 -7s10.5 -4 18.5 -6
s18.167 -4.33301 30.5 -7s28.166 -5.33398 47.499 -8.00098c41.333 -6.66699 69.666 -14 84.999 -22s23 -20.333 23 -37c0 -27.333 -6.66699 -54.5 -20 -81.5s-32.833 -51.167 -58.5 -72.5s-57.334 -38.5 -95.001 -51.5s-80.5 -19.5 -128.5 -19.5
c-79.333 0 -137.333 17.333 -174 52s-55 84 -55 148c0 29.333 4.5 54.333 13.5 75s18.833 34.334 29.5 41.001l19 12v0z" />
    <glyph glyph-name="uniFB51" unicode="&#x671;" horiz-adv-x="217" arabic-form="final" 
d="M118 604c2 -23.333 3.8291 -49.167 5.49609 -77.5s3 -58.333 4 -90s1.66699 -64.667 2 -99s0.5 -68.833 0.5 -103.5c0 -36 1.83301 -64.833 5.5 -86.5s9.16699 -38 16.5 -49s16.333 -18.167 27 -21.5s23.334 -5 38.001 -5c7.33301 0 14.166 -3.33301 20.499 -10
s9.5 -16.334 9.5 -29.001s-3.16699 -22.5 -9.5 -29.5s-13.166 -10.5 -20.499 -10.5c-29.333 0 -53.166 4.16699 -71.499 12.5s-31.5 18.166 -39.5 29.499c-5.33301 7.33301 -10 15 -14 23s-7.16699 18.833 -9.5 32.5s-4.16602 31.334 -5.49902 53.001s-2 49.834 -2 84.501
c0 56.667 -1.16699 112 -3.5 166s-6.16602 105.333 -11.499 154zM7.99609 614.999c-4 8.66699 -6.00098 17.001 -6.00098 25.001c0 11.333 3.33301 20.666 10 27.999s15.667 12 27 14c8 28 20 49.5 36 64.5s34.667 22.5 56 22.5c15.333 0 28 -5.5 38 -16.5
s15 -25.167 15 -42.5c0 -18.667 -7.5 -34.167 -22.5 -46.5s-38.167 -18.5 -69.5 -18.5c-13.333 0 -24.333 -0.333008 -33 -1s-16.167 -2.16699 -22.5 -4.5s-11.666 -5.5 -15.999 -9.5s-8.5 -9 -12.5 -15zM58.9951 685c6 -1.33301 12.3311 -2 18.998 -2h19
c37.333 0 56 7.66699 56 23c0 8 -3.16699 14.167 -9.5 18.5s-14.166 6.5 -23.499 6.5c-11.333 0 -22.666 -4 -33.999 -12s-20.333 -19.333 -27 -34z" />
    <glyph glyph-name="uniFB57" unicode="&#x67e;" horiz-adv-x="804" arabic-form="final" 
d="M85 271c-1.33301 -7.33301 -2.66895 -15.8291 -4.00195 -25.4961s-2 -17.167 -2 -22.5c0 -29.333 4.83301 -54 14.5 -74s25 -36.167 46 -48.5s48.167 -21.333 81.5 -27s74 -8.5 122 -8.5c86.667 0 161.5 10.667 224.5 32s116.167 52 159.5 92l24 -4l-35 -51
c9.33301 -41.333 38.666 -62 87.999 -62c7.33301 0 14.166 -3.33301 20.499 -10s9.5 -16.334 9.5 -29.001s-3.16699 -22.5 -9.5 -29.5s-13.166 -10.5 -20.499 -10.5c-36.667 0 -65 8.5 -85 25.5s-30 46.833 -30 89.5c-42.667 -38 -97.167 -68.5 -163.5 -91.5
s-142.166 -34.5 -227.499 -34.5c-50 0 -91.667 3.66699 -125 11s-60.166 18.166 -80.499 32.499s-34.666 32.166 -42.999 53.499s-12.5 46 -12.5 74c0 25.333 3 48.166 9 68.499s12.667 32.833 20 37.5zM361.997 -293.996c-12 4.66699 -23.999 11.333 -35.999 20
s-21.667 17.667 -29 27l42 58c8 -10 18.167 -19 30.5 -27s25.166 -14.333 38.499 -19zM389.998 -187.997c-9.33301 4 -19.499 10 -30.499 18s-20.5 16.333 -28.5 25l-34 -50c-10.667 4.66699 -22.5 11.5 -35.5 20.5s-23.5 19.167 -31.5 30.5l46 61
c6.66699 -8.66699 15 -17.667 25 -27s19.667 -16.666 29 -21.999l39 56c8.66699 -10 19.667 -19.833 33 -29.5s24.666 -16.834 33.999 -21.501z" />
    <glyph glyph-name="uniFB58" unicode="&#x67e;" horiz-adv-x="244" arabic-form="initial" 
d="M138 331c14.667 -21.333 25.9971 -45.834 33.9971 -73.501s12 -55.167 12 -82.5c0 -18 -3.16699 -37.667 -9.5 -59s-16.5 -42 -30.5 -62c-13.333 -20.667 -33 -36 -59 -46s-54.333 -15 -85 -15c-7.33301 0 -13.666 2.83301 -18.999 8.5s-8 15.834 -8 30.501
c0 12 2.33301 21.667 7 29s11.334 11 20.001 11c29.333 0 55 2.66699 77 8s42 13.333 60 24c-4 29.333 -10.667 56.5 -20 81.5s-19.666 44.833 -30.999 59.5zM140.997 -294.001c-12 4.66699 -23.999 11.333 -35.999 20s-21.667 17.667 -29 27l42 58
c8 -10 18.167 -19 30.5 -27s25.166 -14.333 38.499 -19zM168.998 -188.002c-9.33301 4 -19.499 10 -30.499 18s-20.5 16.333 -28.5 25l-34 -50c-10.667 4.66699 -22.5 11.5 -35.5 20.5s-23.5 19.167 -31.5 30.5l46 61c6.66699 -8.66699 15 -17.667 25 -27
s19.667 -16.666 29 -21.999l39 56c8.66699 -10 19.667 -19.833 33 -29.5s24.666 -16.834 33.999 -21.501z" />
    <glyph glyph-name="uniFB59" unicode="&#x67e;" horiz-adv-x="305" arabic-form="medial" 
d="M147 218c11.333 -51.333 29.8301 -88.5 55.4971 -111.5s59.834 -34.5 102.501 -34.5c7.33301 0 14.166 -3.33301 20.499 -10s9.5 -16.334 9.5 -29.001s-3.16699 -22.5 -9.5 -29.5s-13.166 -10.5 -20.499 -10.5c-42 0 -76.167 7.83301 -102.5 23.5
s-47.166 40.167 -62.499 73.5c-14.667 -30.667 -33.5 -54.5 -56.5 -71.5s-50.833 -25.5 -83.5 -25.5c-7.33301 0 -13.666 3.33301 -18.999 10s-8 16.667 -8 30c0 12.667 2.5 22.334 7.5 29.001s11.5 10 19.5 10c25.333 0 48.333 4.83301 69 14.5s38.667 26.5 54 50.5l-6 44z
M178.997 -294c-12 4.66699 -23.999 11.333 -35.999 20s-21.667 17.667 -29 27l42 58c8 -10 18.167 -19 30.5 -27s25.166 -14.333 38.499 -19zM206.998 -188.001c-9.33301 4 -19.499 10 -30.499 18s-20.5 16.333 -28.5 25l-34 -50c-10.667 4.66699 -22.5 11.5 -35.5 20.5
s-23.5 19.167 -31.5 30.5l46 61c6.66699 -8.66699 15 -17.667 25 -27s19.667 -16.666 29 -21.999l39 56c8.66699 -10 19.667 -19.833 33 -29.5s24.666 -16.834 33.999 -21.501z" />
    <glyph glyph-name="uniFB6B" unicode="&#x6a4;" horiz-adv-x="846" arabic-form="final" 
d="M79 256c-1.33301 -3.33301 -2.16797 -7.16504 -2.50098 -11.498s-0.833008 -8.83301 -1.5 -13.5s-1.16699 -9 -1.5 -13s-0.5 -7.33301 -0.5 -10c0 -30 4.5 -54.833 13.5 -74.5s23.667 -35.5 44 -47.5s46.5 -20.5 78.5 -25.5s71 -7.5 117 -7.5
c54.667 0 105.834 3.16699 153.501 9.5s86.167 14.833 115.5 25.5c-10.667 12.667 -19.167 27.667 -25.5 45s-9.5 34 -9.5 50c0 20 3.83301 39.333 11.5 58s17.5 35 29.5 49s25.167 25.333 39.5 34s28.166 13 41.499 13c11.333 0 23 -3.66699 35 -11
s22.833 -17.333 32.5 -30s17.5 -27.5 23.5 -44.5s9 -35.5 9 -55.5c0 -17.333 -5.16699 -36.166 -15.5 -56.499s-23.166 -37.833 -38.499 -52.5c13.333 -3.33301 28.333 -6.66602 45 -9.99902s39 -5 67 -5c7.33301 0 14.166 -3.33301 20.499 -10s9.5 -16.334 9.5 -29.001
s-3.16699 -22.5 -9.5 -29.5s-13.166 -10.5 -20.499 -10.5c-36 0 -70.5 4.33301 -103.5 13s-62.5 19.667 -88.5 33c-86 -46 -201 -69 -345 -69c-50 0 -92.333 3 -127 9s-62.667 15.667 -84 29s-36.833 30.666 -46.5 51.999s-14.5 47.666 -14.5 78.999
c0 25.333 3 48.166 9 68.499s12.667 32.833 20 37.5zM664.998 109.001c17.333 9.33301 33.833 21.3311 49.5 35.998s26.5 28 32.5 40c-2.66699 10 -6.66699 19.833 -12 29.5s-11.5 18.334 -18.5 26.001s-14.667 13.834 -23 18.501s-16.5 7 -24.5 7
c-4.66699 0 -10.5 -2 -17.5 -6s-14.167 -9.16699 -21.5 -15.5s-14.333 -13.5 -21 -21.5s-11.667 -16.333 -15 -25c2 -20 10 -38 24 -54s29.667 -27.667 47 -35zM661.998 500.999c-4 1.33301 -9.33301 4.16602 -16 8.49902s-13.167 9.33301 -19.5 15s-12 11.167 -17 16.5
s-8.5 9.66602 -10.5 12.999l48 59c6 -9.33301 15.167 -19.666 27.5 -30.999s23.5 -19.666 33.5 -24.999zM724.998 397.999c-9.33301 4 -19.499 10 -30.499 18s-20.5 16.333 -28.5 25l-34 -50c-10.667 4.66699 -22.5 11.5 -35.5 20.5s-23.5 19.167 -31.5 30.5l46 61
c6.66699 -8.66699 15 -17.667 25 -27s19.667 -16.666 29 -21.999l39 56c8.66699 -10 19.667 -19.833 33 -29.5s24.666 -16.834 33.999 -21.501z" />
    <glyph glyph-name="uniFB6C" unicode="&#x6a4;" horiz-adv-x="306" arabic-form="initial" 
d="M231 124c-1.33301 12 -2.50195 23.499 -3.50195 34.499s-2.16699 20.167 -3.5 27.5c-9.33301 -11.333 -21.666 -20.833 -36.999 -28.5s-30.333 -11.5 -45 -11.5c-15.333 0 -29.666 2.83301 -42.999 8.5s-24.833 13.667 -34.5 24s-17.334 22.5 -23.001 36.5
s-8.5 29.333 -8.5 46c0 15.333 2.83301 31 8.5 47s13.334 30.5 23.001 43.5s20.667 23.667 33 32s25.5 12.5 39.5 12.5c16 0 32 -5.66699 48 -17s30.333 -27 43 -47s23 -43.667 31 -71s12 -57 12 -89c0 -30 -3 -53.833 -9 -71.5s-15.667 -32.167 -29 -43.5
c-25.333 -21.333 -57.5 -37.333 -96.5 -48s-84.5 -16 -136.5 -16c-7.33301 0 -13.666 3.5 -18.999 10.5s-8 16.833 -8 29.5s2.66699 22.334 8 29.001s11.666 10 18.999 10c51.333 0 96.833 4.33301 136.5 13s71.167 21.667 94.5 39zM66.998 261.999
c7.33301 -15.333 18.165 -26.667 32.498 -34s30.833 -11 49.5 -11c12 0 24.333 1.66699 37 5s21.667 7 27 11c-4.66699 28 -15.167 49.667 -31.5 65s-32.833 23 -49.5 23c-15.333 0 -28.666 -5.5 -39.999 -16.5s-19.666 -25.167 -24.999 -42.5zM114.997 573.998
c-4 1.33301 -9.33301 4.16602 -16 8.49902s-13.167 9.33301 -19.5 15s-12 11.167 -17 16.5s-8.5 9.66602 -10.5 12.999l48 59c6 -9.33301 15.167 -19.666 27.5 -30.999s23.5 -19.666 33.5 -24.999zM177.997 470.998c-9.33301 4 -19.499 10 -30.499 18s-20.5 16.333 -28.5 25
l-34 -50c-10.667 4.66699 -22.5 11.5 -35.5 20.5s-23.5 19.167 -31.5 30.5l46 61c6.66699 -8.66699 15 -17.667 25 -27s19.667 -16.666 29 -21.999l39 56c8.66699 -10 19.667 -19.833 33 -29.5s24.666 -16.834 33.999 -21.501z" />
    <glyph glyph-name="uniFB6D" unicode="&#x6a4;" horiz-adv-x="356" arabic-form="medial" 
d="M107 85c-11.333 12.667 -20.498 28.166 -27.498 46.499s-10.5 35.5 -10.5 51.5c0 12 1.16699 23.167 3.5 33.5s6.5 21.833 12.5 34.5c12 25.333 27.5 46 46.5 62s38.833 24 59.5 24c11.333 0 23.166 -3.66699 35.499 -11s23.5 -17.333 33.5 -30s18.167 -27.5 24.5 -44.5
s9.5 -35.5 9.5 -55.5c0 -17.333 -5.66699 -36.166 -17 -56.499s-24.666 -37.833 -39.999 -52.5c13.333 -3.33301 29.5 -6.66602 48.5 -9.99902s42.5 -5 70.5 -5c7.33301 0 14.166 -3.33301 20.499 -10s9.5 -16.334 9.5 -29.001s-3.16699 -22.5 -9.5 -29.5
s-13.166 -10.5 -20.499 -10.5c-72 0 -134.667 13.333 -188 40c-23.333 -12 -48.666 -21.667 -75.999 -29s-58 -11 -92 -11c-8.66699 0 -15.334 3.5 -20.001 10.5s-7 16.5 -7 28.5c0 10.667 2.5 20 7.5 28s11.5 12 19.5 12c23.333 0 44.166 1.33301 62.499 4
s33.166 5.66699 44.499 9zM174.002 108.999c8.66699 4.66699 17.334 9.99805 26.001 15.998s16.834 12.5 24.501 19.5s14.5 14 20.5 21s10.667 13.5 14 19.5c-2.66699 10 -6.83398 19.833 -12.501 29.5s-12.334 18.334 -20.001 26.001s-15.667 13.834 -24 18.501
s-16.5 7 -24.5 7c-4.66699 0 -10.5 -2 -17.5 -6s-14.167 -9.16699 -21.5 -15.5s-14.333 -13.5 -21 -21.5s-11.667 -16.333 -15 -25c2 -20 10 -38 24 -54s29.667 -27.667 47 -35zM167.002 501.997c-4 1.33301 -9.33301 4.16602 -16 8.49902s-13.167 9.33301 -19.5 15
s-12 11.167 -17 16.5s-8.5 9.66602 -10.5 12.999l48 59c6 -9.33301 15.167 -19.666 27.5 -30.999s23.5 -19.666 33.5 -24.999zM230.002 398.997c-9.33301 4 -19.499 10 -30.499 18s-20.5 16.333 -28.5 25l-34 -50c-10.667 4.66699 -22.5 11.5 -35.5 20.5
s-23.5 19.167 -31.5 30.5l46 61c6.66699 -8.66699 15 -17.667 25 -27s19.667 -16.666 29 -21.999l39 56c8.66699 -10 19.667 -19.833 33 -29.5s24.666 -16.834 33.999 -21.501z" />
    <glyph glyph-name="uniFB7B" unicode="&#x686;" horiz-adv-x="516" arabic-form="final" 
d="M45 192c-4.66699 6 -7.00293 11.999 -7.00293 17.999c0 16 10.333 36.333 31 61c14 16.667 29 29 45 37s29.667 12 41 12c14 0 30.5 -3.16699 49.5 -9.5s44.5 -17.166 76.5 -32.499c18 -8 34.333 -14.667 49 -20s30 -9.5 46 -12.5s33.333 -5.16699 52 -6.5
s40.667 -2 66 -2l-25 -70c-18.667 0 -37.167 -1 -55.5 -3s-32.5 -4 -42.5 -6c-3.33301 -33.333 7.5 -56 32.5 -68s62.5 -18 112.5 -18c7.33301 0 14.166 -3.33301 20.499 -10s9.5 -16.334 9.5 -29.001s-3.16699 -22.5 -9.5 -29.5s-13.166 -10.5 -20.499 -10.5
c-64 0 -109.5 10.833 -136.5 32.5s-40.5 49.834 -40.5 84.501c0 7.33301 0.666992 15 2 23s3 14.667 5 20c-28.667 -7.33301 -59 -18.5 -91 -33.5s-61.333 -33.5 -88 -55.5s-48.834 -47.5 -66.501 -76.5s-26.5 -60.833 -26.5 -95.5c0 -50.667 21 -90.5 63 -119.5
s101 -43.5 177 -43.5c42 0 81.167 2.5 117.5 7.5s67.166 12.167 92.499 21.5l-4 -21c-1.33301 -6 -8.83301 -14 -22.5 -24s-32 -20 -55 -30s-49.667 -18.667 -80 -26s-62.5 -11 -96.5 -11c-38 0 -72.167 4.33301 -102.5 13s-56.166 21.834 -77.499 39.501
s-37.666 39.334 -48.999 65.001s-17 55.5 -17 89.5c0 42.667 7.16699 81.5 21.5 116.5s34 66.5 59 94.5s54.333 52.833 88 74.5s69.834 41.167 108.501 58.5c-24 14 -48.667 24.667 -74 32s-50.666 12.333 -75.999 15c-16 -4.66699 -33.167 -11.834 -51.5 -21.501
s-35.166 -19.834 -50.499 -30.501zM299.997 -217.001c-12 4.66699 -23.999 11.333 -35.999 20s-21.667 17.667 -29 27l42 58c8 -10 18.167 -19 30.5 -27s25.166 -14.333 38.499 -19zM327.998 -111.002c-9.33301 4 -19.499 10 -30.499 18s-20.5 16.333 -28.5 25l-34 -50
c-10.667 4.66699 -22.5 11.5 -35.5 20.5s-23.5 19.167 -31.5 30.5l46 61c6.66699 -8.66699 15 -17.667 25 -27s19.667 -16.666 29 -21.999l39 56c8.66699 -10 19.667 -19.833 33 -29.5s24.666 -16.834 33.999 -21.501z" />
    <glyph glyph-name="uniFB7C" unicode="&#x686;" horiz-adv-x="505" arabic-form="initial" 
d="M0 -7c-7.33301 0 -13.6641 2.99707 -18.9971 8.99707s-8 16 -8 30c0 12 2.33301 21.667 7 29s11.334 11 20.001 11c62.667 0 122.667 7.5 180 22.5s107.666 36.5 150.999 64.5c-13.333 8 -28 15.833 -44 23.5s-32.333 15 -49 22s-32.834 13.333 -48.501 19
s-29.5 10.167 -41.5 13.5c-16.667 -3.33301 -34.5 -8.66602 -53.5 -15.999s-36.833 -15.666 -53.5 -24.999c-3.33301 5.33301 -5 11 -5 17c0 7.33301 2.66699 15.5 8 24.5s15.666 20.167 30.999 33.5c16 14.667 31.333 25.167 46 31.5s29 9.5 43 9.5
c6.66699 0 13.667 -0.833008 21 -2.5s16 -4.83398 26 -9.50098s21.833 -10.667 35.5 -18s30.167 -16.666 49.5 -27.999c22.667 -13.333 41.834 -23.833 57.501 -31.5s30.167 -13.667 43.5 -18s26.833 -7.16602 40.5 -8.49902s29.5 -2 47.5 -2l-26 -74
c-19.333 0 -36.833 -0.666992 -52.5 -2s-31.834 -4 -48.501 -8s-34.5 -9.83301 -53.5 -17.5s-41.833 -18.167 -68.5 -31.5c-27.333 -14 -51.833 -25.5 -73.5 -34.5s-41.667 -16 -60 -21s-35.833 -8.33301 -52.5 -10s-33.334 -2.5 -50.001 -2.5zM300.002 -294.003
c-12 4.66699 -23.999 11.333 -35.999 20s-21.667 17.667 -29 27l42 58c8 -10 18.167 -19 30.5 -27s25.166 -14.333 38.499 -19zM328.003 -188.004c-9.33301 4 -19.499 10 -30.499 18s-20.5 16.333 -28.5 25l-34 -50c-10.667 4.66699 -22.5 11.5 -35.5 20.5
s-23.5 19.167 -31.5 30.5l46 61c6.66699 -8.66699 15 -17.667 25 -27s19.667 -16.666 29 -21.999l39 56c8.66699 -10 19.667 -19.833 33 -29.5s24.666 -16.834 33.999 -21.501z" />
    <glyph glyph-name="uniFB7D" unicode="&#x686;" horiz-adv-x="552" arabic-form="medial" 
d="M47 187c-2 2.66699 -3.50293 5.66992 -4.50293 9.00293s-1.5 6.66602 -1.5 9.99902c0 7.33301 2.5 16.166 7.5 26.499s12.833 21.833 23.5 34.5c13.333 16 28 28 44 36s29.667 12 41 12c14 0 30.5 -3.16699 49.5 -9.5s44.5 -17.166 76.5 -32.499
c18 -8 34.333 -14.667 49 -20s30 -9.5 46 -12.5s33.333 -5.5 52 -7.5s42 -3 70 -3l-25 -70c-28 0 -48.167 -0.666992 -60.5 -2s-23.166 -4 -32.499 -8c-0.666992 -1.33301 -1 -3 -1 -5v-5c0 -14 4 -25.333 12 -34s18.667 -15.5 32 -20.5s32 -8.5 56 -10.5s47.667 -3 71 -3
c7.33301 0 14.166 -3.33301 20.499 -10s9.5 -16.334 9.5 -29.001s-3.16699 -22.5 -9.5 -29.5s-13.166 -10.5 -20.499 -10.5c-72 0 -123.833 10.167 -155.5 30.5s-47.5 47.5 -47.5 81.5c0 10.667 1.66699 22.667 5 36c-5.33301 -2.66699 -11.333 -5.83398 -18 -9.50098
s-14.667 -8.5 -24 -14.5l-33 -22l-45 -31c-19.333 -13.333 -37.833 -24.5 -55.5 -33.5s-35.334 -16.167 -53.001 -21.5s-35.834 -9.33301 -54.501 -12s-42.334 -4 -71.001 -4c-7.33301 0 -13.666 3.33301 -18.999 10s-8 16.334 -8 29.001c0 26.667 9 40 27 40
c38 0 70.167 2 96.5 6s51.833 10.333 76.5 19s49.334 20.167 74.001 34.5s51.334 31.5 80.001 51.5c-28.667 15.333 -58.667 27.833 -90 37.5s-60.666 15.834 -87.999 18.501c-16 -4.66699 -33.167 -11.834 -51.5 -21.501s-35.166 -19.834 -50.499 -30.501z
M299.997 -293.997c-12 4.66699 -23.999 11.333 -35.999 20s-21.667 17.667 -29 27l42 58c8 -10 18.167 -19 30.5 -27s25.166 -14.333 38.499 -19zM327.998 -187.998c-9.33301 4 -19.499 10 -30.499 18s-20.5 16.333 -28.5 25l-34 -50c-10.667 4.66699 -22.5 11.5 -35.5 20.5
s-23.5 19.167 -31.5 30.5l46 61c6.66699 -8.66699 15 -17.667 25 -27s19.667 -16.666 29 -21.999l39 56c8.66699 -10 19.667 -19.833 33 -29.5s24.666 -16.834 33.999 -21.501z" />
    <glyph glyph-name="uniFB8B" unicode="&#x698;" horiz-adv-x="393" arabic-form="final" 
d="M270 161c13.333 -16.667 25.165 -30.665 35.498 -41.998s20.333 -20.5 30 -27.5s19 -12 28 -15s18.833 -4.5 29.5 -4.5c7.33301 0 14.166 -3.33301 20.499 -10s9.5 -16.334 9.5 -29.001s-3.16699 -22.5 -9.5 -29.5s-13.166 -10.5 -20.499 -10.5
c-13.333 0 -25.5 1.66699 -36.5 5s-21.833 8.66602 -32.5 15.999l-1 -1c4.66699 -11.333 7 -25.333 7 -42c0 -14 -2.83301 -30 -8.5 -48s-14.5 -36.333 -26.5 -55s-27.167 -37 -45.5 -55s-40.166 -33.667 -65.499 -47l-128 16l-14 20c72 20 128.833 45.833 170.5 77.5
s69.167 63.167 82.5 94.5c-1.33301 15.333 -6.66602 33 -15.999 53s-24.333 41.667 -45 65zM253.999 348.002c-4 1.33301 -9.33301 4.16602 -16 8.49902s-13.167 9.33301 -19.5 15s-12 11.167 -17 16.5s-8.5 9.66602 -10.5 12.999l48 59
c6 -9.33301 15.167 -19.666 27.5 -30.999s23.5 -19.666 33.5 -24.999zM316.999 245.002c-9.33301 4 -19.499 10 -30.499 18s-20.5 16.333 -28.5 25l-34 -50c-10.667 4.66699 -22.5 11.5 -35.5 20.5s-23.5 19.167 -31.5 30.5l46 61c6.66699 -8.66699 15 -17.667 25 -27
s19.667 -16.666 29 -21.999l39 56c8.66699 -10 19.667 -19.833 33 -29.5s24.666 -16.834 33.999 -21.501z" />
    <glyph glyph-name="uniFB8F" unicode="&#x6a9;" horiz-adv-x="770" arabic-form="final" 
d="M95 267c-2.66699 -7.33301 -4.49805 -15.6699 -5.49805 -25.0029s-1.5 -18 -1.5 -26c0 -26 3 -48.333 9 -67s16.5 -34.334 31.5 -47.001s34.833 -22 59.5 -28s55.667 -9 93 -9c42 0 78.167 1.16699 108.5 3.5s55.666 5.83301 75.999 10.5s36.666 10.167 48.999 16.5
s21.833 13.5 28.5 21.5c-1.33301 10.667 -5 23 -11 37s-15.167 31.167 -27.5 51.5s-28.666 44.666 -48.999 72.999l-75.5 101.5c0 24.667 6.5 46.334 19.5 65.001s34.5 32 64.5 40l301 82l-40 -73l-288 -81l154 -212c16.667 -23.333 32 -43.166 46 -59.499
s27.333 -29.666 40 -39.999s25 -17.833 37 -22.5s25 -7 39 -7h17c7.33301 0 14.166 -3.33301 20.499 -10s9.5 -16.334 9.5 -29.001s-3.16699 -22.5 -9.5 -29.5s-13.166 -10.5 -20.499 -10.5h-19c-12.667 0 -25.667 1.83301 -39 5.5s-27 10.167 -41 19.5
s-28.333 21.833 -43 37.5s-29.334 35.834 -44.001 60.501c-12 -42.667 -37.333 -74 -76 -94c-20.667 -11.333 -52 -20.833 -94 -28.5s-90.333 -11.5 -145 -11.5c-41.333 0 -76.333 3.66699 -105 11s-51.667 18.166 -69 32.499s-29.833 32 -37.5 53s-11.5 45.167 -11.5 72.5
c0 12.667 0.833008 24.834 2.5 36.501s4 22.334 7 32.001s6.16699 17.834 9.5 24.501s7 11 11 13l19 10v0z" />
    <glyph glyph-name="uniFB90" unicode="&#x6a9;" horiz-adv-x="434" arabic-form="initial" 
d="M366 493l-287.998 -80.001c63.333 -64 108.166 -119.667 134.499 -167s39.5 -84.333 39.5 -111c0 -8 -1.33301 -16.333 -4 -25s-6.16699 -17.334 -10.5 -26.001s-9.33301 -16.5 -15 -23.5s-11.834 -12.833 -18.501 -17.5c-12 -8 -26.167 -15.167 -42.5 -21.5
s-33.5 -11.666 -51.5 -15.999s-36.5 -7.5 -55.5 -9.5s-37.167 -3 -54.5 -3c-8 0 -14.5 3.33301 -19.5 10s-7.5 16.667 -7.5 30s2.5 23.166 7.5 29.499s11.5 9.5 19.5 9.5c57.333 0 102 3.16699 134 9.5s57 14.833 75 25.5c-1.33301 8.66699 -6.5 22.667 -15.5 42
s-21.5 41.333 -37.5 66s-35.5 51.334 -58.5 80.001s-48.5 57 -76.5 85c0 24.667 6.5 46.334 19.5 65.001s34.5 32 64.5 40l301 82z" />
    <glyph glyph-name="uniFB91" unicode="&#x6a9;" horiz-adv-x="411" arabic-form="medial" 
d="M366 494l-287.999 -80.9971l154 -212c19.333 -26 36.5 -47.5 51.5 -64.5s29 -30.167 42 -39.5s25.5 -15.833 37.5 -19.5s26 -5.5 42 -5.5h9c7.33301 0 14.166 -3.33301 20.499 -10s9.5 -16.334 9.5 -29.001s-3.16699 -22.5 -9.5 -29.5s-13.166 -10.5 -20.499 -10.5h-15
c-34.667 0 -65.334 9.16699 -92.001 27.5s-54 50.166 -82 95.499c-23.333 -82 -98.333 -123 -225 -123c-8.66699 0 -15.334 3.5 -20.001 10.5s-7 16.167 -7 27.5c0 12 2.5 21.833 7.5 29.5s11.5 11.5 19.5 11.5c54 0 95.833 4.16699 125.5 12.5s49.167 19.166 58.5 32.499
c-1.33301 10.667 -5 23 -11 37s-15.167 31.167 -27.5 51.5s-28.666 44.666 -48.999 72.999l-75.5 101.5c0 24.667 6.5 46.334 19.5 65.001s34.5 32 64.5 40l301 82z" />
    <glyph glyph-name="uniFB93" unicode="&#x6af;" horiz-adv-x="770" arabic-form="final" 
d="M95 267c-2.66699 -7.33301 -4.49805 -15.6699 -5.49805 -25.0029s-1.5 -18 -1.5 -26c0 -26 3 -48.333 9 -67s16.5 -34.334 31.5 -47.001s34.833 -22 59.5 -28s55.667 -9 93 -9c42 0 78.167 1.16699 108.5 3.5s55.666 5.83301 75.999 10.5s36.666 10.167 48.999 16.5
s21.833 13.5 28.5 21.5c-1.33301 10.667 -5 23 -11 37s-15.167 31.167 -27.5 51.5s-28.666 44.666 -48.999 72.999l-75.5 101.5c0 24.667 6.5 46.334 19.5 65.001s34.5 32 64.5 40l301 82l-40 -73l-288 -81l154 -212c16.667 -23.333 32 -43.166 46 -59.499
s27.333 -29.666 40 -39.999s25 -17.833 37 -22.5s25 -7 39 -7h17c7.33301 0 14.166 -3.33301 20.499 -10s9.5 -16.334 9.5 -29.001s-3.16699 -22.5 -9.5 -29.5s-13.166 -10.5 -20.499 -10.5h-19c-12.667 0 -25.667 1.83301 -39 5.5s-27 10.167 -41 19.5
s-28.333 21.833 -43 37.5s-29.334 35.834 -44.001 60.501c-12 -42.667 -37.333 -74 -76 -94c-20.667 -11.333 -52 -20.833 -94 -28.5s-90.333 -11.5 -145 -11.5c-41.333 0 -76.333 3.66699 -105 11s-51.667 18.166 -69 32.499s-29.833 32 -37.5 53s-11.5 45.167 -11.5 72.5
c0 12.667 0.833008 24.834 2.5 36.501s4 22.334 7 32.001s6.16699 17.834 9.5 24.501s7 11 11 13l19 10v0zM455.002 585.996l337 96h6l-25 -52l-335 -94h-5z" />
    <glyph glyph-name="uniFB94" unicode="&#x6af;" horiz-adv-x="438" arabic-form="initial" 
d="M366 493l-287.998 -80.001c63.333 -64 108.166 -119.667 134.499 -167s39.5 -84.333 39.5 -111c0 -8 -1.33301 -16.333 -4 -25s-6.16699 -17.334 -10.5 -26.001s-9.33301 -16.5 -15 -23.5s-11.834 -12.833 -18.501 -17.5c-12 -8 -26.167 -15.167 -42.5 -21.5
s-33.5 -11.666 -51.5 -15.999s-36.5 -7.5 -55.5 -9.5s-37.167 -3 -54.5 -3c-8 0 -14.5 3.33301 -19.5 10s-7.5 16.667 -7.5 30s2.5 23.166 7.5 29.499s11.5 9.5 19.5 9.5c57.333 0 102 3.16699 134 9.5s57 14.833 75 25.5c-1.33301 8.66699 -6.5 22.667 -15.5 42
s-21.5 41.333 -37.5 66s-35.5 51.334 -58.5 80.001s-48.5 57 -76.5 85c0 24.667 6.5 46.334 19.5 65.001s34.5 32 64.5 40l301 82zM95.002 594.999l337 96h6l-25 -52l-335 -94h-5z" />
    <glyph glyph-name="uniFB95" unicode="&#x6af;" horiz-adv-x="411" arabic-form="medial" 
d="M366 494l-287.999 -80.9971l154 -212c19.333 -26 36.5 -47.5 51.5 -64.5s29 -30.167 42 -39.5s25.5 -15.833 37.5 -19.5s26 -5.5 42 -5.5h9c7.33301 0 14.166 -3.33301 20.499 -10s9.5 -16.334 9.5 -29.001s-3.16699 -22.5 -9.5 -29.5s-13.166 -10.5 -20.499 -10.5h-15
c-34.667 0 -65.334 9.16699 -92.001 27.5s-54 50.166 -82 95.499c-23.333 -82 -98.333 -123 -225 -123c-8.66699 0 -15.334 3.5 -20.001 10.5s-7 16.167 -7 27.5c0 12 2.5 21.833 7.5 29.5s11.5 11.5 19.5 11.5c54 0 95.833 4.16699 125.5 12.5s49.167 19.166 58.5 32.499
c-1.33301 10.667 -5 23 -11 37s-15.167 31.167 -27.5 51.5s-28.666 44.666 -48.999 72.999l-75.5 101.5c0 24.667 6.5 46.334 19.5 65.001s34.5 32 64.5 40l301 82zM95.001 586.003l337 96h6l-25 -52l-335 -94h-5z" />
    <glyph glyph-name="uniFBA5" unicode="&#x6c0;" horiz-adv-x="399" arabic-form="final" 
d="M236 409c6 -12.667 11.334 -25.499 16.001 -38.499s9.33398 -28 14.001 -45s9.5 -36.333 14.5 -58s10.167 -47.5 15.5 -77.5c4.66699 -24 9.66699 -43.667 15 -59s11.833 -27.333 19.5 -36s17 -14.667 28 -18s24.5 -5 40.5 -5c7.33301 0 14.166 -3.33301 20.499 -10
s9.5 -16.334 9.5 -29.001s-3.16699 -22.5 -9.5 -29.5s-13.166 -10.5 -20.499 -10.5c-42 0 -74.333 8.33301 -97 25s-39.334 46 -50.001 88l-26 -26c-14 -14.667 -27.333 -24.334 -40 -29.001s-25.667 -7 -39 -7c-14 0 -27.667 2.83301 -41 8.5s-25.333 12.834 -36 21.501
s-19.167 18.334 -25.5 29.001s-9.5 21 -9.5 31c0 8.66699 2.16699 19.5 6.5 32.5s10.166 24.167 17.499 33.5c7.33301 10 24 23.667 50 41s62 35.666 108 54.999l-24 61zM229.001 246.001c-38 -13.333 -69.6689 -26.166 -95.002 -38.499s-43.666 -23.833 -54.999 -34.5
c7.33301 -18.667 19.333 -33.667 36 -45s38 -17 64 -17c14 0 27 2 39 6s22 8.66699 30 14c-2.66699 19.333 -5.16699 38.666 -7.5 57.999s-6.16602 38.333 -11.499 57zM240.999 550.001c-10 6 -20.3311 9.00391 -30.998 9.00391c-9.33301 0 -19 -2.83301 -29 -8.5
s-17 -13.5 -21 -23.5c6 -7.33301 14.667 -13 26 -17s22.666 -6 33.999 -6c12 0 24.333 2.33301 37 7s26 11 40 19l-13 -50c-11.333 -3.33301 -23.333 -7.33301 -36 -12s-25.334 -9.83398 -38.001 -15.501s-25 -11.834 -37 -18.501s-23 -13.334 -33 -20.001
c-1.33301 5.33301 -2 9.33301 -2 12c0 12 4.66699 22 14 30s18.666 13.333 27.999 16c-29.333 7.33301 -44 21.333 -44 42c0 25.333 7.83301 46.166 23.5 62.499s34.834 24.5 57.501 24.5c18 0 33.667 -5 47 -15z" />
    <glyph glyph-name="uniFBE8" unicode="&#x649;" horiz-adv-x="230" arabic-form="initial" 
d="M138 331c14.667 -21.333 25.9971 -45.834 33.9971 -73.501s12 -55.167 12 -82.5c0 -18 -3.16699 -37.667 -9.5 -59s-16.5 -42 -30.5 -62c-13.333 -20.667 -33 -36 -59 -46s-54.333 -15 -85 -15c-7.33301 0 -13.666 2.83301 -18.999 8.5s-8 15.834 -8 30.501
c0 12 2.33301 21.667 7 29s11.334 11 20.001 11c29.333 0 55 2.66699 77 8s42 13.333 60 24c-4 29.333 -10.667 56.5 -20 81.5s-19.666 44.833 -30.999 59.5z" />
    <glyph glyph-name="uniFBE9" unicode="&#x649;" horiz-adv-x="305" arabic-form="medial" 
d="M147 218c11.333 -51.333 29.8301 -88.5 55.4971 -111.5s59.834 -34.5 102.501 -34.5c7.33301 0 14.166 -3.33301 20.499 -10s9.5 -16.334 9.5 -29.001s-3.16699 -22.5 -9.5 -29.5s-13.166 -10.5 -20.499 -10.5c-42 0 -76.167 7.83301 -102.5 23.5
s-47.166 40.167 -62.499 73.5c-14.667 -30.667 -33.5 -54.5 -56.5 -71.5s-50.833 -25.5 -83.5 -25.5c-7.33301 0 -13.666 3.33301 -18.999 10s-8 16.667 -8 30c0 12.667 2.5 22.334 7.5 29.001s11.5 10 19.5 10c25.333 0 48.333 4.83301 69 14.5s38.667 26.5 54 50.5l-6 44z
" />
    <glyph glyph-name="uniFBFD" unicode="&#x6cc;" horiz-adv-x="617" arabic-form="final" 
d="M108 97c-5.33301 -13.333 -9.3291 -27.1641 -11.9961 -41.4971s-4 -31.166 -4 -50.499c0 -24.667 3.66699 -46.834 11 -66.501s19.166 -36.334 35.499 -50.001s37.666 -24.167 63.999 -31.5s58.166 -11 95.499 -11c38.667 0 71.334 1 98.001 3s48.834 4.66699 66.501 8
s31.667 7.66602 42 12.999s18.5 11.333 24.5 18c-1.33301 3.33301 -5 5.83301 -11 7.5s-13 2.5 -21 2.5h-90c-27.333 0 -47 3.5 -59 10.5s-18 18.167 -18 33.5c0 16 6.16699 33 18.5 51s28.5 33 48.5 45c10.667 6.66699 22 12.167 34 16.5s26.167 7.83301 42.5 10.5
s36 4.5 59 5.5s51.167 1.5 84.5 1.5c7.33301 0 14.166 -3.33301 20.499 -10s9.5 -16.334 9.5 -29.001s-3.16699 -22.5 -9.5 -29.5s-13.166 -10.5 -20.499 -10.5h-12c-10.667 0 -23.667 0.5 -39 1.5s-30.333 2.16699 -45 3.5c-12 1.33301 -24.5 2.33301 -37.5 3
s-22.167 1 -27.5 1c-20.667 0 -37.834 -4.16699 -51.501 -12.5s-23.834 -17.833 -30.501 -28.5c5.33301 -2.66699 11.333 -4.5 18 -5.5s16.667 -1.5 30 -1.5h75c51.333 0 77 -9.66699 77 -29c0 -14 -5 -30.167 -15 -48.5s-24 -35.833 -42 -52.5
c-21.333 -17.333 -51.833 -31.833 -91.5 -43.5s-88.834 -17.5 -147.501 -17.5c-79.333 0 -137.833 18.333 -175.5 55s-56.5 85.667 -56.5 147c0 29.333 4.5 55 13.5 77s18.833 36.333 29.5 43l19 12v0z" />
    <glyph glyph-name="uniFBFE" unicode="&#x6cc;" horiz-adv-x="240" arabic-form="initial" 
d="M138 331c14.667 -21.333 25.9971 -45.834 33.9971 -73.501s12 -55.167 12 -82.5c0 -18 -3.16699 -37.667 -9.5 -59s-16.5 -42 -30.5 -62c-13.333 -20.667 -33 -36 -59 -46s-54.333 -15 -85 -15c-7.33301 0 -13.666 2.83301 -18.999 8.5s-8 15.834 -8 30.501
c0 12 2.33301 21.667 7 29s11.334 11 20.001 11c29.333 0 55 2.66699 77 8s42 13.333 60 24c-4 29.333 -10.667 56.5 -20 81.5s-19.666 44.833 -30.999 59.5zM172.997 -188.001c-9.33301 4 -19.499 10 -30.499 18s-20.5 16.333 -28.5 25l-34 -50
c-10.667 4.66699 -22.5 11.5 -35.5 20.5s-23.5 19.167 -31.5 30.5l46 61c6.66699 -8.66699 15 -17.667 25 -27s19.667 -16.666 29 -21.999l39 56c8.66699 -10 19.667 -19.833 33 -29.5s24.666 -16.834 33.999 -21.501z" />
    <glyph glyph-name="uniFBFF" unicode="&#x6cc;" horiz-adv-x="305" arabic-form="medial" 
d="M147 218c11.333 -51.333 29.8301 -88.5 55.4971 -111.5s59.834 -34.5 102.501 -34.5c7.33301 0 14.166 -3.33301 20.499 -10s9.5 -16.334 9.5 -29.001s-3.16699 -22.5 -9.5 -29.5s-13.166 -10.5 -20.499 -10.5c-42 0 -76.167 7.83301 -102.5 23.5
s-47.166 40.167 -62.499 73.5c-14.667 -30.667 -33.5 -54.5 -56.5 -71.5s-50.833 -25.5 -83.5 -25.5c-7.33301 0 -13.666 3.33301 -18.999 10s-8 16.667 -8 30c0 12.667 2.5 22.334 7.5 29.001s11.5 10 19.5 10c25.333 0 48.333 4.83301 69 14.5s38.667 26.5 54 50.5l-6 44z
M206.997 -188c-9.33301 4 -19.499 10 -30.499 18s-20.5 16.333 -28.5 25l-34 -50c-10.667 4.66699 -22.5 11.5 -35.5 20.5s-23.5 19.167 -31.5 30.5l46 61c6.66699 -8.66699 15 -17.667 25 -27s19.667 -16.666 29 -21.999l39 56c8.66699 -10 19.667 -19.833 33 -29.5
s24.666 -16.834 33.999 -21.501z" />
    <glyph glyph-name="uniFC5E" unicode="&#xfc5e;" horiz-adv-x="0" arabic-form="isolated" 
d="M175 789c1.33301 -4 2.50098 -8.99902 3.50098 -14.999s1.5 -12.667 1.5 -20c0 -24 -5.33301 -42.5 -16 -55.5s-22.334 -19.5 -35.001 -19.5c-9.33301 0 -17 2.66699 -23 8s-10.333 12.666 -13 21.999c-7.33301 -24.667 -15.166 -41.5 -23.499 -50.5
s-16.5 -13.5 -24.5 -13.5c-9.33301 0 -17 5 -23 15s-9 22.667 -9 38c0 9.33301 0.833008 18.666 2.5 27.999s4.16699 18 7.5 26l18 14c-0.666992 -3.33301 -1.16699 -7 -1.5 -11s-0.5 -7.66699 -0.5 -11c0 -15.333 1.83301 -26.333 5.5 -33s8.16699 -10 13.5 -10
s10.666 2.83301 15.999 8.5s10 12.5 14 20.5c0 10 0.333008 19 1 27s1.66699 13.333 3 16l16 13c0 -21.333 2.16699 -36.666 6.5 -45.999s9.83301 -14 16.5 -14c8.66699 0 14.667 3.5 18 10.5s5 18.5 5 34.5c0 4 -0.166992 8.5 -0.5 13.5s-0.833008 9.83301 -1.5 14.5z
M-36.999 883.001c7.33301 9.33301 15.166 16.4961 23.499 21.4961s18.5 7.5 30.5 7.5s21.833 -4 29.5 -12s11.5 -18.333 11.5 -31c0 -7.33301 -0.833008 -13.166 -2.5 -17.499s-4.16699 -9.16602 -7.5 -14.499c27.333 2.66699 49 8.66699 65 18
c-17.333 8 -29.666 19.333 -36.999 34s-11 31.334 -11 50.001c0 16 3.66699 28.167 11 36.5s16.333 12.5 27 12.5c20.667 0 37.167 -7.33301 49.5 -22s18.5 -30.667 18.5 -48c0 -8 -0.666992 -14.833 -2 -20.5l-4 -16.5c5.33301 -0.666992 9.5 -1 12.5 -1h16.5l-19 -38h-15
c-4 0 -8.33301 0.666992 -13 2c-28.667 -27.333 -74.667 -44 -138 -50c16 22 24 40 24 54c0 6.66699 -1.66699 12.167 -5 16.5s-8.33301 6.5 -15 6.5c-7.33301 0 -14 -2.66699 -20 -8s-12.333 -11.666 -19 -18.999zM141.001 883.997
c2.66699 3.33301 4.33203 7.00098 4.99902 11.001s1 8 1 12c0 9.33301 -3.5 17.833 -10.5 25.5s-15.5 11.5 -25.5 11.5c-16 0 -24 -5.33301 -24 -16c0 -7.33301 4.83301 -15.333 14.5 -24s22.834 -15.334 39.501 -20.001z" />
    <glyph glyph-name="uniFC5F" unicode="&#xfc5f;" horiz-adv-x="0" arabic-form="isolated" 
d="M175 967c1.33301 -4 2.50098 -8.99902 3.50098 -14.999s1.5 -12.667 1.5 -20c0 -24 -5.33301 -42.5 -16 -55.5s-22.334 -19.5 -35.001 -19.5c-9.33301 0 -17 2.66699 -23 8s-10.333 12.666 -13 21.999c-7.33301 -24.667 -15.166 -41.5 -23.499 -50.5
s-16.5 -13.5 -24.5 -13.5c-9.33301 0 -17 5 -23 15s-9 22.667 -9 38c0 9.33301 0.833008 18.666 2.5 27.999s4.16699 18 7.5 26l18 14c-0.666992 -3.33301 -1.16699 -7 -1.5 -11s-0.5 -7.66699 -0.5 -11c0 -15.333 1.83301 -26.333 5.5 -33s8.16699 -10 13.5 -10
s10.666 2.83301 15.999 8.5s10 12.5 14 20.5c0 10 0.333008 19 1 27s1.66699 13.333 3 16l16 13c0 -21.333 2.16699 -36.666 6.5 -45.999s9.83301 -14 16.5 -14c8.66699 0 14.667 3.5 18 10.5s5 18.5 5 34.5c0 4 -0.166992 8.5 -0.5 13.5s-0.833008 9.83301 -1.5 14.5z
M0.000976562 650.001c0.666992 7.33301 1.99902 14.333 3.99902 21s4 12 6 16c24.667 14.667 52.834 29.5 84.501 44.5s66.167 28.833 103.5 41.5l-14 -40c-28.667 -10 -59 -22.5 -91 -37.5zM6 722.001c0.666992 7.33301 1.99902 14.333 3.99902 21s4 12 6 16
c24.667 14.667 52.834 29.5 84.501 44.5s66.167 28.833 103.5 41.5l-14 -40c-28.667 -10 -59 -22.5 -91 -37.5z" />
    <glyph glyph-name="uniFC60" unicode="&#xfc60;" horiz-adv-x="0" arabic-form="isolated" 
d="M175 789c1.33301 -4 2.50098 -8.99902 3.50098 -14.999s1.5 -12.667 1.5 -20c0 -24 -5.33301 -42.5 -16 -55.5s-22.334 -19.5 -35.001 -19.5c-9.33301 0 -17 2.66699 -23 8s-10.333 12.666 -13 21.999c-7.33301 -24.667 -15.166 -41.5 -23.499 -50.5
s-16.5 -13.5 -24.5 -13.5c-9.33301 0 -17 5 -23 15s-9 22.667 -9 38c0 9.33301 0.833008 18.666 2.5 27.999s4.16699 18 7.5 26l18 14c-0.666992 -3.33301 -1.16699 -7 -1.5 -11s-0.5 -7.66699 -0.5 -11c0 -15.333 1.83301 -26.333 5.5 -33s8.16699 -10 13.5 -10
s10.666 2.83301 15.999 8.5s10 12.5 14 20.5c0 10 0.333008 19 1 27s1.66699 13.333 3 16l16 13c0 -21.333 2.16699 -36.666 6.5 -45.999s9.83301 -14 16.5 -14c8.66699 0 14.667 3.5 18 10.5s5 18.5 5 34.5c0 4 -0.166992 8.5 -0.5 13.5s-0.833008 9.83301 -1.5 14.5z
M-4.99902 766.001c0.666992 7.33301 1.99902 14.333 3.99902 21s4 12 6 16c24.667 14.667 52.834 29.5 84.501 44.5s66.167 28.833 103.5 41.5l-14 -40c-28.667 -10 -59 -22.5 -91 -37.5z" />
    <glyph glyph-name="uniFC61" unicode="&#xfc61;" horiz-adv-x="0" arabic-form="isolated" 
d="M175 789c1.33301 -4 2.50098 -8.99902 3.50098 -14.999s1.5 -12.667 1.5 -20c0 -24 -5.33301 -42.5 -16 -55.5s-22.334 -19.5 -35.001 -19.5c-9.33301 0 -17 2.66699 -23 8s-10.333 12.666 -13 21.999c-7.33301 -24.667 -15.166 -41.5 -23.499 -50.5
s-16.5 -13.5 -24.5 -13.5c-9.33301 0 -17 5 -23 15s-9 22.667 -9 38c0 9.33301 0.833008 18.666 2.5 27.999s4.16699 18 7.5 26l18 14c-0.666992 -3.33301 -1.16699 -7 -1.5 -11s-0.5 -7.66699 -0.5 -11c0 -15.333 1.83301 -26.333 5.5 -33s8.16699 -10 13.5 -10
s10.666 2.83301 15.999 8.5s10 12.5 14 20.5c0 10 0.333008 19 1 27s1.66699 13.333 3 16l16 13c0 -21.333 2.16699 -36.666 6.5 -45.999s9.83301 -14 16.5 -14c8.66699 0 14.667 3.5 18 10.5s5 18.5 5 34.5c0 4 -0.166992 8.5 -0.5 13.5s-0.833008 9.83301 -1.5 14.5z
M-20.999 807.001c43.333 13.333 76.001 26.665 98.001 39.998c-24 22 -36 46.667 -36 74c0 15.333 4.33301 28.333 13 39s19 16 31 16c10 0 19 -2 27 -6s15 -9 21 -15s10.667 -12.833 14 -20.5s5 -15.5 5 -23.5c0 -8.66699 -0.833008 -16.667 -2.5 -24
s-5.83398 -15.666 -12.501 -24.999c5.33301 -1.33301 10.833 -2 16.5 -2h19.5l-18 -36c-11.333 0 -19.833 0.333008 -25.5 1s-12.167 2.33398 -19.5 5.00098c-12.667 -10.667 -27.167 -20.167 -43.5 -28.5s-31.5 -12.5 -45.5 -12.5c-7.33301 0 -14 2 -20 6zM134.002 905
c-4.66699 8 -11.333 14.498 -20 19.498s-17 7.5 -25 7.5c-13.333 0 -20 -6.33301 -20 -19c0 -9.33301 4 -18.166 12 -26.499s17 -14.166 27 -17.499c12 10 20.667 22 26 36z" />
    <glyph glyph-name="uniFC62" unicode="&#xfc62;" horiz-adv-x="0" arabic-form="isolated" 
d="M175 927c1.33301 -4 2.50098 -8.99902 3.50098 -14.999s1.5 -12.667 1.5 -20c0 -24 -5.33301 -42.5 -16 -55.5s-22.334 -19.5 -35.001 -19.5c-9.33301 0 -17 2.66699 -23 8s-10.333 12.666 -13 21.999c-7.33301 -24.667 -15.166 -41.5 -23.499 -50.5
s-16.5 -13.5 -24.5 -13.5c-9.33301 0 -17 5 -23 15s-9 22.667 -9 38c0 9.33301 0.833008 18.666 2.5 27.999s4.16699 18 7.5 26l18 14c-0.666992 -3.33301 -1.16699 -7 -1.5 -11s-0.5 -7.66699 -0.5 -11c0 -15.333 1.83301 -26.333 5.5 -33s8.16699 -10 13.5 -10
s10.666 2.83301 15.999 8.5s10 12.5 14 20.5c0 10 0.333008 19 1 27s1.66699 13.333 3 16l16 13c0 -21.333 2.16699 -36.666 6.5 -45.999s9.83301 -14 16.5 -14c8.66699 0 14.667 3.5 18 10.5s5 18.5 5 34.5c0 4 -0.166992 8.5 -0.5 13.5s-0.833008 9.83301 -1.5 14.5z
M6.00098 685.001c0.666992 7.33301 1.99902 14.333 3.99902 21s4 12 6 16c24.667 14.667 52.834 29.5 84.501 44.5s66.167 28.833 103.5 41.5l-14 -40c-28.667 -10 -59 -22.5 -91 -37.5z" />
    <glyph glyph-name="uniFC63" unicode="&#xfc63;" horiz-adv-x="0" arabic-form="isolated" 
d="M175 789c1.33301 -4 2.50098 -8.99902 3.50098 -14.999s1.5 -12.667 1.5 -20c0 -24 -5.33301 -42.5 -16 -55.5s-22.334 -19.5 -35.001 -19.5c-9.33301 0 -17 2.66699 -23 8s-10.333 12.666 -13 21.999c-7.33301 -24.667 -15.166 -41.5 -23.499 -50.5
s-16.5 -13.5 -24.5 -13.5c-9.33301 0 -17 5 -23 15s-9 22.667 -9 38c0 9.33301 0.833008 18.666 2.5 27.999s4.16699 18 7.5 26l18 14c-0.666992 -3.33301 -1.16699 -7 -1.5 -11s-0.5 -7.66699 -0.5 -11c0 -15.333 1.83301 -26.333 5.5 -33s8.16699 -10 13.5 -10
s10.666 2.83301 15.999 8.5s10 12.5 14 20.5c0 10 0.333008 19 1 27s1.66699 13.333 3 16l16 13c0 -21.333 2.16699 -36.666 6.5 -45.999s9.83301 -14 16.5 -14c8.66699 0 14.667 3.5 18 10.5s5 18.5 5 34.5c0 4 -0.166992 8.5 -0.5 13.5s-0.833008 9.83301 -1.5 14.5z
M76.001 819.001c0 19.333 -0.833008 36.668 -2.5 52.001s-3.83398 29.666 -6.50098 42.999c-4 19.333 -6.33301 39.333 -7 60l43 29c0 -13.333 0.333008 -26 1 -38s1.66699 -24 3 -36c0.666992 -10 1.33398 -21.5 2.00098 -34.5s1 -23.167 1 -30.5s-2.83301 -16 -8.5 -26
s-11.5 -17.333 -17.5 -22z" />
    <glyph glyph-name="uniFDF2" unicode="&#xfdf2;" horiz-adv-x="831" arabic-form="isolated" 
d="M598 461c2 -30.667 4.66797 -60.002 8.00098 -88.002s7.66602 -57.333 12.999 -88l5 -32c2.66699 -15.333 4.66699 -30.5 6 -45.5s2 -30.167 2 -45.5c0 -20 -1.83301 -40.167 -5.5 -60.5s-9.83398 -38.5 -18.501 -54.5s-19.667 -29 -33 -39s-29.666 -15 -48.999 -15
c-26.667 0 -50.334 7.5 -71.001 22.5s-35.334 39.167 -44.001 72.5c-14 -35.333 -28.333 -60 -43 -74s-33 -21 -55 -21h-3c-23.333 0.666992 -42.333 8.33398 -57 23.001s-23.667 37 -27 67c-16.667 -21.333 -31 -36.333 -43 -45s-24.667 -13 -38 -13
s-26.5 1.83301 -39.5 5.5s-24.667 9.16699 -35 16.5s-18.833 16 -25.5 26s-10 21.667 -10 35c0 16 4.33301 31.333 13 46s20.834 28.667 36.501 42s34 25.833 55 37.5s43.5 22.834 67.5 33.501l-11 38l50 58c6 -22.667 11 -48.167 15 -76.5s7.33301 -56.5 10 -84.5
c2 -24 4.33301 -44.333 7 -61s6 -30 10 -40s9.33301 -17.333 16 -22s15.667 -7 27 -7c14.667 0 28 5 40 15s21.667 24 29 42c-4.66699 32 -9.33398 67.5 -14.001 106.5l-14 115.5l58 56c4 -68.667 8.66699 -124.834 14 -168.501s11.833 -77.834 19.5 -102.501
s16.667 -41.5 27 -50.5s22.166 -13.5 35.499 -13.5s25.5 1.83301 36.5 5.5s19.5 9.83398 25.5 18.501c-1.33301 20.667 -4.16602 42.334 -8.49902 65.001s-9.16602 46.5 -14.499 71.5s-10.666 51.5 -15.999 79.5s-9.33301 57.333 -12 88zM214.001 223.998
c-13.333 -5.33301 -26.999 -11.333 -40.999 -18s-27.333 -13.667 -40 -21s-24 -14.333 -34 -21s-17.667 -12.667 -23 -18c7.33301 -17.333 18.666 -31.5 33.999 -42.5s31.333 -16.5 48 -16.5c15.333 0 28 2 38 6s19.333 10.333 28 19l-3.5 59.5
c-1 17 -3.16699 34.5 -6.5 52.5zM783.002 574.998c0 -39.333 0.666992 -79.498 2 -120.498l4 -121.5c2 -38 3.66699 -74 5 -108s2 -65 2 -93c0 -26.667 -0.5 -46 -1.5 -58s-2.83301 -22.667 -5.5 -32c-2.66699 -8 -6.33398 -17.333 -11.001 -28s-9.66699 -20.667 -15 -30
h-20c0 71.333 -1.5 132.666 -4.5 183.999s-6.5 98.666 -10.5 141.999c-3.33301 41.333 -6.16602 80.333 -8.49902 117s-3.5 77 -3.5 121l67 56v-29zM468.002 551c1.33301 -4 2.50098 -8.99902 3.50098 -14.999s1.5 -12.667 1.5 -20c0 -24 -5.33301 -42.5 -16 -55.5
s-22.334 -19.5 -35.001 -19.5c-9.33301 0 -17 2.66699 -23 8s-10.333 12.666 -13 21.999c-7.33301 -24.667 -15.166 -41.5 -23.499 -50.5s-16.5 -13.5 -24.5 -13.5c-9.33301 0 -17 5 -23 15s-9 22.667 -9 38c0 9.33301 0.833008 18.666 2.5 27.999s4.16699 18 7.5 26l18 14
c-0.666992 -3.33301 -1.16699 -7 -1.5 -11s-0.5 -7.66699 -0.5 -11c0 -15.333 1.83301 -26.333 5.5 -33s8.16699 -10 13.5 -10s10.666 2.83301 15.999 8.5s10 12.5 14 20.5c0 10 0.333008 19 1 27s1.66699 13.333 3 16l16 13c0 -21.333 2.16699 -36.666 6.5 -45.999
s9.83301 -14 16.5 -14c8.66699 0 14.667 3.5 18 10.5s5 18.5 5 34.5c0 4 -0.166992 8.5 -0.5 13.5s-0.833008 9.83301 -1.5 14.5zM368.003 582.001c0 19.333 -0.833008 36.668 -2.5 52.001s-3.83398 29.666 -6.50098 42.999c-4 19.333 -6.33301 39.333 -7 60l43 29
c0 -13.333 0.333008 -26 1 -38s1.66699 -24 3 -36c0.666992 -10 1.33398 -21.5 2.00098 -34.5s1 -23.167 1 -30.5s-2.83301 -16 -8.5 -26s-11.5 -17.333 -17.5 -22z" />
    <glyph glyph-name="uniFDFC" unicode="&#xfdfc;" horiz-adv-x="778" arabic-form="isolated" 
d="M556 537c-6.66699 1.33301 -12.3311 1.99609 -16.998 1.99609c-10.667 0 -19.334 -2.33301 -26.001 -7s-11.834 -12.167 -15.501 -22.5s-6.16699 -24.166 -7.5 -41.499s-2 -38.666 -2 -63.999c16 16.667 30.667 29.5 44 38.5s26 15.167 38 18.5c8 2 16 3 24 3
c14 0 25.5 -4.5 34.5 -13.5s13.5 -21.5 13.5 -37.5c0 -9.33301 -1.83301 -20.333 -5.5 -33s-8.16699 -24.334 -13.5 -35.001l-27 -4c4.66699 11.333 7 20.666 7 27.999c0 4.66699 -1.5 8.83398 -4.5 12.501s-9.16699 5.5 -18.5 5.5
c-11.333 0 -24.166 -4.16699 -38.499 -12.5s-30.5 -22.166 -48.5 -41.499c5.33301 -54.667 12.833 -98.834 22.5 -132.501s24.5 -54.167 44.5 -61.5c6 -2.66699 14 -4 24 -4c12 0 23.333 1.83301 34 5.5s18.667 8.16699 24 13.5c-1.33301 15.333 -5 32 -11 50
s-12.667 32 -20 42l42 66c5.33301 -10 10.666 -22.5 15.999 -37.5s9.33301 -30.167 12 -45.5c2 -10 3 -20 3 -30c0 -18.667 -2.16699 -36.334 -6.5 -53.001s-11 -31.167 -20 -43.5s-20 -22 -33 -29s-27.833 -10.5 -44.5 -10.5c-19.333 0 -36 2.83301 -50 8.5
s-26 15.334 -36 29.001s-18.333 32 -25 55s-11.667 52.167 -15 87.5c-1.33301 6 -2 12 -2 18s-0.333008 11.667 -1 17l-26.5 -34l-24.5 -30c1.33301 -17.333 2.5 -33.166 3.5 -47.499s1.5 -26.833 1.5 -37.5c0 -30 -3.33301 -58.333 -10 -85s-18 -50 -34 -70
s-37 -35.833 -63 -47.5s-58 -17.5 -96 -17.5c-41.333 0 -72.666 11.167 -93.999 33.5s-32 54.166 -32 95.499c0 12 1.33301 23.833 4 35.5s6 22.5 10 32.5s8.33301 18.5 13 25.5s9 11.833 13 14.5l11 8c-3.33301 -8.66699 -6.5 -20.167 -9.5 -34.5
s-4.5 -28.166 -4.5 -41.499c0 -32 8.16699 -55.833 24.5 -71.5s40.166 -23.5 71.499 -23.5s60 5.5 86 16.5s48.667 26.5 68 46.5l-2 60.5c-0.666992 21 -2 42.167 -4 63.5c-19.333 -18 -38 -31 -56 -39s-36.667 -12 -56 -12c-30.667 0 -55 9.66699 -73 29s-27 46.333 -27 81
c0 14.667 1.33301 28.667 4 42s5.83398 25.333 9.50098 36s7.5 19.334 11.5 26.001s7.33301 11 10 13l20 12c-11.333 -26.667 -17 -54.667 -17 -84c0 -23.333 5.33301 -41.5 16 -54.5s26.667 -19.5 48 -19.5c16 0 32.333 3.66699 49 11s34.667 19.666 54 36.999
c-4.66699 44 -9.83398 86 -15.501 126s-10.834 75 -15.501 105c-1.33301 4.66699 -3 10.167 -5 16.5s-3.66699 12.166 -5 17.499l50 41c2 -9.33301 5.16699 -19.166 9.5 -29.499s9.5 -20.5 15.5 -30.5s12.167 -19.5 18.5 -28.5s12.5 -16.167 18.5 -21.5l-38 -23
c0.666992 -19.333 1.83398 -40.166 3.50098 -62.499s3.5 -44.833 5.5 -67.5l54 65c-0.666992 9.33301 -1 18.833 -1 28.5v29.5c0 26.667 2 52.167 6 76.5s10.5 45.833 19.5 64.5s20.667 33.334 35 44.001s31.833 16 52.5 16c6 0 11.5 -0.333008 16.5 -1
s9.16699 -1.66699 12.5 -3zM600.003 -94.0039c-8 4 -16.999 9.83301 -26.999 17.5s-18.667 15.5 -26 23.5l-34 -45c-9.33301 4 -19.833 10.5 -31.5 19.5s-21.167 18.833 -28.5 29.5l45 55c5.33301 -8 12.666 -16.333 21.999 -25s18.333 -15.667 27 -21l38 51
c7.33301 -10 17 -19.5 29 -28.5s22.667 -16.167 32 -21.5z" />
    <glyph glyph-name="uniFE82" unicode="&#x622;" horiz-adv-x="220" arabic-form="final" 
d="M121 604c2 -23.333 3.8291 -49.167 5.49609 -77.5s3 -58.333 4 -90s1.66699 -64.667 2 -99s0.5 -68.833 0.5 -103.5c0 -36 1.83301 -64.833 5.5 -86.5s9.16699 -38 16.5 -49s16.333 -18.167 27 -21.5s23.334 -5 38.001 -5c7.33301 0 14.166 -3.33301 20.499 -10
s9.5 -16.334 9.5 -29.001s-3.16699 -22.5 -9.5 -29.5s-13.166 -10.5 -20.499 -10.5c-29.333 0 -53.166 4.16699 -71.499 12.5s-31.5 18.166 -39.5 29.499c-5.33301 7.33301 -10 15 -14 23s-7.16699 18.833 -9.5 32.5s-4.16602 31.334 -5.49902 53.001s-2 49.834 -2 84.501
c0 56.667 -1.16699 112 -3.5 166s-6.16602 105.333 -11.499 154zM217.996 736.999c8 -4.66699 12.001 -12.3359 12.001 -23.0029c0 -15.333 -9.5 -28.333 -28.5 -39s-45.167 -18 -78.5 -22c-38.667 -5.33301 -68 -13.166 -88 -23.499s-33.333 -22.166 -40 -35.499
c-6.66699 2.66699 -12.334 7.33398 -17.001 14.001s-7 13.667 -7 21c0 17.333 9.33301 31 28 41s49 17.333 91 22c40.667 4.66699 70 10.167 88 16.5s31.333 15.833 40 28.5z" />
    <glyph glyph-name="uniFE84" unicode="&#x623;" horiz-adv-x="217" arabic-form="final" 
d="M118 604c2 -23.333 3.8291 -49.167 5.49609 -77.5s3 -58.333 4 -90s1.66699 -64.667 2 -99s0.5 -68.833 0.5 -103.5c0 -36 1.83301 -64.833 5.5 -86.5s9.16699 -38 16.5 -49s16.333 -18.167 27 -21.5s23.334 -5 38.001 -5c7.33301 0 14.166 -3.33301 20.499 -10
s9.5 -16.334 9.5 -29.001s-3.16699 -22.5 -9.5 -29.5s-13.166 -10.5 -20.499 -10.5c-29.333 0 -53.166 4.16699 -71.499 12.5s-31.5 18.166 -39.5 29.499c-5.33301 7.33301 -10 15 -14 23s-7.16699 18.833 -9.5 32.5s-4.16602 31.334 -5.49902 53.001s-2 49.834 -2 84.501
c0 56.667 -1.16699 112 -3.5 166s-6.16602 105.333 -11.499 154zM121.996 745.999c-10 6 -20.3311 9.00391 -30.998 9.00391c-9.33301 0 -19 -2.83301 -29 -8.5s-17 -13.5 -21 -23.5c6 -7.33301 14.667 -13 26 -17s22.666 -6 33.999 -6c12 0 24.333 2.33301 37 7
s26 11 40 19l-13 -50c-11.333 -3.33301 -23.333 -7.33301 -36 -12s-25.334 -9.83398 -38.001 -15.501s-25 -11.834 -37 -18.501s-23 -13.334 -33 -20.001c-1.33301 5.33301 -2 9.33301 -2 12c0 12 4.66699 22 14 30s18.666 13.333 27.999 16
c-29.333 7.33301 -44 21.333 -44 42c0 25.333 7.83301 46.166 23.5 62.499s34.834 24.5 57.501 24.5c18 0 33.667 -5 47 -15z" />
    <glyph glyph-name="uniFE86" unicode="&#x624;" horiz-adv-x="363" arabic-form="final" 
d="M5 -174c41.333 11.333 76.999 24 106.999 38s55.167 28.333 75.5 43s36.333 29.334 48 44.001s19.5 28.667 23.5 42c-28.667 0.666992 -53.5 4.5 -74.5 11.5s-38.5 16 -52.5 27s-24.333 23.5 -31 37.5s-10 28.667 -10 44s2.83301 31 8.5 47s13.334 30.5 23.001 43.5
s20.5 23.5 32.5 31.5s24 12 36 12c14 0 27.667 -4.33301 41 -13s25.5 -20.834 36.5 -36.501s20.333 -34.167 28 -55.5s12.5 -44.666 14.5 -69.999h52c7.33301 0 14.166 -3.33301 20.499 -10s9.5 -16.334 9.5 -29.001s-3.16699 -22.5 -9.5 -29.5s-13.166 -10.5 -20.499 -10.5
h-58c-8 -40 -25.167 -78 -51.5 -114s-61.833 -65.667 -106.5 -89l-128 16zM124.999 116c6 -12.667 18.167 -23.167 36.5 -31.5s39.5 -12.5 63.5 -12.5h42c-4.66699 28.667 -14.5 52.5 -29.5 71.5s-32.167 28.5 -51.5 28.5c-14 0 -26.833 -5.33301 -38.5 -16
s-19.167 -24 -22.5 -40zM213.999 428c-10 6 -20.3311 9.00391 -30.998 9.00391c-9.33301 0 -19 -2.83301 -29 -8.5s-17 -13.5 -21 -23.5c6 -7.33301 14.667 -13 26 -17s22.666 -6 33.999 -6c12 0 24.333 2.33301 37 7s26 11 40 19l-13 -50
c-11.333 -3.33301 -23.333 -7.33301 -36 -12s-25.334 -9.83398 -38.001 -15.501s-25 -11.834 -37 -18.501s-23 -13.334 -33 -20.001c-1.33301 5.33301 -2 9.33301 -2 12c0 12 4.66699 22 14 30s18.666 13.333 27.999 16c-29.333 7.33301 -44 21.333 -44 42
c0 25.333 7.83301 46.166 23.5 62.499s34.834 24.5 57.501 24.5c18 0 33.667 -5 47 -15z" />
    <glyph glyph-name="uniFE88" unicode="&#x625;" horiz-adv-x="217" arabic-form="final" 
d="M105 604c2 -23.333 3.8291 -49.167 5.49609 -77.5s3 -58.333 4 -90s1.66699 -64.667 2 -99s0.5 -68.833 0.5 -103.5c0 -36 1.83301 -64.833 5.5 -86.5s9.16699 -38 16.5 -49s16.333 -18.167 27 -21.5s23.334 -5 38.001 -5c7.33301 0 14.166 -3.33301 20.499 -10
s9.5 -16.334 9.5 -29.001s-3.16699 -22.5 -9.5 -29.5s-13.166 -10.5 -20.499 -10.5c-29.333 0 -53.166 4.16699 -71.499 12.5s-31.5 18.166 -39.5 29.499c-5.33301 7.33301 -10 15 -14 23s-7.16699 18.833 -9.5 32.5s-4.16602 31.334 -5.49902 53.001s-2 49.834 -2 84.501
c0 56.667 -1.16699 112 -3.5 166s-6.16602 105.333 -11.499 154zM156.996 -124.001c-10 6 -20.3311 9.00391 -30.998 9.00391c-9.33301 0 -19 -2.83301 -29 -8.5s-17 -13.5 -21 -23.5c6 -7.33301 14.667 -13 26 -17s22.666 -6 33.999 -6c12 0 24.333 2.33301 37 7
s26 11 40 19l-13 -50c-11.333 -3.33301 -23.333 -7.33301 -36 -12s-25.334 -9.83398 -38.001 -15.501s-25 -11.834 -37 -18.501s-23 -13.334 -33 -20.001c-1.33301 5.33301 -2 9.33301 -2 12c0 12 4.66699 22 14 30s18.666 13.333 27.999 16
c-29.333 7.33301 -44 21.333 -44 42c0 25.333 7.83301 46.166 23.5 62.499s34.834 24.5 57.501 24.5c18 0 33.667 -5 47 -15z" />
    <glyph glyph-name="uniFE8A" unicode="&#x626;" horiz-adv-x="555" arabic-form="final" 
d="M105 100c-5.33301 -13.333 -9.50098 -26.667 -12.501 -40s-4.5 -29.666 -4.5 -48.999c0 -44 15 -78.333 45 -103s75.667 -37 137 -37c47.333 0 90.666 4 129.999 12s70 18.667 92 32c-16.667 14.667 -37 29.334 -61 44.001s-46.667 26 -68 34
c3.33301 11.333 7.5 22.5 12.5 33.5s9.16699 19.833 12.5 26.5c6.66699 2.66699 14.334 5.16699 23.001 7.5s19.167 4.33301 31.5 6s27.166 3 44.499 4s38 1.5 62 1.5c7.33301 0 14.166 -3.33301 20.499 -10s9.5 -16.334 9.5 -29.001s-3.16699 -22.5 -9.5 -29.5
s-13.166 -10.5 -20.499 -10.5h-64c14.667 -8 25.834 -18 33.501 -30s11.5 -22 11.5 -30c0 -14 -4.33301 -29 -13 -45s-19.334 -28.667 -32.001 -38c-21.333 -18 -53.166 -32.833 -95.499 -44.5s-92.166 -17.5 -149.499 -17.5c-64.667 0 -113.667 15.667 -147 47
s-50 75.666 -50 132.999c0 29.333 4.5 55 13.5 77s18.833 36.333 29.5 43zM155.999 292.999c-10 6 -20.3311 9.00391 -30.998 9.00391c-9.33301 0 -19 -2.83301 -29 -8.5s-17 -13.5 -21 -23.5c6 -7.33301 14.667 -13 26 -17s22.666 -6 33.999 -6c12 0 24.333 2.33301 37 7
s26 11 40 19l-13 -50c-11.333 -3.33301 -23.333 -7.33301 -36 -12s-25.334 -9.83398 -38.001 -15.501s-25 -11.834 -37 -18.501s-23 -13.334 -33 -20.001c-1.33301 5.33301 -2 9.33301 -2 12c0 12 4.66699 22 14 30s18.666 13.333 27.999 16
c-29.333 7.33301 -44 21.333 -44 42c0 25.333 7.83301 46.166 23.5 62.499s34.834 24.5 57.501 24.5c18 0 33.667 -5 47 -15z" />
    <glyph glyph-name="uniFE8B" unicode="&#x626;" horiz-adv-x="230" arabic-form="initial" 
d="M138 331c14.667 -21.333 25.9971 -45.834 33.9971 -73.501s12 -55.167 12 -82.5c0 -18 -3.16699 -37.667 -9.5 -59s-16.5 -42 -30.5 -62c-13.333 -20.667 -33 -36 -59 -46s-54.333 -15 -85 -15c-7.33301 0 -13.666 2.83301 -18.999 8.5s-8 15.834 -8 30.501
c0 12 2.33301 21.667 7 29s11.334 11 20.001 11c29.333 0 55 2.66699 77 8s42 13.333 60 24c-4 29.333 -10.667 56.5 -20 81.5s-19.666 44.833 -30.999 59.5zM144.997 488.999c-10 6 -20.3311 9.00391 -30.998 9.00391c-9.33301 0 -19 -2.83301 -29 -8.5
s-17 -13.5 -21 -23.5c6 -7.33301 14.667 -13 26 -17s22.666 -6 33.999 -6c12 0 24.333 2.33301 37 7s26 11 40 19l-13 -50c-11.333 -3.33301 -23.333 -7.33301 -36 -12s-25.334 -9.83398 -38.001 -15.501s-25 -11.834 -37 -18.501s-23 -13.334 -33 -20.001
c-1.33301 5.33301 -2 9.33301 -2 12c0 12 4.66699 22 14 30s18.666 13.333 27.999 16c-29.333 7.33301 -44 21.333 -44 42c0 25.333 7.83301 46.166 23.5 62.499s34.834 24.5 57.501 24.5c18 0 33.667 -5 47 -15z" />
    <glyph glyph-name="uniFE8C" unicode="&#x626;" horiz-adv-x="305" arabic-form="medial" 
d="M147 218c11.333 -51.333 29.8301 -88.5 55.4971 -111.5s59.834 -34.5 102.501 -34.5c7.33301 0 14.166 -3.33301 20.499 -10s9.5 -16.334 9.5 -29.001s-3.16699 -22.5 -9.5 -29.5s-13.166 -10.5 -20.499 -10.5c-42 0 -76.167 7.83301 -102.5 23.5
s-47.166 40.167 -62.499 73.5c-14.667 -30.667 -33.5 -54.5 -56.5 -71.5s-50.833 -25.5 -83.5 -25.5c-7.33301 0 -13.666 3.33301 -18.999 10s-8 16.667 -8 30c0 12.667 2.5 22.334 7.5 29.001s11.5 10 19.5 10c25.333 0 48.333 4.83301 69 14.5s38.667 26.5 54 50.5l-6 44z
M171.997 409c-10 6 -20.3311 9.00391 -30.998 9.00391c-9.33301 0 -19 -2.83301 -29 -8.5s-17 -13.5 -21 -23.5c6 -7.33301 14.667 -13 26 -17s22.666 -6 33.999 -6c12 0 24.333 2.33301 37 7s26 11 40 19l-13 -50c-11.333 -3.33301 -23.333 -7.33301 -36 -12
s-25.334 -9.83398 -38.001 -15.501s-25 -11.834 -37 -18.501s-23 -13.334 -33 -20.001c-1.33301 5.33301 -2 9.33301 -2 12c0 12 4.66699 22 14 30s18.666 13.333 27.999 16c-29.333 7.33301 -44 21.333 -44 42c0 25.333 7.83301 46.166 23.5 62.499
s34.834 24.5 57.501 24.5c18 0 33.667 -5 47 -15z" />
    <glyph glyph-name="uniFE8E" unicode="&#x627;" horiz-adv-x="217" arabic-form="final" 
d="M118 604c2 -23.333 3.8291 -49.167 5.49609 -77.5s3 -58.333 4 -90s1.66699 -64.667 2 -99s0.5 -68.833 0.5 -103.5c0 -36 1.83301 -64.833 5.5 -86.5s9.16699 -38 16.5 -49s16.333 -18.167 27 -21.5s23.334 -5 38.001 -5c7.33301 0 14.166 -3.33301 20.499 -10
s9.5 -16.334 9.5 -29.001s-3.16699 -22.5 -9.5 -29.5s-13.166 -10.5 -20.499 -10.5c-29.333 0 -53.166 4.16699 -71.499 12.5s-31.5 18.166 -39.5 29.499c-5.33301 7.33301 -10 15 -14 23s-7.16699 18.833 -9.5 32.5s-4.16602 31.334 -5.49902 53.001s-2 49.834 -2 84.501
c0 56.667 -1.16699 112 -3.5 166s-6.16602 105.333 -11.499 154z" />
    <glyph glyph-name="uniFE90" unicode="&#x628;" horiz-adv-x="804" arabic-form="final" 
d="M85 271c-1.33301 -7.33301 -2.66895 -15.8291 -4.00195 -25.4961s-2 -17.167 -2 -22.5c0 -29.333 4.83301 -54 14.5 -74s25 -36.167 46 -48.5s48.167 -21.333 81.5 -27s74 -8.5 122 -8.5c86.667 0 161.5 10.667 224.5 32s116.167 52 159.5 92l24 -4l-35 -51
c9.33301 -41.333 38.666 -62 87.999 -62c7.33301 0 14.166 -3.33301 20.499 -10s9.5 -16.334 9.5 -29.001s-3.16699 -22.5 -9.5 -29.5s-13.166 -10.5 -20.499 -10.5c-36.667 0 -65 8.5 -85 25.5s-30 46.833 -30 89.5c-42.667 -38 -97.167 -68.5 -163.5 -91.5
s-142.166 -34.5 -227.499 -34.5c-50 0 -91.667 3.66699 -125 11s-60.166 18.166 -80.499 32.499s-34.666 32.166 -42.999 53.499s-12.5 46 -12.5 74c0 25.333 3 48.166 9 68.499s12.667 32.833 20 37.5zM342.997 -189.996c-10.667 4.66699 -22.499 12 -35.499 22
s-23.5 20.667 -31.5 32l49 60c8 -10.667 18.667 -21 32 -31s24.666 -17.667 33.999 -23z" />
    <glyph glyph-name="uniFE91" unicode="&#x628;" horiz-adv-x="230" arabic-form="initial" 
d="M138 331c14.667 -21.333 25.9971 -45.834 33.9971 -73.501s12 -55.167 12 -82.5c0 -18 -3.16699 -37.667 -9.5 -59s-16.5 -42 -30.5 -62c-13.333 -20.667 -33 -36 -59 -46s-54.333 -15 -85 -15c-7.33301 0 -13.666 2.83301 -18.999 8.5s-8 15.834 -8 30.501
c0 12 2.33301 21.667 7 29s11.334 11 20.001 11c29.333 0 55 2.66699 77 8s42 13.333 60 24c-4 29.333 -10.667 56.5 -20 81.5s-19.666 44.833 -30.999 59.5zM126.997 -190.001c-10.667 4.66699 -22.499 12 -35.499 22s-23.5 20.667 -31.5 32l49 60
c8 -10.667 18.667 -21 32 -31s24.666 -17.667 33.999 -23z" />
    <glyph glyph-name="uniFE92" unicode="&#x628;" horiz-adv-x="305" arabic-form="medial" 
d="M147 218c11.333 -51.333 29.8301 -88.5 55.4971 -111.5s59.834 -34.5 102.501 -34.5c7.33301 0 14.166 -3.33301 20.499 -10s9.5 -16.334 9.5 -29.001s-3.16699 -22.5 -9.5 -29.5s-13.166 -10.5 -20.499 -10.5c-42 0 -76.167 7.83301 -102.5 23.5
s-47.166 40.167 -62.499 73.5c-14.667 -30.667 -33.5 -54.5 -56.5 -71.5s-50.833 -25.5 -83.5 -25.5c-7.33301 0 -13.666 3.33301 -18.999 10s-8 16.667 -8 30c0 12.667 2.5 22.334 7.5 29.001s11.5 10 19.5 10c25.333 0 48.333 4.83301 69 14.5s38.667 26.5 54 50.5l-6 44z
M158.997 -190c-10.667 4.66699 -22.499 12 -35.499 22s-23.5 20.667 -31.5 32l49 60c8 -10.667 18.667 -21 32 -31s24.666 -17.667 33.999 -23z" />
    <glyph glyph-name="uniFE94" unicode="&#x629;" horiz-adv-x="399" arabic-form="final" 
d="M236 409c6 -12.667 11.334 -25.499 16.001 -38.499s9.33398 -28 14.001 -45s9.5 -36.333 14.5 -58s10.167 -47.5 15.5 -77.5c4.66699 -24 9.66699 -43.667 15 -59s11.833 -27.333 19.5 -36s17 -14.667 28 -18s24.5 -5 40.5 -5c7.33301 0 14.166 -3.33301 20.499 -10
s9.5 -16.334 9.5 -29.001s-3.16699 -22.5 -9.5 -29.5s-13.166 -10.5 -20.499 -10.5c-42 0 -74.333 8.33301 -97 25s-39.334 46 -50.001 88l-26 -26c-14 -14.667 -27.333 -24.334 -40 -29.001s-25.667 -7 -39 -7c-14 0 -27.667 2.83301 -41 8.5s-25.333 12.834 -36 21.501
s-19.167 18.334 -25.5 29.001s-9.5 21 -9.5 31c0 8.66699 2.16699 19.5 6.5 32.5s10.166 24.167 17.499 33.5c7.33301 10 24 23.667 50 41s62 35.666 108 54.999l-24 61zM229.001 246.001c-38 -13.333 -69.6689 -26.166 -95.002 -38.499s-43.666 -23.833 -54.999 -34.5
c7.33301 -18.667 19.333 -33.667 36 -45s38 -17 64 -17c14 0 27 2 39 6s22 8.66699 30 14c-2.66699 19.333 -5.16699 38.666 -7.5 57.999s-6.16602 38.333 -11.499 57zM273.999 463.001c-9.33301 4 -19.499 10 -30.499 18s-20.5 16.333 -28.5 25l-34 -50
c-10.667 4.66699 -22.5 11.5 -35.5 20.5s-23.5 19.167 -31.5 30.5l46 61c6.66699 -8.66699 15 -17.667 25 -27s19.667 -16.666 29 -21.999l39 56c8.66699 -10 19.667 -19.833 33 -29.5s24.666 -16.834 33.999 -21.501z" />
    <glyph glyph-name="uniFE96" unicode="&#x62a;" horiz-adv-x="804" arabic-form="final" 
d="M85 271c-1.33301 -7.33301 -2.66895 -15.8291 -4.00195 -25.4961s-2 -17.167 -2 -22.5c0 -29.333 4.83301 -54 14.5 -74s25 -36.167 46 -48.5s48.167 -21.333 81.5 -27s74 -8.5 122 -8.5c86.667 0 161.5 10.667 224.5 32s116.167 52 159.5 92l24 -4l-35 -51
c9.33301 -41.333 38.666 -62 87.999 -62c7.33301 0 14.166 -3.33301 20.499 -10s9.5 -16.334 9.5 -29.001s-3.16699 -22.5 -9.5 -29.5s-13.166 -10.5 -20.499 -10.5c-36.667 0 -65 8.5 -85 25.5s-30 46.833 -30 89.5c-42.667 -38 -97.167 -68.5 -163.5 -91.5
s-142.166 -34.5 -227.499 -34.5c-50 0 -91.667 3.66699 -125 11s-60.166 18.166 -80.499 32.499s-34.666 32.166 -42.999 53.499s-12.5 46 -12.5 74c0 25.333 3 48.166 9 68.499s12.667 32.833 20 37.5zM413.997 297.004c-9.33301 4 -19.499 10 -30.499 18
s-20.5 16.333 -28.5 25l-34 -50c-10.667 4.66699 -22.5 11.5 -35.5 20.5s-23.5 19.167 -31.5 30.5l46 61c6.66699 -8.66699 15 -17.667 25 -27s19.667 -16.666 29 -21.999l39 56c8.66699 -10 19.667 -19.833 33 -29.5s24.666 -16.834 33.999 -21.501z" />
    <glyph glyph-name="uniFE97" unicode="&#x62a;" horiz-adv-x="230" arabic-form="initial" 
d="M138 331c14.667 -21.333 25.9971 -45.834 33.9971 -73.501s12 -55.167 12 -82.5c0 -18 -3.16699 -37.667 -9.5 -59s-16.5 -42 -30.5 -62c-13.333 -20.667 -33 -36 -59 -46s-54.333 -15 -85 -15c-7.33301 0 -13.666 2.83301 -18.999 8.5s-8 15.834 -8 30.501
c0 12 2.33301 21.667 7 29s11.334 11 20.001 11c29.333 0 55 2.66699 77 8s42 13.333 60 24c-4 29.333 -10.667 56.5 -20 81.5s-19.666 44.833 -30.999 59.5zM172.997 397.999c-9.33301 4 -19.499 10 -30.499 18s-20.5 16.333 -28.5 25l-34 -50
c-10.667 4.66699 -22.5 11.5 -35.5 20.5s-23.5 19.167 -31.5 30.5l46 61c6.66699 -8.66699 15 -17.667 25 -27s19.667 -16.666 29 -21.999l39 56c8.66699 -10 19.667 -19.833 33 -29.5s24.666 -16.834 33.999 -21.501z" />
    <glyph glyph-name="uniFE98" unicode="&#x62a;" horiz-adv-x="305" arabic-form="medial" 
d="M147 218c11.333 -51.333 29.8301 -88.5 55.4971 -111.5s59.834 -34.5 102.501 -34.5c7.33301 0 14.166 -3.33301 20.499 -10s9.5 -16.334 9.5 -29.001s-3.16699 -22.5 -9.5 -29.5s-13.166 -10.5 -20.499 -10.5c-42 0 -76.167 7.83301 -102.5 23.5
s-47.166 40.167 -62.499 73.5c-14.667 -30.667 -33.5 -54.5 -56.5 -71.5s-50.833 -25.5 -83.5 -25.5c-7.33301 0 -13.666 3.33301 -18.999 10s-8 16.667 -8 30c0 12.667 2.5 22.334 7.5 29.001s11.5 10 19.5 10c25.333 0 48.333 4.83301 69 14.5s38.667 26.5 54 50.5l-6 44z
M183.997 297c-9.33301 4 -19.499 10 -30.499 18s-20.5 16.333 -28.5 25l-34 -50c-10.667 4.66699 -22.5 11.5 -35.5 20.5s-23.5 19.167 -31.5 30.5l46 61c6.66699 -8.66699 15 -17.667 25 -27s19.667 -16.666 29 -21.999l39 56c8.66699 -10 19.667 -19.833 33 -29.5
s24.666 -16.834 33.999 -21.501z" />
    <glyph glyph-name="uniFE9A" unicode="&#x62b;" horiz-adv-x="804" arabic-form="final" 
d="M85 271c-1.33301 -7.33301 -2.66895 -15.8291 -4.00195 -25.4961s-2 -17.167 -2 -22.5c0 -29.333 4.83301 -54 14.5 -74s25 -36.167 46 -48.5s48.167 -21.333 81.5 -27s74 -8.5 122 -8.5c86.667 0 161.5 10.667 224.5 32s116.167 52 159.5 92l24 -4l-35 -51
c9.33301 -41.333 38.666 -62 87.999 -62c7.33301 0 14.166 -3.33301 20.499 -10s9.5 -16.334 9.5 -29.001s-3.16699 -22.5 -9.5 -29.5s-13.166 -10.5 -20.499 -10.5c-36.667 0 -65 8.5 -85 25.5s-30 46.833 -30 89.5c-42.667 -38 -97.167 -68.5 -163.5 -91.5
s-142.166 -34.5 -227.499 -34.5c-50 0 -91.667 3.66699 -125 11s-60.166 18.166 -80.499 32.499s-34.666 32.166 -42.999 53.499s-12.5 46 -12.5 74c0 25.333 3 48.166 9 68.499s12.667 32.833 20 37.5zM361.997 400.004c-4 1.33301 -9.33301 4.16602 -16 8.49902
s-13.167 9.33301 -19.5 15s-12 11.167 -17 16.5s-8.5 9.66602 -10.5 12.999l48 59c6 -9.33301 15.167 -19.666 27.5 -30.999s23.5 -19.666 33.5 -24.999zM424.997 297.004c-9.33301 4 -19.499 10 -30.499 18s-20.5 16.333 -28.5 25l-34 -50
c-10.667 4.66699 -22.5 11.5 -35.5 20.5s-23.5 19.167 -31.5 30.5l46 61c6.66699 -8.66699 15 -17.667 25 -27s19.667 -16.666 29 -21.999l39 56c8.66699 -10 19.667 -19.833 33 -29.5s24.666 -16.834 33.999 -21.501z" />
    <glyph glyph-name="uniFE9B" unicode="&#x62b;" horiz-adv-x="230" arabic-form="initial" 
d="M138 331c14.667 -21.333 25.9971 -45.834 33.9971 -73.501s12 -55.167 12 -82.5c0 -18 -3.16699 -37.667 -9.5 -59s-16.5 -42 -30.5 -62c-13.333 -20.667 -33 -36 -59 -46s-54.333 -15 -85 -15c-7.33301 0 -13.666 2.83301 -18.999 8.5s-8 15.834 -8 30.501
c0 12 2.33301 21.667 7 29s11.334 11 20.001 11c29.333 0 55 2.66699 77 8s42 13.333 60 24c-4 29.333 -10.667 56.5 -20 81.5s-19.666 44.833 -30.999 59.5zM109.997 500.999c-4 1.33301 -9.33301 4.16602 -16 8.49902s-13.167 9.33301 -19.5 15s-12 11.167 -17 16.5
s-8.5 9.66602 -10.5 12.999l48 59c6 -9.33301 15.167 -19.666 27.5 -30.999s23.5 -19.666 33.5 -24.999zM172.997 397.999c-9.33301 4 -19.499 10 -30.499 18s-20.5 16.333 -28.5 25l-34 -50c-10.667 4.66699 -22.5 11.5 -35.5 20.5s-23.5 19.167 -31.5 30.5l46 61
c6.66699 -8.66699 15 -17.667 25 -27s19.667 -16.666 29 -21.999l39 56c8.66699 -10 19.667 -19.833 33 -29.5s24.666 -16.834 33.999 -21.501z" />
    <glyph glyph-name="uniFE9C" unicode="&#x62b;" horiz-adv-x="305" arabic-form="medial" 
d="M147 218c11.333 -51.333 29.8301 -88.5 55.4971 -111.5s59.834 -34.5 102.501 -34.5c7.33301 0 14.166 -3.33301 20.499 -10s9.5 -16.334 9.5 -29.001s-3.16699 -22.5 -9.5 -29.5s-13.166 -10.5 -20.499 -10.5c-42 0 -76.167 7.83301 -102.5 23.5
s-47.166 40.167 -62.499 73.5c-14.667 -30.667 -33.5 -54.5 -56.5 -71.5s-50.833 -25.5 -83.5 -25.5c-7.33301 0 -13.666 3.33301 -18.999 10s-8 16.667 -8 30c0 12.667 2.5 22.334 7.5 29.001s11.5 10 19.5 10c25.333 0 48.333 4.83301 69 14.5s38.667 26.5 54 50.5l-6 44z
M130.997 400c-4 1.33301 -9.33301 4.16602 -16 8.49902s-13.167 9.33301 -19.5 15s-12 11.167 -17 16.5s-8.5 9.66602 -10.5 12.999l48 59c6 -9.33301 15.167 -19.666 27.5 -30.999s23.5 -19.666 33.5 -24.999zM193.997 297c-9.33301 4 -19.499 10 -30.499 18
s-20.5 16.333 -28.5 25l-34 -50c-10.667 4.66699 -22.5 11.5 -35.5 20.5s-23.5 19.167 -31.5 30.5l46 61c6.66699 -8.66699 15 -17.667 25 -27s19.667 -16.666 29 -21.999l39 56c8.66699 -10 19.667 -19.833 33 -29.5s24.666 -16.834 33.999 -21.501z" />
    <glyph glyph-name="uniFE9E" unicode="&#x62c;" horiz-adv-x="516" arabic-form="final" 
d="M45 192c-4.66699 6 -7.00293 11.999 -7.00293 17.999c0 16 10.333 36.333 31 61c14 16.667 29 29 45 37s29.667 12 41 12c14 0 30.5 -3.16699 49.5 -9.5s44.5 -17.166 76.5 -32.499c18 -8 34.333 -14.667 49 -20s30 -9.5 46 -12.5s33.333 -5.16699 52 -6.5
s40.667 -2 66 -2l-25 -70c-18.667 0 -37.167 -1 -55.5 -3s-32.5 -4 -42.5 -6c-3.33301 -33.333 7.5 -56 32.5 -68s62.5 -18 112.5 -18c7.33301 0 14.166 -3.33301 20.499 -10s9.5 -16.334 9.5 -29.001s-3.16699 -22.5 -9.5 -29.5s-13.166 -10.5 -20.499 -10.5
c-64 0 -109.5 10.833 -136.5 32.5s-40.5 49.834 -40.5 84.501c0 7.33301 0.666992 15 2 23s3 14.667 5 20c-28.667 -7.33301 -59 -18.5 -91 -33.5s-61.333 -33.5 -88 -55.5s-48.834 -47.5 -66.501 -76.5s-26.5 -60.833 -26.5 -95.5c0 -50.667 21 -90.5 63 -119.5
s101 -43.5 177 -43.5c42 0 81.167 2.5 117.5 7.5s67.166 12.167 92.499 21.5l-4 -21c-1.33301 -6 -8.83301 -14 -22.5 -24s-32 -20 -55 -30s-49.667 -18.667 -80 -26s-62.5 -11 -96.5 -11c-38 0 -72.167 4.33301 -102.5 13s-56.166 21.834 -77.499 39.501
s-37.666 39.334 -48.999 65.001s-17 55.5 -17 89.5c0 42.667 7.16699 81.5 21.5 116.5s34 66.5 59 94.5s54.333 52.833 88 74.5s69.834 41.167 108.501 58.5c-24 14 -48.667 24.667 -74 32s-50.666 12.333 -75.999 15c-16 -4.66699 -33.167 -11.834 -51.5 -21.501
s-35.166 -19.834 -50.499 -30.501zM291.997 -143.001c-10.667 4.66699 -22.499 12 -35.499 22s-23.5 20.667 -31.5 32l49 60c8 -10.667 18.667 -21 32 -31s24.666 -17.667 33.999 -23z" />
    <glyph glyph-name="uniFE9F" unicode="&#x62c;" horiz-adv-x="505" arabic-form="initial" 
d="M0 -7c-7.33301 0 -13.6641 2.99707 -18.9971 8.99707s-8 16 -8 30c0 12 2.33301 21.667 7 29s11.334 11 20.001 11c62.667 0 122.667 7.5 180 22.5s107.666 36.5 150.999 64.5c-13.333 8 -28 15.833 -44 23.5s-32.333 15 -49 22s-32.834 13.333 -48.501 19
s-29.5 10.167 -41.5 13.5c-16.667 -3.33301 -34.5 -8.66602 -53.5 -15.999s-36.833 -15.666 -53.5 -24.999c-3.33301 5.33301 -5 11 -5 17c0 7.33301 2.66699 15.5 8 24.5s15.666 20.167 30.999 33.5c16 14.667 31.333 25.167 46 31.5s29 9.5 43 9.5
c6.66699 0 13.667 -0.833008 21 -2.5s16 -4.83398 26 -9.50098s21.833 -10.667 35.5 -18s30.167 -16.666 49.5 -27.999c22.667 -13.333 41.834 -23.833 57.501 -31.5s30.167 -13.667 43.5 -18s26.833 -7.16602 40.5 -8.49902s29.5 -2 47.5 -2l-26 -74
c-19.333 0 -36.833 -0.666992 -52.5 -2s-31.834 -4 -48.501 -8s-34.5 -9.83301 -53.5 -17.5s-41.833 -18.167 -68.5 -31.5c-27.333 -14 -51.833 -25.5 -73.5 -34.5s-41.667 -16 -60 -21s-35.833 -8.33301 -52.5 -10s-33.334 -2.5 -50.001 -2.5zM274.002 -191.003
c-10.667 4.66699 -22.499 12 -35.499 22s-23.5 20.667 -31.5 32l49 60c8 -10.667 18.667 -21 32 -31s24.666 -17.667 33.999 -23z" />
    <glyph glyph-name="uniFEA0" unicode="&#x62c;" horiz-adv-x="552" arabic-form="medial" 
d="M47 187c-2 2.66699 -3.50293 5.66992 -4.50293 9.00293s-1.5 6.66602 -1.5 9.99902c0 7.33301 2.5 16.166 7.5 26.499s12.833 21.833 23.5 34.5c13.333 16 28 28 44 36s29.667 12 41 12c14 0 30.5 -3.16699 49.5 -9.5s44.5 -17.166 76.5 -32.499
c18 -8 34.333 -14.667 49 -20s30 -9.5 46 -12.5s33.333 -5.5 52 -7.5s42 -3 70 -3l-25 -70c-28 0 -48.167 -0.666992 -60.5 -2s-23.166 -4 -32.499 -8c-0.666992 -1.33301 -1 -3 -1 -5v-5c0 -14 4 -25.333 12 -34s18.667 -15.5 32 -20.5s32 -8.5 56 -10.5s47.667 -3 71 -3
c7.33301 0 14.166 -3.33301 20.499 -10s9.5 -16.334 9.5 -29.001s-3.16699 -22.5 -9.5 -29.5s-13.166 -10.5 -20.499 -10.5c-72 0 -123.833 10.167 -155.5 30.5s-47.5 47.5 -47.5 81.5c0 10.667 1.66699 22.667 5 36c-5.33301 -2.66699 -11.333 -5.83398 -18 -9.50098
s-14.667 -8.5 -24 -14.5l-33 -22l-45 -31c-19.333 -13.333 -37.833 -24.5 -55.5 -33.5s-35.334 -16.167 -53.001 -21.5s-35.834 -9.33301 -54.501 -12s-42.334 -4 -71.001 -4c-7.33301 0 -13.666 3.33301 -18.999 10s-8 16.334 -8 29.001c0 26.667 9 40 27 40
c38 0 70.167 2 96.5 6s51.833 10.333 76.5 19s49.334 20.167 74.001 34.5s51.334 31.5 80.001 51.5c-28.667 15.333 -58.667 27.833 -90 37.5s-60.666 15.834 -87.999 18.501c-16 -4.66699 -33.167 -11.834 -51.5 -21.501s-35.166 -19.834 -50.499 -30.501z
M296.997 -189.997c-10.667 4.66699 -22.499 12 -35.499 22s-23.5 20.667 -31.5 32l49 60c8 -10.667 18.667 -21 32 -31s24.666 -17.667 33.999 -23z" />
    <glyph glyph-name="uniFEA2" unicode="&#x62d;" horiz-adv-x="516" arabic-form="final" 
d="M45 192c-4.66699 6 -7.00293 11.999 -7.00293 17.999c0 16 10.333 36.333 31 61c14 16.667 29 29 45 37s29.667 12 41 12c14 0 30.5 -3.16699 49.5 -9.5s44.5 -17.166 76.5 -32.499c18 -8 34.333 -14.667 49 -20s30 -9.5 46 -12.5s33.333 -5.16699 52 -6.5
s40.667 -2 66 -2l-25 -70c-18.667 0 -37.167 -1 -55.5 -3s-32.5 -4 -42.5 -6c-3.33301 -33.333 7.5 -56 32.5 -68s62.5 -18 112.5 -18c7.33301 0 14.166 -3.33301 20.499 -10s9.5 -16.334 9.5 -29.001s-3.16699 -22.5 -9.5 -29.5s-13.166 -10.5 -20.499 -10.5
c-64 0 -109.5 10.833 -136.5 32.5s-40.5 49.834 -40.5 84.501c0 7.33301 0.666992 15 2 23s3 14.667 5 20c-28.667 -7.33301 -59 -18.5 -91 -33.5s-61.333 -33.5 -88 -55.5s-48.834 -47.5 -66.501 -76.5s-26.5 -60.833 -26.5 -95.5c0 -50.667 21 -90.5 63 -119.5
s101 -43.5 177 -43.5c42 0 81.167 2.5 117.5 7.5s67.166 12.167 92.499 21.5l-4 -21c-1.33301 -6 -8.83301 -14 -22.5 -24s-32 -20 -55 -30s-49.667 -18.667 -80 -26s-62.5 -11 -96.5 -11c-38 0 -72.167 4.33301 -102.5 13s-56.166 21.834 -77.499 39.501
s-37.666 39.334 -48.999 65.001s-17 55.5 -17 89.5c0 42.667 7.16699 81.5 21.5 116.5s34 66.5 59 94.5s54.333 52.833 88 74.5s69.834 41.167 108.501 58.5c-24 14 -48.667 24.667 -74 32s-50.666 12.333 -75.999 15c-16 -4.66699 -33.167 -11.834 -51.5 -21.501
s-35.166 -19.834 -50.499 -30.501z" />
    <glyph glyph-name="uniFEA3" unicode="&#x62d;" horiz-adv-x="505" arabic-form="initial" 
d="M0 -7c-7.33301 0 -13.6641 2.99707 -18.9971 8.99707s-8 16 -8 30c0 12 2.33301 21.667 7 29s11.334 11 20.001 11c62.667 0 122.667 7.5 180 22.5s107.666 36.5 150.999 64.5c-13.333 8 -28 15.833 -44 23.5s-32.333 15 -49 22s-32.834 13.333 -48.501 19
s-29.5 10.167 -41.5 13.5c-16.667 -3.33301 -34.5 -8.66602 -53.5 -15.999s-36.833 -15.666 -53.5 -24.999c-3.33301 5.33301 -5 11 -5 17c0 7.33301 2.66699 15.5 8 24.5s15.666 20.167 30.999 33.5c16 14.667 31.333 25.167 46 31.5s29 9.5 43 9.5
c6.66699 0 13.667 -0.833008 21 -2.5s16 -4.83398 26 -9.50098s21.833 -10.667 35.5 -18s30.167 -16.666 49.5 -27.999c22.667 -13.333 41.834 -23.833 57.501 -31.5s30.167 -13.667 43.5 -18s26.833 -7.16602 40.5 -8.49902s29.5 -2 47.5 -2l-26 -74
c-19.333 0 -36.833 -0.666992 -52.5 -2s-31.834 -4 -48.501 -8s-34.5 -9.83301 -53.5 -17.5s-41.833 -18.167 -68.5 -31.5c-27.333 -14 -51.833 -25.5 -73.5 -34.5s-41.667 -16 -60 -21s-35.833 -8.33301 -52.5 -10s-33.334 -2.5 -50.001 -2.5z" />
    <glyph glyph-name="uniFEA4" unicode="&#x62d;" horiz-adv-x="552" arabic-form="medial" 
d="M47 187c-2 2.66699 -3.50293 5.66992 -4.50293 9.00293s-1.5 6.66602 -1.5 9.99902c0 7.33301 2.5 16.166 7.5 26.499s12.833 21.833 23.5 34.5c13.333 16 28 28 44 36s29.667 12 41 12c14 0 30.5 -3.16699 49.5 -9.5s44.5 -17.166 76.5 -32.499
c18 -8 34.333 -14.667 49 -20s30 -9.5 46 -12.5s33.333 -5.5 52 -7.5s42 -3 70 -3l-25 -70c-28 0 -48.167 -0.666992 -60.5 -2s-23.166 -4 -32.499 -8c-0.666992 -1.33301 -1 -3 -1 -5v-5c0 -14 4 -25.333 12 -34s18.667 -15.5 32 -20.5s32 -8.5 56 -10.5s47.667 -3 71 -3
c7.33301 0 14.166 -3.33301 20.499 -10s9.5 -16.334 9.5 -29.001s-3.16699 -22.5 -9.5 -29.5s-13.166 -10.5 -20.499 -10.5c-72 0 -123.833 10.167 -155.5 30.5s-47.5 47.5 -47.5 81.5c0 10.667 1.66699 22.667 5 36c-5.33301 -2.66699 -11.333 -5.83398 -18 -9.50098
s-14.667 -8.5 -24 -14.5l-33 -22l-45 -31c-19.333 -13.333 -37.833 -24.5 -55.5 -33.5s-35.334 -16.167 -53.001 -21.5s-35.834 -9.33301 -54.501 -12s-42.334 -4 -71.001 -4c-7.33301 0 -13.666 3.33301 -18.999 10s-8 16.334 -8 29.001c0 26.667 9 40 27 40
c38 0 70.167 2 96.5 6s51.833 10.333 76.5 19s49.334 20.167 74.001 34.5s51.334 31.5 80.001 51.5c-28.667 15.333 -58.667 27.833 -90 37.5s-60.666 15.834 -87.999 18.501c-16 -4.66699 -33.167 -11.834 -51.5 -21.501s-35.166 -19.834 -50.499 -30.501z" />
    <glyph glyph-name="uniFEA6" unicode="&#x62e;" horiz-adv-x="516" arabic-form="final" 
d="M45 192c-4.66699 6 -7.00293 11.999 -7.00293 17.999c0 16 10.333 36.333 31 61c14 16.667 29 29 45 37s29.667 12 41 12c14 0 30.5 -3.16699 49.5 -9.5s44.5 -17.166 76.5 -32.499c18 -8 34.333 -14.667 49 -20s30 -9.5 46 -12.5s33.333 -5.16699 52 -6.5
s40.667 -2 66 -2l-25 -70c-18.667 0 -37.167 -1 -55.5 -3s-32.5 -4 -42.5 -6c-3.33301 -33.333 7.5 -56 32.5 -68s62.5 -18 112.5 -18c7.33301 0 14.166 -3.33301 20.499 -10s9.5 -16.334 9.5 -29.001s-3.16699 -22.5 -9.5 -29.5s-13.166 -10.5 -20.499 -10.5
c-64 0 -109.5 10.833 -136.5 32.5s-40.5 49.834 -40.5 84.501c0 7.33301 0.666992 15 2 23s3 14.667 5 20c-28.667 -7.33301 -59 -18.5 -91 -33.5s-61.333 -33.5 -88 -55.5s-48.834 -47.5 -66.501 -76.5s-26.5 -60.833 -26.5 -95.5c0 -50.667 21 -90.5 63 -119.5
s101 -43.5 177 -43.5c42 0 81.167 2.5 117.5 7.5s67.166 12.167 92.499 21.5l-4 -21c-1.33301 -6 -8.83301 -14 -22.5 -24s-32 -20 -55 -30s-49.667 -18.667 -80 -26s-62.5 -11 -96.5 -11c-38 0 -72.167 4.33301 -102.5 13s-56.166 21.834 -77.499 39.501
s-37.666 39.334 -48.999 65.001s-17 55.5 -17 89.5c0 42.667 7.16699 81.5 21.5 116.5s34 66.5 59 94.5s54.333 52.833 88 74.5s69.834 41.167 108.501 58.5c-24 14 -48.667 24.667 -74 32s-50.666 12.333 -75.999 15c-16 -4.66699 -33.167 -11.834 -51.5 -21.501
s-35.166 -19.834 -50.499 -30.501zM159.997 390.999c-10.667 4.66699 -22.499 12 -35.499 22s-23.5 20.667 -31.5 32l49 60c8 -10.667 18.667 -21 32 -31s24.666 -17.667 33.999 -23z" />
    <glyph glyph-name="uniFEA7" unicode="&#x62e;" horiz-adv-x="505" arabic-form="initial" 
d="M0 -7c-7.33301 0 -13.6641 2.99707 -18.9971 8.99707s-8 16 -8 30c0 12 2.33301 21.667 7 29s11.334 11 20.001 11c62.667 0 122.667 7.5 180 22.5s107.666 36.5 150.999 64.5c-13.333 8 -28 15.833 -44 23.5s-32.333 15 -49 22s-32.834 13.333 -48.501 19
s-29.5 10.167 -41.5 13.5c-16.667 -3.33301 -34.5 -8.66602 -53.5 -15.999s-36.833 -15.666 -53.5 -24.999c-3.33301 5.33301 -5 11 -5 17c0 7.33301 2.66699 15.5 8 24.5s15.666 20.167 30.999 33.5c16 14.667 31.333 25.167 46 31.5s29 9.5 43 9.5
c6.66699 0 13.667 -0.833008 21 -2.5s16 -4.83398 26 -9.50098s21.833 -10.667 35.5 -18s30.167 -16.666 49.5 -27.999c22.667 -13.333 41.834 -23.833 57.501 -31.5s30.167 -13.667 43.5 -18s26.833 -7.16602 40.5 -8.49902s29.5 -2 47.5 -2l-26 -74
c-19.333 0 -36.833 -0.666992 -52.5 -2s-31.834 -4 -48.501 -8s-34.5 -9.83301 -53.5 -17.5s-41.833 -18.167 -68.5 -31.5c-27.333 -14 -51.833 -25.5 -73.5 -34.5s-41.667 -16 -60 -21s-35.833 -8.33301 -52.5 -10s-33.334 -2.5 -50.001 -2.5zM153.002 390.997
c-10.667 4.66699 -22.499 12 -35.499 22s-23.5 20.667 -31.5 32l49 60c8 -10.667 18.667 -21 32 -31s24.666 -17.667 33.999 -23z" />
    <glyph glyph-name="uniFEA8" unicode="&#x62e;" horiz-adv-x="552" arabic-form="medial" 
d="M47 187c-2 2.66699 -3.50293 5.66992 -4.50293 9.00293s-1.5 6.66602 -1.5 9.99902c0 7.33301 2.5 16.166 7.5 26.499s12.833 21.833 23.5 34.5c13.333 16 28 28 44 36s29.667 12 41 12c14 0 30.5 -3.16699 49.5 -9.5s44.5 -17.166 76.5 -32.499
c18 -8 34.333 -14.667 49 -20s30 -9.5 46 -12.5s33.333 -5.5 52 -7.5s42 -3 70 -3l-25 -70c-28 0 -48.167 -0.666992 -60.5 -2s-23.166 -4 -32.499 -8c-0.666992 -1.33301 -1 -3 -1 -5v-5c0 -14 4 -25.333 12 -34s18.667 -15.5 32 -20.5s32 -8.5 56 -10.5s47.667 -3 71 -3
c7.33301 0 14.166 -3.33301 20.499 -10s9.5 -16.334 9.5 -29.001s-3.16699 -22.5 -9.5 -29.5s-13.166 -10.5 -20.499 -10.5c-72 0 -123.833 10.167 -155.5 30.5s-47.5 47.5 -47.5 81.5c0 10.667 1.66699 22.667 5 36c-5.33301 -2.66699 -11.333 -5.83398 -18 -9.50098
s-14.667 -8.5 -24 -14.5l-33 -22l-45 -31c-19.333 -13.333 -37.833 -24.5 -55.5 -33.5s-35.334 -16.167 -53.001 -21.5s-35.834 -9.33301 -54.501 -12s-42.334 -4 -71.001 -4c-7.33301 0 -13.666 3.33301 -18.999 10s-8 16.334 -8 29.001c0 26.667 9 40 27 40
c38 0 70.167 2 96.5 6s51.833 10.333 76.5 19s49.334 20.167 74.001 34.5s51.334 31.5 80.001 51.5c-28.667 15.333 -58.667 27.833 -90 37.5s-60.666 15.834 -87.999 18.501c-16 -4.66699 -33.167 -11.834 -51.5 -21.501s-35.166 -19.834 -50.499 -30.501zM164.997 391.003
c-10.667 4.66699 -22.499 12 -35.499 22s-23.5 20.667 -31.5 32l49 60c8 -10.667 18.667 -21 32 -31s24.666 -17.667 33.999 -23z" />
    <glyph glyph-name="uniFEAA" unicode="&#x62f;" horiz-adv-x="481" arabic-form="final" 
d="M105 178c-2 -6.66699 -3.33496 -13.1689 -4.00195 -19.502s-1 -14.166 -1 -23.499c0 -19.333 7 -34.666 21 -45.999s35 -17 63 -17s52 4 72 12s36.667 19 50 33c-6 22 -13.5 52.833 -22.5 92.5s-18.167 90.834 -27.5 153.501l62 53c13.333 -120.667 28 -208.667 44 -264
c4.66699 -15.333 10 -28 16 -38s13.667 -18.167 23 -24.5s20.5 -10.833 33.5 -13.5s28.5 -4 46.5 -4c7.33301 0 14.166 -3.33301 20.499 -10s9.5 -16.334 9.5 -29.001s-3.16699 -22.5 -9.5 -29.5s-13.166 -10.5 -20.499 -10.5c-25.333 0 -47.166 2 -65.499 6
s-34.166 10.167 -47.499 18.5s-24.333 18.833 -33 31.5s-15.667 28 -21 46l-26 -72c-14.667 -10 -31 -17.5 -49 -22.5s-40 -7.5 -66 -7.5c-32 0 -58 9.5 -78 28.5s-30 44.167 -30 75.5c0 18.667 2.5 34 7.5 46s10.5 20 16.5 24l16 11v0z" />
    <glyph glyph-name="uniFEAC" unicode="&#x630;" horiz-adv-x="481" arabic-form="final" 
d="M105 178c-2 -6.66699 -3.33496 -13.1689 -4.00195 -19.502s-1 -14.166 -1 -23.499c0 -19.333 7 -34.666 21 -45.999s35 -17 63 -17s52 4 72 12s36.667 19 50 33c-6 22 -13.5 52.833 -22.5 92.5s-18.167 90.834 -27.5 153.501l62 53c13.333 -120.667 28 -208.667 44 -264
c4.66699 -15.333 10 -28 16 -38s13.667 -18.167 23 -24.5s20.5 -10.833 33.5 -13.5s28.5 -4 46.5 -4c7.33301 0 14.166 -3.33301 20.499 -10s9.5 -16.334 9.5 -29.001s-3.16699 -22.5 -9.5 -29.5s-13.166 -10.5 -20.499 -10.5c-25.333 0 -47.166 2 -65.499 6
s-34.166 10.167 -47.499 18.5s-24.333 18.833 -33 31.5s-15.667 28 -21 46l-26 -72c-14.667 -10 -31 -17.5 -49 -22.5s-40 -7.5 -66 -7.5c-32 0 -58 9.5 -78 28.5s-30 44.167 -30 75.5c0 18.667 2.5 34 7.5 46s10.5 20 16.5 24l16 11v0zM274.998 460.998
c-10.667 4.66699 -22.499 12 -35.499 22s-23.5 20.667 -31.5 32l49 60c8 -10.667 18.667 -21 32 -31s24.666 -17.667 33.999 -23z" />
    <glyph glyph-name="uniFEAE" unicode="&#x631;" horiz-adv-x="393" arabic-form="final" 
d="M270 161c13.333 -16.667 25.165 -30.665 35.498 -41.998s20.333 -20.5 30 -27.5s19 -12 28 -15s18.833 -4.5 29.5 -4.5c7.33301 0 14.166 -3.33301 20.499 -10s9.5 -16.334 9.5 -29.001s-3.16699 -22.5 -9.5 -29.5s-13.166 -10.5 -20.499 -10.5
c-13.333 0 -25.5 1.66699 -36.5 5s-21.833 8.66602 -32.5 15.999l-1 -1c4.66699 -11.333 7 -25.333 7 -42c0 -14 -2.83301 -30 -8.5 -48s-14.5 -36.333 -26.5 -55s-27.167 -37 -45.5 -55s-40.166 -33.667 -65.499 -47l-128 16l-14 20c72 20 128.833 45.833 170.5 77.5
s69.167 63.167 82.5 94.5c-1.33301 15.333 -6.66602 33 -15.999 53s-24.333 41.667 -45 65z" />
    <glyph glyph-name="uniFEB0" unicode="&#x632;" horiz-adv-x="393" arabic-form="final" 
d="M270 161c13.333 -16.667 25.165 -30.665 35.498 -41.998s20.333 -20.5 30 -27.5s19 -12 28 -15s18.833 -4.5 29.5 -4.5c7.33301 0 14.166 -3.33301 20.499 -10s9.5 -16.334 9.5 -29.001s-3.16699 -22.5 -9.5 -29.5s-13.166 -10.5 -20.499 -10.5
c-13.333 0 -25.5 1.66699 -36.5 5s-21.833 8.66602 -32.5 15.999l-1 -1c4.66699 -11.333 7 -25.333 7 -42c0 -14 -2.83301 -30 -8.5 -48s-14.5 -36.333 -26.5 -55s-27.167 -37 -45.5 -55s-40.166 -33.667 -65.499 -47l-128 16l-14 20c72 20 128.833 45.833 170.5 77.5
s69.167 63.167 82.5 94.5c-1.33301 15.333 -6.66602 33 -15.999 53s-24.333 41.667 -45 65zM260.999 231.002c-10.667 4.66699 -22.499 12 -35.499 22s-23.5 20.667 -31.5 32l49 60c8 -10.667 18.667 -21 32 -31s24.666 -17.667 33.999 -23z" />
    <glyph glyph-name="uniFEB2" unicode="&#x633;" horiz-adv-x="839" arabic-form="final" 
d="M87 127c-5.33301 -12.667 -9.32812 -28.668 -11.9951 -48.001s-4 -38.666 -4 -57.999c0 -50 11.667 -87.5 35 -112.5s61 -37.5 113 -37.5c40 0 76.667 6.66699 110 20s58.666 31.666 75.999 54.999c-3.33301 38.667 -8.66602 72.334 -15.999 101.001s-16 52.667 -26 72
l47 65c12.667 -36 27.834 -63.333 45.501 -82s34.167 -28 49.5 -28c14.667 0 27.667 6.66699 39 20s23.666 39.333 36.999 78l31 14l-7 -35c1.33301 -26.667 6.16602 -46.5 14.499 -59.5s19.166 -19.5 32.499 -19.5c14 0 27.333 9.66699 40 29s22 50 28 92l35 13l-6 -42
c2 -28 11.667 -50.333 29 -67s37.666 -25 60.999 -25c7.33301 0 14.166 -3.33301 20.499 -10s9.5 -16.334 9.5 -29.001s-3.16699 -22.5 -9.5 -29.5s-13.166 -10.5 -20.499 -10.5c-28 0 -52.333 7.5 -73 22.5s-34.334 36.167 -41.001 63.5
c-9.33301 -30.667 -20.833 -52.667 -34.5 -66s-30.5 -20 -50.5 -20c-18 0 -33.333 6.16699 -46 18.5s-21.334 31.166 -26.001 56.499c-10 -26 -20.833 -44.667 -32.5 -56s-23.834 -17 -36.501 -17c-11.333 0 -21 2.66699 -29 8s-14.333 12 -19 20l-1 -1
c0.666992 -30 -1.5 -56 -6.5 -78s-13.833 -43 -26.5 -63c-16 -25.333 -41.667 -47.166 -77 -65.499s-79.666 -27.5 -132.999 -27.5c-62.667 0 -108.667 16.333 -138 49s-44 77.334 -44 134.001c0 17.333 1.33301 34 4 50s6.16699 30.5 10.5 43.5s9 24 14 33
s10.167 15.167 15.5 18.5l18 11v0z" />
    <glyph glyph-name="uniFEB3" unicode="&#x633;" horiz-adv-x="527" arabic-form="initial" 
d="M431 290c8 -8.66699 15.8301 -19.0039 23.4971 -31.0039s14.167 -24.667 19.5 -38s9.66602 -26.666 12.999 -39.999s5 -25.666 5 -36.999s-1.16699 -24.666 -3.5 -39.999s-7.5 -31 -15.5 -47c-10.667 -21.333 -21 -36 -31 -44s-20.667 -12 -32 -12
c-21.333 0 -43.833 8.16699 -67.5 24.5s-43.167 39.833 -58.5 70.5c-7.33301 -18.667 -14.5 -34.167 -21.5 -46.5s-14.167 -22.166 -21.5 -29.499s-15 -12.5 -23 -15.5s-16.667 -4.5 -26 -4.5c-17.333 -0 -33.666 6.83301 -48.999 20.5s-27.666 34.5 -36.999 62.5
c-9.33301 -17.333 -18.5 -31.833 -27.5 -43.5s-17.667 -21 -26 -28s-16.833 -11.833 -25.5 -14.5s-17.667 -4 -27 -4c-7.33301 0 -13.833 3 -19.5 9s-8.5 16 -8.5 30c0 12 2.83301 21.667 8.5 29s12.167 11 19.5 11c26.667 0 50.334 8.33301 71.001 25s39.334 43 56.001 79
l30 13l-8 -34c5.33301 -24.667 13.833 -43.5 25.5 -56.5s23.834 -19.5 36.501 -19.5c6 0 12.167 2 18.5 6s12.833 10.5 19.5 19.5s13.667 21 21 36s15.333 33.833 24 56.5l32 13l-9 -38c11.333 -27.333 28.166 -49.5 50.499 -66.5s49.833 -25.5 82.5 -25.5
c-2 25.333 -8.16699 50 -18.5 74s-22.5 44 -36.5 60z" />
    <glyph glyph-name="uniFEB4" unicode="&#x633;" horiz-adv-x="582" arabic-form="medial" 
d="M481 164c4.66699 -31.333 16.0049 -54.501 34.0049 -69.501s40.333 -22.5 67 -22.5c7.33301 0 14.166 -3.33301 20.499 -10s9.5 -16.334 9.5 -29.001s-3.16699 -22.5 -9.5 -29.5s-13.166 -10.5 -20.499 -10.5c-33.333 0 -60.833 8.16699 -82.5 24.5
s-35.834 38.833 -42.501 67.5c-10.667 -30 -23.834 -51.333 -39.501 -64s-32.167 -19 -49.5 -19c-20 0 -35.833 6.5 -47.5 19.5s-18.834 30.833 -21.501 53.5c-14.667 -30.667 -29.5 -52 -44.5 -64s-32.167 -18 -51.5 -18c-22 0 -40.667 7.33301 -56 22s-26 35 -32 61
c-15.333 -30.667 -32.833 -52.167 -52.5 -64.5s-40.5 -18.5 -62.5 -18.5c-6.66699 0 -12.834 3.5 -18.501 10.5s-8.5 16.833 -8.5 29.5c0 10.667 2.66699 19.834 8 27.501s11.666 11.5 18.999 11.5c28.667 0 53.5 6.83301 74.5 20.5s39.833 36.5 56.5 68.5l29 7l-10 -30
c5.33301 -19.333 14.333 -35.166 27 -47.499s27.667 -18.5 45 -18.5s32.833 6.66699 46.5 20s27.834 40 42.501 80l31 14l-6 -35c1.33301 -20.667 6.16602 -37.5 14.499 -50.5s18.833 -19.5 31.5 -19.5c34.667 0 59 37 73 111l34 14z" />
    <glyph glyph-name="uniFEB6" unicode="&#x634;" horiz-adv-x="839" arabic-form="final" 
d="M87 127c-5.33301 -12.667 -9.32812 -28.668 -11.9951 -48.001s-4 -38.666 -4 -57.999c0 -50 11.667 -87.5 35 -112.5s61 -37.5 113 -37.5c40 0 76.667 6.66699 110 20s58.666 31.666 75.999 54.999c-3.33301 38.667 -8.66602 72.334 -15.999 101.001s-16 52.667 -26 72
l47 65c12.667 -36 27.834 -63.333 45.501 -82s34.167 -28 49.5 -28c14.667 0 27.667 6.66699 39 20s23.666 39.333 36.999 78l31 14l-7 -35c1.33301 -26.667 6.16602 -46.5 14.499 -59.5s19.166 -19.5 32.499 -19.5c14 0 27.333 9.66699 40 29s22 50 28 92l35 13l-6 -42
c2 -28 11.667 -50.333 29 -67s37.666 -25 60.999 -25c7.33301 0 14.166 -3.33301 20.499 -10s9.5 -16.334 9.5 -29.001s-3.16699 -22.5 -9.5 -29.5s-13.166 -10.5 -20.499 -10.5c-28 0 -52.333 7.5 -73 22.5s-34.334 36.167 -41.001 63.5
c-9.33301 -30.667 -20.833 -52.667 -34.5 -66s-30.5 -20 -50.5 -20c-18 0 -33.333 6.16699 -46 18.5s-21.334 31.166 -26.001 56.499c-10 -26 -20.833 -44.667 -32.5 -56s-23.834 -17 -36.501 -17c-11.333 0 -21 2.66699 -29 8s-14.333 12 -19 20l-1 -1
c0.666992 -30 -1.5 -56 -6.5 -78s-13.833 -43 -26.5 -63c-16 -25.333 -41.667 -47.166 -77 -65.499s-79.666 -27.5 -132.999 -27.5c-62.667 0 -108.667 16.333 -138 49s-44 77.334 -44 134.001c0 17.333 1.33301 34 4 50s6.16699 30.5 10.5 43.5s9 24 14 33
s10.167 15.167 15.5 18.5l18 11v0zM560.005 366.999c-4 1.33301 -9.33301 4.16602 -16 8.49902s-13.167 9.33301 -19.5 15s-12 11.167 -17 16.5s-8.5 9.66602 -10.5 12.999l48 59c6 -9.33301 15.167 -19.666 27.5 -30.999s23.5 -19.666 33.5 -24.999zM623.005 263.999
c-9.33301 4 -19.499 10 -30.499 18s-20.5 16.333 -28.5 25l-34 -50c-10.667 4.66699 -22.5 11.5 -35.5 20.5s-23.5 19.167 -31.5 30.5l46 61c6.66699 -8.66699 15 -17.667 25 -27s19.667 -16.666 29 -21.999l39 56c8.66699 -10 19.667 -19.833 33 -29.5
s24.666 -16.834 33.999 -21.501z" />
    <glyph glyph-name="uniFEB7" unicode="&#x634;" horiz-adv-x="527" arabic-form="initial" 
d="M431 290c8 -8.66699 15.8301 -19.0039 23.4971 -31.0039s14.167 -24.667 19.5 -38s9.66602 -26.666 12.999 -39.999s5 -25.666 5 -36.999s-1.16699 -24.666 -3.5 -39.999s-7.5 -31 -15.5 -47c-10.667 -21.333 -21 -36 -31 -44s-20.667 -12 -32 -12
c-21.333 0 -43.833 8.16699 -67.5 24.5s-43.167 39.833 -58.5 70.5c-7.33301 -18.667 -14.5 -34.167 -21.5 -46.5s-14.167 -22.166 -21.5 -29.499s-15 -12.5 -23 -15.5s-16.667 -4.5 -26 -4.5c-17.333 -0 -33.666 6.83301 -48.999 20.5s-27.666 34.5 -36.999 62.5
c-9.33301 -17.333 -18.5 -31.833 -27.5 -43.5s-17.667 -21 -26 -28s-16.833 -11.833 -25.5 -14.5s-17.667 -4 -27 -4c-7.33301 0 -13.833 3 -19.5 9s-8.5 16 -8.5 30c0 12 2.83301 21.667 8.5 29s12.167 11 19.5 11c26.667 0 50.334 8.33301 71.001 25s39.334 43 56.001 79
l30 13l-8 -34c5.33301 -24.667 13.833 -43.5 25.5 -56.5s23.834 -19.5 36.501 -19.5c6 0 12.167 2 18.5 6s12.833 10.5 19.5 19.5s13.667 21 21 36s15.333 33.833 24 56.5l32 13l-9 -38c11.333 -27.333 28.166 -49.5 50.499 -66.5s49.833 -25.5 82.5 -25.5
c-2 25.333 -8.16699 50 -18.5 74s-22.5 44 -36.5 60zM248.997 386.996c-4 1.33301 -9.33301 4.16602 -16 8.49902s-13.167 9.33301 -19.5 15s-12 11.167 -17 16.5s-8.5 9.66602 -10.5 12.999l48 59c6 -9.33301 15.167 -19.666 27.5 -30.999s23.5 -19.666 33.5 -24.999z
M311.997 283.996c-9.33301 4 -19.499 10 -30.499 18s-20.5 16.333 -28.5 25l-34 -50c-10.667 4.66699 -22.5 11.5 -35.5 20.5s-23.5 19.167 -31.5 30.5l46 61c6.66699 -8.66699 15 -17.667 25 -27s19.667 -16.666 29 -21.999l39 56c8.66699 -10 19.667 -19.833 33 -29.5
s24.666 -16.834 33.999 -21.501z" />
    <glyph glyph-name="uniFEB8" unicode="&#x634;" horiz-adv-x="582" arabic-form="medial" 
d="M481 164c4.66699 -31.333 16.0049 -54.501 34.0049 -69.501s40.333 -22.5 67 -22.5c7.33301 0 14.166 -3.33301 20.499 -10s9.5 -16.334 9.5 -29.001s-3.16699 -22.5 -9.5 -29.5s-13.166 -10.5 -20.499 -10.5c-33.333 0 -60.833 8.16699 -82.5 24.5
s-35.834 38.833 -42.501 67.5c-10.667 -30 -23.834 -51.333 -39.501 -64s-32.167 -19 -49.5 -19c-20 0 -35.833 6.5 -47.5 19.5s-18.834 30.833 -21.501 53.5c-14.667 -30.667 -29.5 -52 -44.5 -64s-32.167 -18 -51.5 -18c-22 0 -40.667 7.33301 -56 22s-26 35 -32 61
c-15.333 -30.667 -32.833 -52.167 -52.5 -64.5s-40.5 -18.5 -62.5 -18.5c-6.66699 0 -12.834 3.5 -18.501 10.5s-8.5 16.833 -8.5 29.5c0 10.667 2.66699 19.834 8 27.501s11.666 11.5 18.999 11.5c28.667 0 53.5 6.83301 74.5 20.5s39.833 36.5 56.5 68.5l29 7l-10 -30
c5.33301 -19.333 14.333 -35.166 27 -47.499s27.667 -18.5 45 -18.5s32.833 6.66699 46.5 20s27.834 40 42.501 80l31 14l-6 -35c1.33301 -20.667 6.16602 -37.5 14.499 -50.5s18.833 -19.5 31.5 -19.5c34.667 0 59 37 73 111l34 14zM297.005 366.999
c-4 1.33301 -9.33301 4.16602 -16 8.49902s-13.167 9.33301 -19.5 15s-12 11.167 -17 16.5s-8.5 9.66602 -10.5 12.999l48 59c6 -9.33301 15.167 -19.666 27.5 -30.999s23.5 -19.666 33.5 -24.999zM360.005 263.999c-9.33301 4 -19.499 10 -30.499 18s-20.5 16.333 -28.5 25
l-34 -50c-10.667 4.66699 -22.5 11.5 -35.5 20.5s-23.5 19.167 -31.5 30.5l46 61c6.66699 -8.66699 15 -17.667 25 -27s19.667 -16.666 29 -21.999l39 56c8.66699 -10 19.667 -19.833 33 -29.5s24.666 -16.834 33.999 -21.501z" />
    <glyph glyph-name="uniFEBA" unicode="&#x635;" horiz-adv-x="898" arabic-form="final" 
d="M828 81c11.333 -3.33301 21.9961 -5.66992 31.9961 -7.00293s22.667 -2 38 -2c7.33301 0 14.166 -3.33301 20.499 -10s9.5 -16.334 9.5 -29.001s-3.16699 -22.5 -9.5 -29.5s-13.166 -10.5 -20.499 -10.5c-22.667 0 -43.167 3.66699 -61.5 11s-36.5 19.666 -54.5 36.999
c-12.667 -7.33301 -27.167 -14 -43.5 -20s-33.166 -11 -50.499 -15s-34.833 -7.16699 -52.5 -9.5s-34.167 -3.5 -49.5 -3.5c-32.667 0 -60 2.83301 -82 8.5s-40 13.167 -54 22.5v-5c0 -28 -2.5 -53.167 -7.5 -75.5s-13.5 -43.166 -25.5 -62.499
c-16 -25.333 -41.667 -47.166 -77 -65.499s-79.666 -27.5 -132.999 -27.5c-62.667 0 -108.667 16.333 -138 49s-44 77.334 -44 134.001c0 17.333 1.33301 34 4 50s6.16699 30.5 10.5 43.5s9 24 14 33s10.167 15.167 15.5 18.5l18 11
c-5.33301 -12.667 -9.33301 -28.667 -12 -48s-4 -38.666 -4 -57.999c0 -50 11.667 -87.5 35 -112.5s61 -37.5 113 -37.5c40 0 76.667 6.66699 110 20s58.666 31.666 75.999 54.999c-3.33301 38.667 -8.66602 72.334 -15.999 101.001s-16 52.667 -26 72l47 65
c7.33301 -19.333 16.166 -37.166 26.499 -53.499s22.833 -29.833 37.5 -40.5c16.667 28 36.334 55.333 59.001 82s46.334 50.5 71.001 71.5s49.834 37.833 75.501 50.5s50.167 19 73.5 19c15.333 0 30 -3.83301 44 -11.5s26.333 -18 37 -31s19.167 -28 25.5 -45
s9.5 -35.167 9.5 -54.5c0 -10.667 -3.83301 -24 -11.5 -40s-17.5 -32.667 -29.5 -50zM819.996 121.996c-4.66699 35.333 -15.332 62.832 -31.999 82.499s-37.334 29.5 -62.001 29.5c-14.667 0 -31.167 -4.5 -49.5 -13.5s-37.166 -20.667 -56.499 -35
s-38.5 -30.833 -57.5 -49.5s-36.5 -38 -52.5 -58c7.33301 -1.33301 16.833 -2.66602 28.5 -3.99902s23.834 -2 36.501 -2c53.333 0 101.166 4.5 143.499 13.5s76.166 21.167 101.499 36.5z" />
    <glyph glyph-name="uniFEBB" unicode="&#x635;" horiz-adv-x="621" arabic-form="initial" 
d="M128 167c2 -6 5.49902 -12.6719 10.499 -20.0049s10.5 -14.666 16.5 -21.999s12.167 -14.166 18.5 -20.499s12.166 -11.166 17.499 -14.499c16.667 28 36.334 55.333 59.001 82s46.334 50.5 71.001 71.5s49.834 37.833 75.501 50.5s50.167 19 73.5 19
c15.333 0 30 -3.83301 44 -11.5s26.333 -18 37 -31s19.167 -28 25.5 -45s9.5 -35.167 9.5 -54.5c0 -11.333 -4.5 -26.166 -13.5 -44.499s-20.833 -36.833 -35.5 -55.5c-9.33301 -11.333 -22.833 -21.666 -40.5 -30.999s-37.834 -17.5 -60.501 -24.5s-46.5 -12.5 -71.5 -16.5
s-49.167 -6 -72.5 -6c-36.667 0 -70.334 6.33301 -101.001 19s-57 34.334 -79 65.001c-11.333 -26.667 -26.166 -47.334 -44.499 -62.001s-40.833 -22 -67.5 -22c-7.33301 0 -13.666 3.83301 -18.999 11.5s-8 17.167 -8 28.5c0 10 2.66699 19 8 27s11.666 12 18.999 12
c25.333 0 46.333 5.5 63 16.5s32 31.833 46 62.5zM536.999 121.995c-4.66699 35.333 -15.3311 62.832 -31.998 82.499s-37 29.5 -61 29.5c-14.667 0 -31.334 -4.5 -50.001 -13.5s-37.667 -20.667 -57 -35s-38.5 -30.833 -57.5 -49.5s-36.5 -38 -52.5 -58
c7.33301 -1.33301 16.833 -2.66602 28.5 -3.99902s23.834 -2 36.501 -2c53.333 0 101.166 4.5 143.499 13.5s76.166 21.167 101.499 36.5z" />
    <glyph glyph-name="uniFEBC" unicode="&#x635;" horiz-adv-x="615" arabic-form="medial" 
d="M128 167c2 -6 5.49805 -12.6709 10.498 -20.0039s10.5 -14.666 16.5 -21.999s12.167 -14.166 18.5 -20.499s12.166 -11.166 17.499 -14.499c16.667 28 36.334 55.333 59.001 82s46.334 50.5 71.001 71.5s49.834 37.833 75.501 50.5s50.167 19 73.5 19
c15.333 0 30 -3.83301 44 -11.5s26.333 -18 37 -31s19.167 -28 25.5 -45s9.5 -35.167 9.5 -54.5c0 -10.667 -3.83301 -24 -11.5 -40s-17.834 -32.667 -30.501 -50c11.333 -3.33301 22.166 -5.66602 32.499 -6.99902s23.166 -2 38.499 -2
c7.33301 0 14.166 -3.33301 20.499 -10s9.5 -16.334 9.5 -29.001s-3.16699 -22.5 -9.5 -29.5s-13.166 -10.5 -20.499 -10.5c-22.667 0 -43.167 3.83301 -61.5 11.5s-36.166 20.167 -53.499 37.5c-13.333 -7.33301 -28.166 -14 -44.499 -20s-33.666 -11.167 -51.999 -15.5
s-37 -7.66602 -56 -9.99902s-37.5 -3.5 -55.5 -3.5c-36.667 0 -70.334 6.33301 -101.001 19s-57 34.334 -79 65.001c-11.333 -26.667 -26.166 -47.334 -44.499 -62.001s-40.833 -22 -67.5 -22c-7.33301 0 -13.666 3.83301 -18.999 11.5s-8 17.167 -8 28.5
c0 10 2.66699 19 8 27s11.666 12 18.999 12c25.333 0 46.333 5.5 63 16.5s32 31.833 46 62.5zM536.998 121.996c-4.66699 35.333 -15.3311 62.832 -31.998 82.499s-37 29.5 -61 29.5c-14.667 0 -31.334 -4.5 -50.001 -13.5s-37.667 -20.667 -57 -35
s-38.5 -30.833 -57.5 -49.5s-36.5 -38 -52.5 -58c7.33301 -1.33301 16.833 -2.66602 28.5 -3.99902s23.834 -2 36.501 -2c53.333 0 101.166 4.5 143.499 13.5s76.166 21.167 101.499 36.5z" />
    <glyph glyph-name="uniFEBE" unicode="&#x636;" horiz-adv-x="898" arabic-form="final" 
d="M828 81c11.333 -3.33301 21.9961 -5.66992 31.9961 -7.00293s22.667 -2 38 -2c7.33301 0 14.166 -3.33301 20.499 -10s9.5 -16.334 9.5 -29.001s-3.16699 -22.5 -9.5 -29.5s-13.166 -10.5 -20.499 -10.5c-22.667 0 -43.167 3.66699 -61.5 11s-36.5 19.666 -54.5 36.999
c-12.667 -7.33301 -27.167 -14 -43.5 -20s-33.166 -11 -50.499 -15s-34.833 -7.16699 -52.5 -9.5s-34.167 -3.5 -49.5 -3.5c-32.667 0 -60 2.83301 -82 8.5s-40 13.167 -54 22.5v-5c0 -28 -2.5 -53.167 -7.5 -75.5s-13.5 -43.166 -25.5 -62.499
c-16 -25.333 -41.667 -47.166 -77 -65.499s-79.666 -27.5 -132.999 -27.5c-62.667 0 -108.667 16.333 -138 49s-44 77.334 -44 134.001c0 17.333 1.33301 34 4 50s6.16699 30.5 10.5 43.5s9 24 14 33s10.167 15.167 15.5 18.5l18 11
c-5.33301 -12.667 -9.33301 -28.667 -12 -48s-4 -38.666 -4 -57.999c0 -50 11.667 -87.5 35 -112.5s61 -37.5 113 -37.5c40 0 76.667 6.66699 110 20s58.666 31.666 75.999 54.999c-3.33301 38.667 -8.66602 72.334 -15.999 101.001s-16 52.667 -26 72l47 65
c7.33301 -19.333 16.166 -37.166 26.499 -53.499s22.833 -29.833 37.5 -40.5c16.667 28 36.334 55.333 59.001 82s46.334 50.5 71.001 71.5s49.834 37.833 75.501 50.5s50.167 19 73.5 19c15.333 0 30 -3.83301 44 -11.5s26.333 -18 37 -31s19.167 -28 25.5 -45
s9.5 -35.167 9.5 -54.5c0 -10.667 -3.83301 -24 -11.5 -40s-17.5 -32.667 -29.5 -50zM819.996 121.996c-4.66699 35.333 -15.332 62.832 -31.999 82.499s-37.334 29.5 -62.001 29.5c-14.667 0 -31.167 -4.5 -49.5 -13.5s-37.166 -20.667 -56.499 -35
s-38.5 -30.833 -57.5 -49.5s-36.5 -38 -52.5 -58c7.33301 -1.33301 16.833 -2.66602 28.5 -3.99902s23.834 -2 36.501 -2c53.333 0 101.166 4.5 143.499 13.5s76.166 21.167 101.499 36.5zM597.998 390.995c-10.667 4.66699 -22.499 12 -35.499 22s-23.5 20.667 -31.5 32
l49 60c8 -10.667 18.667 -21 32 -31s24.666 -17.667 33.999 -23z" />
    <glyph glyph-name="uniFEBF" unicode="&#x636;" horiz-adv-x="621" arabic-form="initial" 
d="M128 167c2 -6 5.49902 -12.6719 10.499 -20.0049s10.5 -14.666 16.5 -21.999s12.167 -14.166 18.5 -20.499s12.166 -11.166 17.499 -14.499c16.667 28 36.334 55.333 59.001 82s46.334 50.5 71.001 71.5s49.834 37.833 75.501 50.5s50.167 19 73.5 19
c15.333 0 30 -3.83301 44 -11.5s26.333 -18 37 -31s19.167 -28 25.5 -45s9.5 -35.167 9.5 -54.5c0 -11.333 -4.5 -26.166 -13.5 -44.499s-20.833 -36.833 -35.5 -55.5c-9.33301 -11.333 -22.833 -21.666 -40.5 -30.999s-37.834 -17.5 -60.501 -24.5s-46.5 -12.5 -71.5 -16.5
s-49.167 -6 -72.5 -6c-36.667 0 -70.334 6.33301 -101.001 19s-57 34.334 -79 65.001c-11.333 -26.667 -26.166 -47.334 -44.499 -62.001s-40.833 -22 -67.5 -22c-7.33301 0 -13.666 3.83301 -18.999 11.5s-8 17.167 -8 28.5c0 10 2.66699 19 8 27s11.666 12 18.999 12
c25.333 0 46.333 5.5 63 16.5s32 31.833 46 62.5zM536.999 121.995c-4.66699 35.333 -15.3311 62.832 -31.998 82.499s-37 29.5 -61 29.5c-14.667 0 -31.334 -4.5 -50.001 -13.5s-37.667 -20.667 -57 -35s-38.5 -30.833 -57.5 -49.5s-36.5 -38 -52.5 -58
c7.33301 -1.33301 16.833 -2.66602 28.5 -3.99902s23.834 -2 36.501 -2c53.333 0 101.166 4.5 143.499 13.5s76.166 21.167 101.499 36.5zM304.002 390.994c-10.667 4.66699 -22.499 12 -35.499 22s-23.5 20.667 -31.5 32l49 60c8 -10.667 18.667 -21 32 -31
s24.666 -17.667 33.999 -23z" />
    <glyph glyph-name="uniFEC0" unicode="&#x636;" horiz-adv-x="615" arabic-form="medial" 
d="M128 167c2 -6 5.49805 -12.6709 10.498 -20.0039s10.5 -14.666 16.5 -21.999s12.167 -14.166 18.5 -20.499s12.166 -11.166 17.499 -14.499c16.667 28 36.334 55.333 59.001 82s46.334 50.5 71.001 71.5s49.834 37.833 75.501 50.5s50.167 19 73.5 19
c15.333 0 30 -3.83301 44 -11.5s26.333 -18 37 -31s19.167 -28 25.5 -45s9.5 -35.167 9.5 -54.5c0 -10.667 -3.83301 -24 -11.5 -40s-17.834 -32.667 -30.501 -50c11.333 -3.33301 22.166 -5.66602 32.499 -6.99902s23.166 -2 38.499 -2
c7.33301 0 14.166 -3.33301 20.499 -10s9.5 -16.334 9.5 -29.001s-3.16699 -22.5 -9.5 -29.5s-13.166 -10.5 -20.499 -10.5c-22.667 0 -43.167 3.83301 -61.5 11.5s-36.166 20.167 -53.499 37.5c-13.333 -7.33301 -28.166 -14 -44.499 -20s-33.666 -11.167 -51.999 -15.5
s-37 -7.66602 -56 -9.99902s-37.5 -3.5 -55.5 -3.5c-36.667 0 -70.334 6.33301 -101.001 19s-57 34.334 -79 65.001c-11.333 -26.667 -26.166 -47.334 -44.499 -62.001s-40.833 -22 -67.5 -22c-7.33301 0 -13.666 3.83301 -18.999 11.5s-8 17.167 -8 28.5
c0 10 2.66699 19 8 27s11.666 12 18.999 12c25.333 0 46.333 5.5 63 16.5s32 31.833 46 62.5zM536.998 121.996c-4.66699 35.333 -15.3311 62.832 -31.998 82.499s-37 29.5 -61 29.5c-14.667 0 -31.334 -4.5 -50.001 -13.5s-37.667 -20.667 -57 -35
s-38.5 -30.833 -57.5 -49.5s-36.5 -38 -52.5 -58c7.33301 -1.33301 16.833 -2.66602 28.5 -3.99902s23.834 -2 36.501 -2c53.333 0 101.166 4.5 143.499 13.5s76.166 21.167 101.499 36.5zM304.001 390.995c-10.667 4.66699 -22.499 12 -35.499 22s-23.5 20.667 -31.5 32
l49 60c8 -10.667 18.667 -21 32 -31s24.666 -17.667 33.999 -23z" />
    <glyph glyph-name="uniFEC2" unicode="&#x637;" horiz-adv-x="572" arabic-form="final" 
d="M194 621c2 -9.33301 5.16309 -19.6641 9.49609 -30.9971s9.5 -22.333 15.5 -33s12.5 -20.5 19.5 -29.5s13.833 -16.5 20.5 -22.5l-51 -32c0 -28.667 0.5 -59.834 1.5 -93.501s1.5 -62.834 1.5 -87.501c0 -10.667 -0.333008 -22.667 -1 -36s-1.5 -26.833 -2.5 -40.5
s-2.33301 -26.334 -4 -38.001s-3.5 -21.5 -5.5 -29.5h4c16 23.333 32.833 45 50.5 65s35.834 37.5 54.501 52.5s37.834 26.667 57.501 35s39.167 12.5 58.5 12.5c15.333 0 30 -3.83301 44 -11.5s26.333 -18 37 -31s19.167 -28 25.5 -45s9.5 -35.167 9.5 -54.5
c0 -10 -3.5 -22.667 -10.5 -38s-16.167 -31 -27.5 -47c12.667 -5.33301 24.834 -9 36.501 -11s23.167 -3 34.5 -3c7.33301 0 14.166 -3.33301 20.499 -10s9.5 -16.334 9.5 -29.001s-3.16699 -22.5 -9.5 -29.5s-13.166 -10.5 -20.499 -10.5c-47.333 0 -86 15.667 -116 47
c-22 -15.333 -49.5 -27 -82.5 -35s-66.833 -12 -101.5 -12c-22 0 -44.5 1.33301 -67.5 4s-45.167 6.16699 -66.5 10.5s-41.5 9.33301 -60.5 15s-35.833 11.834 -50.5 18.501l-19 61c24 -4.66699 46.5 -8.5 67.5 -11.5s43.833 -5.5 68.5 -7.5l9 14
c1.33301 7.33301 2.33301 16.333 3 27l2 33c0.666992 11.333 1 22.5 1 33.5v28.5c0 38.667 -0.5 72.5 -1.5 101.5s-3.16699 55.833 -6.5 80.5c-3.33301 25.333 -5.83301 48.166 -7.5 68.499s-3.16699 42.5 -4.5 66.5c-3.33301 8.66699 -5.66602 20.334 -6.99902 35.001z
M179.996 78.002c7.33301 -1.33301 16.835 -2.66699 28.502 -4s23.834 -2 36.501 -2c53.333 0 101.166 4.5 143.499 13.5s76.166 21.167 101.499 36.5c-4.66699 35.333 -15.334 62.833 -32.001 82.5s-37.334 29.5 -62.001 29.5c-14.667 0 -31.167 -4.5 -49.5 -13.5
s-37.166 -20.667 -56.499 -35s-38.5 -30.833 -57.5 -49.5s-36.5 -38 -52.5 -58z" />
    <glyph glyph-name="uniFEC3" unicode="&#x637;" horiz-adv-x="488" arabic-form="initial" 
d="M108 621c2 -9.33301 5.16211 -19.6631 9.49512 -30.9961s9.5 -22.333 15.5 -33s12.5 -20.5 19.5 -29.5s14.167 -16.5 21.5 -22.5l-52 -32c0 -28.667 0.5 -59.834 1.5 -93.501s1.5 -62.834 1.5 -87.501c0 -10.667 -0.333008 -22.667 -1 -36s-1.5 -26.833 -2.5 -40.5
s-2.33301 -26.334 -4 -38.001s-3.5 -21.5 -5.5 -29.5h4c16 23.333 32.833 45 50.5 65s35.834 37.5 54.501 52.5s37.834 26.667 57.501 35s39.167 12.5 58.5 12.5c15.333 0 30 -3.83301 44 -11.5s26.333 -18 37 -31s19.167 -28 25.5 -45s9.5 -35.167 9.5 -54.5
c0 -11.333 -4.33301 -26.166 -13 -44.499s-20.667 -36.833 -36 -55.5c-9.33301 -12 -21.333 -22.833 -36 -32.5s-32.5 -17.834 -53.5 -24.501s-45.667 -11.834 -74 -15.501s-61.166 -5.5 -98.499 -5.5h-142c-7.33301 0 -13.666 3.5 -18.999 10.5s-8 17.167 -8 30.5
c0 12 2.5 21.333 7.5 28s11.5 10 19.5 10h56l11 22c0.666992 8 1.5 17.5 2.5 28.5s1.66699 22.333 2 34l1 34c0.333008 11 0.5 20.5 0.5 28.5c0 38.667 -0.5 72.5 -1.5 101.5s-3.16699 55.833 -6.5 80.5c-3.33301 25.333 -5.83301 48.166 -7.5 68.499
s-3.16699 42.5 -4.5 66.5c-3.33301 8.66699 -5.66602 20.334 -6.99902 35.001zM158.995 72.0029c53.333 0 101.169 4.49902 143.502 13.499s76.166 21.167 101.499 36.5c-4.66699 35.333 -15.334 62.833 -32.001 82.5s-37.334 29.5 -62.001 29.5
c-14.667 0 -31.167 -4.5 -49.5 -13.5s-37.166 -21 -56.499 -36s-38.5 -32.167 -57.5 -51.5s-36.167 -39.666 -51.5 -60.999h64z" />
    <glyph glyph-name="uniFEC4" unicode="&#x637;" horiz-adv-x="486" arabic-form="medial" 
d="M108 621c2 -9.33301 5.16309 -19.6631 9.49609 -30.9961s9.5 -22.333 15.5 -33s12.5 -20.5 19.5 -29.5s14.167 -16.5 21.5 -22.5l-52 -32c0 -28.667 0.5 -59.834 1.5 -93.501s1.5 -62.834 1.5 -87.501c0 -10.667 -0.333008 -22.667 -1 -36s-1.5 -26.833 -2.5 -40.5
s-2.33301 -26.334 -4 -38.001s-3.5 -21.5 -5.5 -29.5h4c16 23.333 32.833 45 50.5 65s35.834 37.5 54.501 52.5s37.834 26.667 57.501 35s39.167 12.5 58.5 12.5c15.333 0 30 -3.83301 44 -11.5s26.333 -18 37 -31s19.167 -28 25.5 -45s9.5 -35.167 9.5 -54.5
c0 -10 -3.5 -22.667 -10.5 -38s-16.167 -31 -27.5 -47c12.667 -5.33301 24.834 -9 36.501 -11s23.167 -3 34.5 -3c7.33301 0 14.166 -3.33301 20.499 -10s9.5 -16.334 9.5 -29.001s-3.16699 -22.5 -9.5 -29.5s-13.166 -10.5 -20.499 -10.5c-47.333 0 -86 15.667 -116 47
c-22 -15.333 -51.333 -27 -88 -35s-83.334 -12 -140.001 -12h-142c-7.33301 0 -13.666 3.5 -18.999 10.5s-8 17.167 -8 30.5c0 12 2.5 21.333 7.5 28s11.5 10 19.5 10h56l11 22c0.666992 8 1.5 17.5 2.5 28.5s1.66699 22.333 2 34l1 34c0.333008 11 0.5 20.5 0.5 28.5
c0 38.667 -0.5 72.5 -1.5 101.5s-3.16699 55.833 -6.5 80.5c-3.33301 25.333 -5.83301 48.166 -7.5 68.499s-3.16699 42.5 -4.5 66.5c-3.33301 8.66699 -5.66602 20.334 -6.99902 35.001zM158.996 72.0029c53.333 0 101.169 4.49902 143.502 13.499
s76.166 21.167 101.499 36.5c-4.66699 35.333 -15.334 62.833 -32.001 82.5s-37.334 29.5 -62.001 29.5c-14.667 0 -31.167 -4.5 -49.5 -13.5s-37.166 -21 -56.499 -36s-38.5 -32.167 -57.5 -51.5s-36.167 -39.666 -51.5 -60.999h64z" />
    <glyph glyph-name="uniFEC6" unicode="&#x638;" horiz-adv-x="572" arabic-form="final" 
d="M194 621c2 -9.33301 5.16309 -19.6641 9.49609 -30.9971s9.5 -22.333 15.5 -33s12.5 -20.5 19.5 -29.5s13.833 -16.5 20.5 -22.5l-51 -32c0 -28.667 0.5 -59.834 1.5 -93.501s1.5 -62.834 1.5 -87.501c0 -10.667 -0.333008 -22.667 -1 -36s-1.5 -26.833 -2.5 -40.5
s-2.33301 -26.334 -4 -38.001s-3.5 -21.5 -5.5 -29.5h4c16 23.333 32.833 45 50.5 65s35.834 37.5 54.501 52.5s37.834 26.667 57.501 35s39.167 12.5 58.5 12.5c15.333 0 30 -3.83301 44 -11.5s26.333 -18 37 -31s19.167 -28 25.5 -45s9.5 -35.167 9.5 -54.5
c0 -10 -3.5 -22.667 -10.5 -38s-16.167 -31 -27.5 -47c12.667 -5.33301 24.834 -9 36.501 -11s23.167 -3 34.5 -3c7.33301 0 14.166 -3.33301 20.499 -10s9.5 -16.334 9.5 -29.001s-3.16699 -22.5 -9.5 -29.5s-13.166 -10.5 -20.499 -10.5c-47.333 0 -86 15.667 -116 47
c-22 -15.333 -49.5 -27 -82.5 -35s-66.833 -12 -101.5 -12c-22 0 -44.5 1.33301 -67.5 4s-45.167 6.16699 -66.5 10.5s-41.5 9.33301 -60.5 15s-35.833 11.834 -50.5 18.501l-19 61c24 -4.66699 46.5 -8.5 67.5 -11.5s43.833 -5.5 68.5 -7.5l9 14
c1.33301 7.33301 2.33301 16.333 3 27l2 33c0.666992 11.333 1 22.5 1 33.5v28.5c0 38.667 -0.5 72.5 -1.5 101.5s-3.16699 55.833 -6.5 80.5c-3.33301 25.333 -5.83301 48.166 -7.5 68.499s-3.16699 42.5 -4.5 66.5c-3.33301 8.66699 -5.66602 20.334 -6.99902 35.001z
M179.996 78.002c7.33301 -1.33301 16.835 -2.66699 28.502 -4s23.834 -2 36.501 -2c53.333 0 101.166 4.5 143.499 13.5s76.166 21.167 101.499 36.5c-4.66699 35.333 -15.334 62.833 -32.001 82.5s-37.334 29.5 -62.001 29.5c-14.667 0 -31.167 -4.5 -49.5 -13.5
s-37.166 -20.667 -56.499 -35s-38.5 -30.833 -57.5 -49.5s-36.5 -38 -52.5 -58zM400.998 391.001c-10.667 4.66699 -22.499 12 -35.499 22s-23.5 20.667 -31.5 32l49 60c8 -10.667 18.667 -21 32 -31s24.666 -17.667 33.999 -23z" />
    <glyph glyph-name="uniFEC7" unicode="&#x638;" horiz-adv-x="488" arabic-form="initial" 
d="M108 621c2 -9.33301 5.16211 -19.6631 9.49512 -30.9961s9.5 -22.333 15.5 -33s12.5 -20.5 19.5 -29.5s14.167 -16.5 21.5 -22.5l-52 -32c0 -28.667 0.5 -59.834 1.5 -93.501s1.5 -62.834 1.5 -87.501c0 -10.667 -0.333008 -22.667 -1 -36s-1.5 -26.833 -2.5 -40.5
s-2.33301 -26.334 -4 -38.001s-3.5 -21.5 -5.5 -29.5h4c16 23.333 32.833 45 50.5 65s35.834 37.5 54.501 52.5s37.834 26.667 57.501 35s39.167 12.5 58.5 12.5c15.333 0 30 -3.83301 44 -11.5s26.333 -18 37 -31s19.167 -28 25.5 -45s9.5 -35.167 9.5 -54.5
c0 -11.333 -4.33301 -26.166 -13 -44.499s-20.667 -36.833 -36 -55.5c-9.33301 -12 -21.333 -22.833 -36 -32.5s-32.5 -17.834 -53.5 -24.501s-45.667 -11.834 -74 -15.501s-61.166 -5.5 -98.499 -5.5h-142c-7.33301 0 -13.666 3.5 -18.999 10.5s-8 17.167 -8 30.5
c0 12 2.5 21.333 7.5 28s11.5 10 19.5 10h56l11 22c0.666992 8 1.5 17.5 2.5 28.5s1.66699 22.333 2 34l1 34c0.333008 11 0.5 20.5 0.5 28.5c0 38.667 -0.5 72.5 -1.5 101.5s-3.16699 55.833 -6.5 80.5c-3.33301 25.333 -5.83301 48.166 -7.5 68.499
s-3.16699 42.5 -4.5 66.5c-3.33301 8.66699 -5.66602 20.334 -6.99902 35.001zM158.995 72.0029c53.333 0 101.169 4.49902 143.502 13.499s76.166 21.167 101.499 36.5c-4.66699 35.333 -15.334 62.833 -32.001 82.5s-37.334 29.5 -62.001 29.5
c-14.667 0 -31.167 -4.5 -49.5 -13.5s-37.166 -21 -56.499 -36s-38.5 -32.167 -57.5 -51.5s-36.167 -39.666 -51.5 -60.999h64zM300.998 391.002c-10.667 4.66699 -22.499 12 -35.499 22s-23.5 20.667 -31.5 32l49 60c8 -10.667 18.667 -21 32 -31
s24.666 -17.667 33.999 -23z" />
    <glyph glyph-name="uniFEC8" unicode="&#x638;" horiz-adv-x="486" arabic-form="medial" 
d="M108 621c2 -9.33301 5.16309 -19.6631 9.49609 -30.9961s9.5 -22.333 15.5 -33s12.5 -20.5 19.5 -29.5s14.167 -16.5 21.5 -22.5l-52 -32c0 -28.667 0.5 -59.834 1.5 -93.501s1.5 -62.834 1.5 -87.501c0 -10.667 -0.333008 -22.667 -1 -36s-1.5 -26.833 -2.5 -40.5
s-2.33301 -26.334 -4 -38.001s-3.5 -21.5 -5.5 -29.5h4c16 23.333 32.833 45 50.5 65s35.834 37.5 54.501 52.5s37.834 26.667 57.501 35s39.167 12.5 58.5 12.5c15.333 0 30 -3.83301 44 -11.5s26.333 -18 37 -31s19.167 -28 25.5 -45s9.5 -35.167 9.5 -54.5
c0 -10 -3.5 -22.667 -10.5 -38s-16.167 -31 -27.5 -47c12.667 -5.33301 24.834 -9 36.501 -11s23.167 -3 34.5 -3c7.33301 0 14.166 -3.33301 20.499 -10s9.5 -16.334 9.5 -29.001s-3.16699 -22.5 -9.5 -29.5s-13.166 -10.5 -20.499 -10.5c-47.333 0 -86 15.667 -116 47
c-22 -15.333 -51.333 -27 -88 -35s-83.334 -12 -140.001 -12h-142c-7.33301 0 -13.666 3.5 -18.999 10.5s-8 17.167 -8 30.5c0 12 2.5 21.333 7.5 28s11.5 10 19.5 10h56l11 22c0.666992 8 1.5 17.5 2.5 28.5s1.66699 22.333 2 34l1 34c0.333008 11 0.5 20.5 0.5 28.5
c0 38.667 -0.5 72.5 -1.5 101.5s-3.16699 55.833 -6.5 80.5c-3.33301 25.333 -5.83301 48.166 -7.5 68.499s-3.16699 42.5 -4.5 66.5c-3.33301 8.66699 -5.66602 20.334 -6.99902 35.001zM158.996 72.0029c53.333 0 101.169 4.49902 143.502 13.499
s76.166 21.167 101.499 36.5c-4.66699 35.333 -15.334 62.833 -32.001 82.5s-37.334 29.5 -62.001 29.5c-14.667 0 -31.167 -4.5 -49.5 -13.5s-37.166 -21 -56.499 -36s-38.5 -32.167 -57.5 -51.5s-36.167 -39.666 -51.5 -60.999h64zM300.999 391.002
c-10.667 4.66699 -22.499 12 -35.499 22s-23.5 20.667 -31.5 32l49 60c8 -10.667 18.667 -21 32 -31s24.666 -17.667 33.999 -23z" />
    <glyph glyph-name="uniFECA" unicode="&#x639;" arabic-form="final" 
d="M168 211c21.333 6.66699 40.5049 11.666 57.5049 14.999s36.833 5 59.5 5c20 0 37.333 -3.16699 52 -9.5s22 -14.5 22 -24.5c0 -14.667 -4 -31 -12 -49s-21.667 -36.667 -41 -56c12 -6 31 -10.833 57 -14.5s58.333 -5.5 97 -5.5c7.33301 0 14.166 -3.33301 20.499 -10
s9.5 -16.334 9.5 -29.001s-3.16699 -22.5 -9.5 -29.5s-13.166 -10.5 -20.499 -10.5c-22.667 0 -43.5 1.33301 -62.5 4s-36.333 7 -52 13s-30.334 13.833 -44.001 23.5s-27.834 21.167 -42.501 34.5c-42 -18 -75.833 -42 -101.5 -72s-38.5 -65.333 -38.5 -106
c0 -21.333 4.33301 -41.5 13 -60.5s21.667 -35.5 39 -49.5s39.166 -25.167 65.499 -33.5s57.166 -12.5 92.499 -12.5c28 0 53.5 1.83301 76.5 5.5s49.167 10.834 78.5 21.501l-3 -17c-1.33301 -7.33301 -7.66602 -16.333 -18.999 -27s-26 -20.834 -44 -30.501
s-38.833 -18 -62.5 -25s-48.5 -10.5 -74.5 -10.5c-68.667 0 -121.834 18.333 -159.501 55s-56.5 86.334 -56.5 149.001c0 24.667 4.33301 49.334 13 74.001s20.5 48 35.5 70s32.167 42 51.5 60s40 32.667 62 44c-6 9.33301 -15.833 18.5 -29.5 27.5
s-28.834 16.833 -45.501 23.5z" />
    <glyph glyph-name="uniFECB" unicode="&#x639;" horiz-adv-x="426" arabic-form="initial" 
d="M381 107c-49.333 -34.667 -106.833 -62.3311 -172.5 -82.998s-135.167 -31 -208.5 -31c-7.33301 0 -13.666 3.5 -18.999 10.5s-8 17.167 -8 30.5c0 12.667 2.66699 22.167 8 28.5s11.666 9.5 18.999 9.5c40 0 72.333 1 97 3s46 5.33301 64 10
c-36 11.333 -64.333 29.333 -85 54s-31 53.667 -31 87c0 16.667 4.16699 34.667 12.5 54s19.666 37.333 33.999 54s30.833 30.334 49.5 41.001s38.334 16 59.001 16c21.333 0 40.166 -7.16699 56.499 -21.5s35.166 -38.166 56.499 -71.499l-15 -13
c-14.667 11.333 -27.667 19.166 -39 23.499s-25.666 6.5 -42.999 6.5c-10.667 0 -22.167 -1.33301 -34.5 -4s-24.333 -6.33398 -36 -11.001s-22.834 -9.83398 -33.501 -15.501s-20 -11.834 -28 -18.501c4.66699 -17.333 12.334 -33.666 23.001 -48.999
s23.5 -29.5 38.5 -42.5s31.667 -24.5 50 -34.5s37.5 -18.333 57.5 -25c22.667 7.33301 46.334 16.666 71.001 27.999s48.667 24 72 38z" />
    <glyph glyph-name="uniFECC" unicode="&#x639;" horiz-adv-x="378" arabic-form="medial" 
d="M154 95c-7.33301 13.333 -17.8291 24.833 -31.4961 34.5s-28.834 17.834 -45.501 24.501l16 57c21.333 6.66699 40.5 11.667 57.5 15s36.833 5 59.5 5c20 0 37.333 -3.16699 52 -9.5s22 -14.5 22 -24.5c0 -14.667 -4 -31 -12 -49s-21.667 -36.667 -41 -56
c12 -5.33301 29 -10 51 -14s54 -6 96 -6c7.33301 0 14.166 -3.33301 20.499 -10s9.5 -16.334 9.5 -29.001s-3.16699 -22.5 -9.5 -29.5s-13.166 -10.5 -20.499 -10.5c-22.667 0 -42.834 1.33301 -60.501 4s-33.834 6.5 -48.501 11.5s-28.167 11.167 -40.5 18.5
s-24.166 16 -35.499 26c-56 -40 -120.333 -60 -193 -60c-6.66699 0 -12.834 2.83301 -18.501 8.5s-8.5 15.5 -8.5 29.5c0 12.667 2.5 22.667 7.5 30s11.5 11 19.5 11c35.333 0 66.166 2 92.499 6s46.833 9.66699 61.5 17z" />
    <glyph glyph-name="uniFECE" unicode="&#x63a;" arabic-form="final" 
d="M168 211c21.333 6.66699 40.5049 11.666 57.5049 14.999s36.833 5 59.5 5c20 0 37.333 -3.16699 52 -9.5s22 -14.5 22 -24.5c0 -14.667 -4 -31 -12 -49s-21.667 -36.667 -41 -56c12 -6 31 -10.833 57 -14.5s58.333 -5.5 97 -5.5c7.33301 0 14.166 -3.33301 20.499 -10
s9.5 -16.334 9.5 -29.001s-3.16699 -22.5 -9.5 -29.5s-13.166 -10.5 -20.499 -10.5c-22.667 0 -43.5 1.33301 -62.5 4s-36.333 7 -52 13s-30.334 13.833 -44.001 23.5s-27.834 21.167 -42.501 34.5c-42 -18 -75.833 -42 -101.5 -72s-38.5 -65.333 -38.5 -106
c0 -21.333 4.33301 -41.5 13 -60.5s21.667 -35.5 39 -49.5s39.166 -25.167 65.499 -33.5s57.166 -12.5 92.499 -12.5c28 0 53.5 1.83301 76.5 5.5s49.167 10.834 78.5 21.501l-3 -17c-1.33301 -7.33301 -7.66602 -16.333 -18.999 -27s-26 -20.834 -44 -30.501
s-38.833 -18 -62.5 -25s-48.5 -10.5 -74.5 -10.5c-68.667 0 -121.834 18.333 -159.501 55s-56.5 86.334 -56.5 149.001c0 24.667 4.33301 49.334 13 74.001s20.5 48 35.5 70s32.167 42 51.5 60s40 32.667 62 44c-6 9.33301 -15.833 18.5 -29.5 27.5
s-28.834 16.833 -45.501 23.5zM275.005 289.999c-10.667 4.66699 -22.499 12 -35.499 22s-23.5 20.667 -31.5 32l49 60c8 -10.667 18.667 -21 32 -31s24.666 -17.667 33.999 -23z" />
    <glyph glyph-name="uniFECF" unicode="&#x63a;" horiz-adv-x="426" arabic-form="initial" 
d="M381 107c-49.333 -34.667 -106.833 -62.3311 -172.5 -82.998s-135.167 -31 -208.5 -31c-7.33301 0 -13.666 3.5 -18.999 10.5s-8 17.167 -8 30.5c0 12.667 2.66699 22.167 8 28.5s11.666 9.5 18.999 9.5c40 0 72.333 1 97 3s46 5.33301 64 10
c-36 11.333 -64.333 29.333 -85 54s-31 53.667 -31 87c0 16.667 4.16699 34.667 12.5 54s19.666 37.333 33.999 54s30.833 30.334 49.5 41.001s38.334 16 59.001 16c21.333 0 40.166 -7.16699 56.499 -21.5s35.166 -38.166 56.499 -71.499l-15 -13
c-14.667 11.333 -27.667 19.166 -39 23.499s-25.666 6.5 -42.999 6.5c-10.667 0 -22.167 -1.33301 -34.5 -4s-24.333 -6.33398 -36 -11.001s-22.834 -9.83398 -33.501 -15.501s-20 -11.834 -28 -18.501c4.66699 -17.333 12.334 -33.666 23.001 -48.999
s23.5 -29.5 38.5 -42.5s31.667 -24.5 50 -34.5s37.5 -18.333 57.5 -25c22.667 7.33301 46.334 16.666 71.001 27.999s48.667 24 72 38zM191 457.003c-10.667 4.66699 -22.499 12 -35.499 22s-23.5 20.667 -31.5 32l49 60c8 -10.667 18.667 -21 32 -31
s24.666 -17.667 33.999 -23z" />
    <glyph glyph-name="uniFED0" unicode="&#x63a;" horiz-adv-x="378" arabic-form="medial" 
d="M154 95c-7.33301 13.333 -17.8291 24.833 -31.4961 34.5s-28.834 17.834 -45.501 24.501l16 57c21.333 6.66699 40.5 11.667 57.5 15s36.833 5 59.5 5c20 0 37.333 -3.16699 52 -9.5s22 -14.5 22 -24.5c0 -14.667 -4 -31 -12 -49s-21.667 -36.667 -41 -56
c12 -5.33301 29 -10 51 -14s54 -6 96 -6c7.33301 0 14.166 -3.33301 20.499 -10s9.5 -16.334 9.5 -29.001s-3.16699 -22.5 -9.5 -29.5s-13.166 -10.5 -20.499 -10.5c-22.667 0 -42.834 1.33301 -60.501 4s-33.834 6.5 -48.501 11.5s-28.167 11.167 -40.5 18.5
s-24.166 16 -35.499 26c-56 -40 -120.333 -60 -193 -60c-6.66699 0 -12.834 2.83301 -18.501 8.5s-8.5 15.5 -8.5 29.5c0 12.667 2.5 22.667 7.5 30s11.5 11 19.5 11c35.333 0 66.166 2 92.499 6s46.833 9.66699 61.5 17zM195.004 290
c-10.667 4.66699 -22.499 12 -35.499 22s-23.5 20.667 -31.5 32l49 60c8 -10.667 18.667 -21 32 -31s24.666 -17.667 33.999 -23z" />
    <glyph glyph-name="uniFED2" unicode="&#x641;" horiz-adv-x="846" arabic-form="final" 
d="M79 256c-1.33301 -3.33301 -2.16797 -7.16504 -2.50098 -11.498s-0.833008 -8.83301 -1.5 -13.5s-1.16699 -9 -1.5 -13s-0.5 -7.33301 -0.5 -10c0 -30 4.5 -54.833 13.5 -74.5s23.667 -35.5 44 -47.5s46.5 -20.5 78.5 -25.5s71 -7.5 117 -7.5
c54.667 0 105.834 3.16699 153.501 9.5s86.167 14.833 115.5 25.5c-10.667 12.667 -19.167 27.667 -25.5 45s-9.5 34 -9.5 50c0 20 3.83301 39.333 11.5 58s17.5 35 29.5 49s25.167 25.333 39.5 34s28.166 13 41.499 13c11.333 0 23 -3.66699 35 -11
s22.833 -17.333 32.5 -30s17.5 -27.5 23.5 -44.5s9 -35.5 9 -55.5c0 -17.333 -5.16699 -36.166 -15.5 -56.499s-23.166 -37.833 -38.499 -52.5c13.333 -3.33301 28.333 -6.66602 45 -9.99902s39 -5 67 -5c7.33301 0 14.166 -3.33301 20.499 -10s9.5 -16.334 9.5 -29.001
s-3.16699 -22.5 -9.5 -29.5s-13.166 -10.5 -20.499 -10.5c-36 0 -70.5 4.33301 -103.5 13s-62.5 19.667 -88.5 33c-86 -46 -201 -69 -345 -69c-50 0 -92.333 3 -127 9s-62.667 15.667 -84 29s-36.833 30.666 -46.5 51.999s-14.5 47.666 -14.5 78.999
c0 25.333 3 48.166 9 68.499s12.667 32.833 20 37.5zM664.998 109.001c17.333 9.33301 33.833 21.3311 49.5 35.998s26.5 28 32.5 40c-2.66699 10 -6.66699 19.833 -12 29.5s-11.5 18.334 -18.5 26.001s-14.667 13.834 -23 18.501s-16.5 7 -24.5 7
c-4.66699 0 -10.5 -2 -17.5 -6s-14.167 -9.16699 -21.5 -15.5s-14.333 -13.5 -21 -21.5s-11.667 -16.333 -15 -25c2 -20 10 -38 24 -54s29.667 -27.667 47 -35zM678.998 390.999c-10.667 4.66699 -22.499 12 -35.499 22s-23.5 20.667 -31.5 32l49 60
c8 -10.667 18.667 -21 32 -31s24.666 -17.667 33.999 -23z" />
    <glyph glyph-name="uniFED3" unicode="&#x641;" horiz-adv-x="306" arabic-form="initial" 
d="M231 124c-1.33301 12 -2.50195 23.499 -3.50195 34.499s-2.16699 20.167 -3.5 27.5c-9.33301 -11.333 -21.666 -20.833 -36.999 -28.5s-30.333 -11.5 -45 -11.5c-15.333 0 -29.666 2.83301 -42.999 8.5s-24.833 13.667 -34.5 24s-17.334 22.5 -23.001 36.5
s-8.5 29.333 -8.5 46c0 15.333 2.83301 31 8.5 47s13.334 30.5 23.001 43.5s20.667 23.667 33 32s25.5 12.5 39.5 12.5c16 0 32 -5.66699 48 -17s30.333 -27 43 -47s23 -43.667 31 -71s12 -57 12 -89c0 -30 -3 -53.833 -9 -71.5s-15.667 -32.167 -29 -43.5
c-25.333 -21.333 -57.5 -37.333 -96.5 -48s-84.5 -16 -136.5 -16c-7.33301 0 -13.666 3.5 -18.999 10.5s-8 16.833 -8 29.5s2.66699 22.334 8 29.001s11.666 10 18.999 10c51.333 0 96.833 4.33301 136.5 13s71.167 21.667 94.5 39zM66.998 261.999
c7.33301 -15.333 18.165 -26.667 32.498 -34s30.833 -11 49.5 -11c12 0 24.333 1.66699 37 5s21.667 7 27 11c-4.66699 28 -15.167 49.667 -31.5 65s-32.833 23 -49.5 23c-15.333 0 -28.666 -5.5 -39.999 -16.5s-19.666 -25.167 -24.999 -42.5zM134.997 450.998
c-10.667 4.66699 -22.499 12 -35.499 22s-23.5 20.667 -31.5 32l49 60c8 -10.667 18.667 -21 32 -31s24.666 -17.667 33.999 -23z" />
    <glyph glyph-name="uniFED4" unicode="&#x641;" horiz-adv-x="356" arabic-form="medial" 
d="M107 85c-11.333 12.667 -20.498 28.166 -27.498 46.499s-10.5 35.5 -10.5 51.5c0 12 1.16699 23.167 3.5 33.5s6.5 21.833 12.5 34.5c12 25.333 27.5 46 46.5 62s38.833 24 59.5 24c11.333 0 23.166 -3.66699 35.499 -11s23.5 -17.333 33.5 -30s18.167 -27.5 24.5 -44.5
s9.5 -35.5 9.5 -55.5c0 -17.333 -5.66699 -36.166 -17 -56.499s-24.666 -37.833 -39.999 -52.5c13.333 -3.33301 29.5 -6.66602 48.5 -9.99902s42.5 -5 70.5 -5c7.33301 0 14.166 -3.33301 20.499 -10s9.5 -16.334 9.5 -29.001s-3.16699 -22.5 -9.5 -29.5
s-13.166 -10.5 -20.499 -10.5c-72 0 -134.667 13.333 -188 40c-23.333 -12 -48.666 -21.667 -75.999 -29s-58 -11 -92 -11c-8.66699 0 -15.334 3.5 -20.001 10.5s-7 16.5 -7 28.5c0 10.667 2.5 20 7.5 28s11.5 12 19.5 12c23.333 0 44.166 1.33301 62.499 4
s33.166 5.66699 44.499 9zM174.002 108.999c8.66699 4.66699 17.334 9.99805 26.001 15.998s16.834 12.5 24.501 19.5s14.5 14 20.5 21s10.667 13.5 14 19.5c-2.66699 10 -6.83398 19.833 -12.501 29.5s-12.334 18.334 -20.001 26.001s-15.667 13.834 -24 18.501
s-16.5 7 -24.5 7c-4.66699 0 -10.5 -2 -17.5 -6s-14.167 -9.16699 -21.5 -15.5s-14.333 -13.5 -21 -21.5s-11.667 -16.333 -15 -25c2 -20 10 -38 24 -54s29.667 -27.667 47 -35zM186.002 390.997c-10.667 4.66699 -22.499 12 -35.499 22s-23.5 20.667 -31.5 32l49 60
c8 -10.667 18.667 -21 32 -31s24.666 -17.667 33.999 -23z" />
    <glyph glyph-name="uniFED6" unicode="&#x642;" horiz-adv-x="528" arabic-form="final" 
d="M97 109c-5.33301 -12.667 -9.33398 -28.499 -12.001 -47.499s-4 -38.167 -4 -57.5c0 -23.333 3 -44.166 9 -62.499s15.667 -34 29 -47s30.5 -23 51.5 -30s46.833 -10.5 77.5 -10.5c46.667 0 87.5 6 122.5 18s63.167 27.667 84.5 47c0.666992 4 1.16699 9.5 1.5 16.5l1 21
l1 20.5c0.333008 6.66699 0.5 12 0.5 16c-29.333 0 -55 3.5 -77 10.5s-40.333 16.167 -55 27.5s-25.5 24.166 -32.5 38.499s-10.5 28.833 -10.5 43.5c0 15.333 2.83301 31 8.5 47s13.334 30.5 23.001 43.5s20.5 23.5 32.5 31.5s24.333 12 37 12
c13.333 0 26.666 -4.5 39.999 -13.5s25.333 -21.333 36 -37s19.667 -34.167 27 -55.5s11.666 -44.333 12.999 -69h27c7.33301 0 14.166 -3.33301 20.499 -10s9.5 -16.334 9.5 -29.001s-3.16699 -22.5 -9.5 -29.5s-13.166 -10.5 -20.499 -10.5h-27
c-0.666992 -20 -2 -37.167 -4 -51.5s-5 -27.166 -9 -38.499s-9.33301 -21.666 -16 -30.999s-15 -19 -25 -29c-20.667 -20.667 -49.667 -37.834 -87 -51.501s-81.666 -20.5 -132.999 -20.5c-65.333 0 -113.666 16.667 -144.999 50s-47 77.666 -47 132.999
c0 16.667 1.33301 33 4 49s6.16699 30.667 10.5 44s9 24.5 14 33.5s10.167 15.167 15.5 18.5zM314.999 116.001c7.33301 -12.667 21.667 -23.167 43 -31.5s44 -12.5 68 -12.5h34c-4.66699 28.667 -14.5 52.5 -29.5 71.5s-32.167 28.5 -51.5 28.5
c-14 0 -27.167 -5.66699 -39.5 -17s-20.5 -24.333 -24.5 -39zM434 297.001c-9.33301 4 -19.499 10 -30.499 18s-20.5 16.333 -28.5 25l-34 -50c-10.667 4.66699 -22.5 11.5 -35.5 20.5s-23.5 19.167 -31.5 30.5l46 61c6.66699 -8.66699 15 -17.667 25 -27
s19.667 -16.666 29 -21.999l39 56c8.66699 -10 19.667 -19.833 33 -29.5s24.666 -16.834 33.999 -21.501z" />
    <glyph glyph-name="uniFED7" unicode="&#x642;" horiz-adv-x="306" arabic-form="initial" 
d="M231 124c-1.33301 12 -2.50195 23.499 -3.50195 34.499s-2.16699 20.167 -3.5 27.5c-9.33301 -11.333 -21.666 -20.833 -36.999 -28.5s-30.333 -11.5 -45 -11.5c-15.333 0 -29.666 2.83301 -42.999 8.5s-24.833 13.667 -34.5 24s-17.334 22.5 -23.001 36.5
s-8.5 29.333 -8.5 46c0 15.333 2.83301 31 8.5 47s13.334 30.5 23.001 43.5s20.667 23.667 33 32s25.5 12.5 39.5 12.5c16 0 32 -5.66699 48 -17s30.333 -27 43 -47s23 -43.667 31 -71s12 -57 12 -89c0 -30 -3 -53.833 -9 -71.5s-15.667 -32.167 -29 -43.5
c-25.333 -21.333 -57.5 -37.333 -96.5 -48s-84.5 -16 -136.5 -16c-7.33301 0 -13.666 3.5 -18.999 10.5s-8 16.833 -8 29.5s2.66699 22.334 8 29.001s11.666 10 18.999 10c51.333 0 96.833 4.33301 136.5 13s71.167 21.667 94.5 39zM66.998 261.999
c7.33301 -15.333 18.165 -26.667 32.498 -34s30.833 -11 49.5 -11c12 0 24.333 1.66699 37 5s21.667 7 27 11c-4.66699 28 -15.167 49.667 -31.5 65s-32.833 23 -49.5 23c-15.333 0 -28.666 -5.5 -39.999 -16.5s-19.666 -25.167 -24.999 -42.5zM175.997 451.998
c-9.33301 4 -19.499 10 -30.499 18s-20.5 16.333 -28.5 25l-34 -50c-10.667 4.66699 -22.5 11.5 -35.5 20.5s-23.5 19.167 -31.5 30.5l46 61c6.66699 -8.66699 15 -17.667 25 -27s19.667 -16.666 29 -21.999l39 56c8.66699 -10 19.667 -19.833 33 -29.5
s24.666 -16.834 33.999 -21.501z" />
    <glyph glyph-name="uniFED8" unicode="&#x642;" horiz-adv-x="356" arabic-form="medial" 
d="M107 85c-11.333 12.667 -20.498 28.166 -27.498 46.499s-10.5 35.5 -10.5 51.5c0 12 1.16699 23.167 3.5 33.5s6.5 21.833 12.5 34.5c12 25.333 27.5 46 46.5 62s38.833 24 59.5 24c11.333 0 23.166 -3.66699 35.499 -11s23.5 -17.333 33.5 -30s18.167 -27.5 24.5 -44.5
s9.5 -35.5 9.5 -55.5c0 -17.333 -5.66699 -36.166 -17 -56.499s-24.666 -37.833 -39.999 -52.5c13.333 -3.33301 29.5 -6.66602 48.5 -9.99902s42.5 -5 70.5 -5c7.33301 0 14.166 -3.33301 20.499 -10s9.5 -16.334 9.5 -29.001s-3.16699 -22.5 -9.5 -29.5
s-13.166 -10.5 -20.499 -10.5c-72 0 -134.667 13.333 -188 40c-23.333 -12 -48.666 -21.667 -75.999 -29s-58 -11 -92 -11c-8.66699 0 -15.334 3.5 -20.001 10.5s-7 16.5 -7 28.5c0 10.667 2.5 20 7.5 28s11.5 12 19.5 12c23.333 0 44.166 1.33301 62.499 4
s33.166 5.66699 44.499 9zM174.002 108.999c8.66699 4.66699 17.334 9.99805 26.001 15.998s16.834 12.5 24.501 19.5s14.5 14 20.5 21s10.667 13.5 14 19.5c-2.66699 10 -6.83398 19.833 -12.501 29.5s-12.334 18.334 -20.001 26.001s-15.667 13.834 -24 18.501
s-16.5 7 -24.5 7c-4.66699 0 -10.5 -2 -17.5 -6s-14.167 -9.16699 -21.5 -15.5s-14.333 -13.5 -21 -21.5s-11.667 -16.333 -15 -25c2 -20 10 -38 24 -54s29.667 -27.667 47 -35zM237.002 397.997c-9.33301 4 -19.499 10 -30.499 18s-20.5 16.333 -28.5 25l-34 -50
c-10.667 4.66699 -22.5 11.5 -35.5 20.5s-23.5 19.167 -31.5 30.5l46 61c6.66699 -8.66699 15 -17.667 25 -27s19.667 -16.666 29 -21.999l39 56c8.66699 -10 19.667 -19.833 33 -29.5s24.666 -16.834 33.999 -21.501z" />
    <glyph glyph-name="uniFEDA" unicode="&#x643;" horiz-adv-x="606" arabic-form="final" 
d="M84 232c-2 -8 -3.66602 -16.998 -4.99902 -26.998s-2 -20.667 -2 -32c0 -40 10.833 -71 32.5 -93s55.167 -33 100.5 -33c28 0 55 2 81 6s50.5 9.66699 73.5 17s43.833 15.666 62.5 24.999s34.667 19.666 48 30.999c0 104 -0.833008 191 -2.5 261s-5.5 129.333 -11.5 178
l59 56c2 -23.333 3.83301 -49.5 5.5 -78.5s3 -60.167 4 -93.5s1.66699 -68.166 2 -104.499s0.5 -73.166 0.5 -110.499c0 -36 1.5 -64.833 4.5 -86.5s7.66699 -38 14 -49s14.166 -18.167 23.499 -21.5s20 -5 32 -5c7.33301 0 14.166 -3.33301 20.499 -10
s9.5 -16.334 9.5 -29.001s-3.16699 -22.5 -9.5 -29.5s-13.166 -10.5 -20.499 -10.5c-38 0 -67.333 8.16699 -88 24.5s-33.667 43.5 -39 81.5l-24 -58c-26 -21.333 -62 -39.5 -108 -54.5s-98.333 -22.5 -157 -22.5c-48 0 -85.833 12.833 -113.5 38.5s-41.5 63.5 -41.5 113.5
c0 25.333 3 48.166 9 68.499s13 32.833 21 37.5zM161.001 192.002l0.00195312 4.00195c32.667 4.66699 58.667 8.66699 78 12s34.166 6.16602 44.499 8.49902s17 4 20 5s4.5 2.16699 4.5 3.5c0 2 -2.83301 5.33301 -8.5 10s-17.5 12.667 -35.5 24
c-9.33301 6 -16.5 10.833 -21.5 14.5s-8.66699 7 -11 10s-3.83301 5.5 -4.5 7.5s-1 4.33301 -1 7c0 7.33301 2.33301 16.666 7 27.999c11.333 25.333 29 45.833 53 61.5s48.667 23.5 74 23.5l-22 -50c-30 -4.66699 -50.833 -10.834 -62.5 -18.501s-17.5 -14.5 -17.5 -20.5
c0 -3.33301 3.16699 -6.83301 9.5 -10.5s17.166 -10.5 32.499 -20.5c18.667 -12 31.167 -21.167 37.5 -27.5s9.5 -13.166 9.5 -20.499c0 -16 -6.5 -30.833 -19.5 -44.5s-33.5 -22.5 -61.5 -26.5l-55 -8z" />
    <glyph glyph-name="uniFEDB" unicode="&#x643;" horiz-adv-x="439" arabic-form="initial" 
d="M377 548l-335.003 -146.005c32.667 -23.333 62 -46.666 88 -69.999s48 -45.833 66 -67.5s31.667 -42.167 41 -61.5s14 -36 14 -50c0 -4.66699 -0.666992 -11.167 -2 -19.5s-3.66602 -17.166 -6.99902 -26.499s-7.66602 -18.666 -12.999 -27.999
s-11.666 -17.666 -18.999 -24.999c-9.33301 -9.33301 -20 -17.666 -32 -24.999s-26.167 -13.666 -42.5 -18.999s-35.5 -9.5 -57.5 -12.5s-48 -4.5 -78 -4.5c-8 0 -14.5 3.33301 -19.5 10s-7.5 16.667 -7.5 30s2.5 23.166 7.5 29.499s11.5 9.5 19.5 9.5
c30.667 0 57.167 1 79.5 3s41.666 5.16699 57.999 9.5s30.5 9.83301 42.5 16.5s23.333 14.334 34 23.001c-16.667 31.333 -37.167 61 -61.5 89s-50.833 51.667 -79.5 71l-19 -32c-19.333 24 -33.166 46.5 -41.499 67.5s-12.5 40.5 -12.5 58.5
c-0 22.667 3.83301 41.667 11.5 57s22.167 27.666 43.5 36.999l354 162z" />
    <glyph glyph-name="uniFEDC" unicode="&#x643;" horiz-adv-x="411" arabic-form="medial" 
d="M364 569l-321.999 -145.001l194 -225c22.667 -26 42.667 -47.333 60 -64s32.666 -29.667 45.999 -39s25.5 -15.666 36.5 -18.999s21.833 -5 32.5 -5c7.33301 0 14.166 -3.33301 20.499 -10s9.5 -16.334 9.5 -29.001s-3.16699 -22.5 -9.5 -29.5
s-13.166 -10.5 -20.499 -10.5c-21.333 0 -40.833 2.5 -58.5 7.5s-35.167 13.667 -52.5 26s-35.666 28.666 -54.999 48.999s-41 45.5 -65 75.5c-1.33301 -15.333 -4.83301 -31.333 -10.5 -48s-13.834 -32.667 -24.501 -48c-13.333 -19.333 -31.666 -34.5 -54.999 -45.5
s-53.333 -16.5 -90 -16.5c-8.66699 0 -15.334 3.5 -20.001 10.5s-7 16.167 -7 27.5c0 12 2.5 21.833 7.5 29.5s11.5 11.5 19.5 11.5c36.667 0 66.667 5.16699 90 15.5s40.333 23.5 51 39.5c-1.33301 14.667 -3.83301 28.834 -7.5 42.501s-8.66699 27.167 -15 40.5
s-14.333 27.166 -24 41.499s-21.167 29.833 -34.5 46.5c-20 24.667 -35 45.5 -45 62.5s-15 33.167 -15 48.5c0 12.667 1.16699 23.334 3.5 32.001s5.83301 16.167 10.5 22.5s10.5 11.833 17.5 16.5s15.167 9.33398 24.5 14.001l340 161z" />
    <glyph glyph-name="uniFEDE" unicode="&#x644;" horiz-adv-x="510" arabic-form="final" 
d="M87 79c-3.33301 -9.33301 -5.83301 -19.666 -7.5 -30.999s-2.5 -25.666 -2.5 -42.999c0 -37.333 9.33301 -65.333 28 -84s45 -28 79 -28c38.667 0 75.5 4.33301 110.5 13s64.167 21.334 87.5 38.001c0 80 -0.833008 149.333 -2.5 208s-3.83398 112 -6.50098 160l-5.5 127
c-1.66699 40 -2.5 82 -2.5 126l68 56v-423c0 -48 5.83301 -81 17.5 -99s31.5 -27 59.5 -27c7.33301 0 14.166 -3.33301 20.499 -10s9.5 -16.334 9.5 -29.001s-3.16699 -22.5 -9.5 -29.5s-13.166 -10.5 -20.499 -10.5c-22 0 -39.333 4.16699 -52 12.5
s-22.667 20.166 -30 35.499c0 -14 -0.5 -29.833 -1.5 -47.5s-3.5 -35.5 -7.5 -53.5c-4 -20 -13.833 -38 -29.5 -54s-34.667 -29.667 -57 -41s-46.666 -20 -72.999 -26s-52.166 -9 -77.499 -9c-48 0 -84.5 13 -109.5 39s-37.5 63.667 -37.5 113
c0 25.333 3.66699 48.166 11 68.499s14.666 32.833 21.999 37.5z" />
    <glyph glyph-name="uniFEDF" unicode="&#x644;" horiz-adv-x="214" arabic-form="initial" 
d="M113 621c2 -9.33301 5.33008 -19.665 9.99707 -30.998s10 -22.166 16 -32.499s12.333 -20.166 19 -29.499s13.667 -16.666 21 -21.999l-52 -33c0.666992 -24 1.66699 -50 3 -78l4 -84c1.33301 -28 3.16602 -54.833 5.49902 -80.5s3.5 -47.834 3.5 -66.501
c0 -19.333 -1.83301 -40 -5.5 -62s-10.834 -41.667 -21.501 -59c-11.333 -17.333 -26.666 -30 -45.999 -38s-42.666 -12 -69.999 -12c-7.33301 0 -13.666 3.66699 -18.999 11s-8 17 -8 29c0 11.333 2.5 20.666 7.5 27.999s11.5 11 19.5 11c40 0 70.333 5.66699 91 17
c0 30.667 -1.5 65.667 -4.5 105s-6.16699 78.333 -9.5 117c-4.66699 46 -8.66699 88.667 -12 128s-5.66602 71.666 -6.99902 96.999c-1.33301 5.33301 -2.66602 11.166 -3.99902 17.499s-2 12.166 -2 17.499z" />
    <glyph glyph-name="uniFEE0" unicode="&#x644;" horiz-adv-x="230" arabic-form="medial" 
d="M91 136c-0.666992 51.333 -1.33398 97.999 -2.00098 139.999s-1.5 80.333 -2.5 115s-2.5 66.334 -4.5 95.001s-4.33301 55 -7 79l57 56c2.66699 -23.333 4.83398 -50 6.50098 -80s3 -62 4 -96s1.66699 -69 2 -105s0.5 -71.333 0.5 -106c0 -36 1.5 -64.833 4.5 -86.5
s7.66699 -38 14 -49s15.333 -18.167 27 -21.5s24.834 -5 39.501 -5c7.33301 0 14 -3.33301 20 -10s9 -16.334 9 -29.001s-3 -22.5 -9 -29.5s-12.667 -10.5 -20 -10.5c-74 0 -117 31.333 -129 94c-10 -32.667 -24.333 -56.5 -43 -71.5s-38 -22.5 -58 -22.5
c-8 0 -14.5 3.33301 -19.5 10s-7.5 16.334 -7.5 29.001c0 11.333 2.66699 20.833 8 28.5s11.666 11.5 18.999 11.5c19.333 0 36.5 4.33301 51.5 13s28.167 25.667 39.5 51z" />
    <glyph glyph-name="uniFEE2" unicode="&#x645;" horiz-adv-x="455" arabic-form="final" 
d="M99 -361c-1.33301 14 -2.83203 26.6699 -4.49902 38.0029s-4 24.333 -7 39s-7 32.167 -12 52.5l-19.5 77.5l-15.5 67c-4.33301 19.333 -6.5 35.666 -6.5 48.999c0 19.333 5.66699 43 17 71s26 54.833 44 80.5s38.5 47.5 61.5 65.5s46.5 27 70.5 27
c20 0 38 -4.66699 54 -14s34.667 -25.666 56 -48.999c13.333 -14.667 25.166 -26.5 35.499 -35.5s20 -16.167 29 -21.5s17.667 -9 26 -11s17.5 -3 27.5 -3c7.33301 0 14.166 -3.33301 20.499 -10s9.5 -16.334 9.5 -29.001s-3.16699 -22.5 -9.5 -29.5
s-13.166 -10.5 -20.499 -10.5c-20 0 -37.167 3.16699 -51.5 9.5s-27.166 15.166 -38.499 26.499c-8 -34.667 -22 -62.5 -42 -83.5s-41.667 -31.5 -65 -31.5c-30.667 0 -57 13.333 -79 40s-37.333 64 -46 112l-14 -16c-5.33301 -6 -10.333 -12 -15 -18
s-8.83398 -11.833 -12.501 -17.5s-6.5 -10.5 -8.5 -14.5c3.33301 -23.333 7.83301 -48.5 13.5 -75.5l18.5 -89.5c5.33301 -25.333 9.5 -49.333 12.5 -72s4.5 -42.334 4.5 -59.001c0 -16 -0.666992 -29 -2 -39s-5.33301 -20.667 -12 -32zM338.001 49.0029
c-24.667 32 -45.667 53.6689 -63 65.002s-34.333 17 -51 17c-12 0 -23.667 -3.33301 -35 -10s-21.333 -15.334 -30 -26.001c10 -33.333 24.167 -59.333 42.5 -78s38.833 -28 61.5 -28c18.667 0 34.5 6.16699 47.5 18.5s22.167 26.166 27.5 41.499z" />
    <glyph glyph-name="uniFEE3" unicode="&#x645;" horiz-adv-x="390" arabic-form="initial" 
d="M115 60c-14 -21.333 -31.165 -37.835 -51.498 -49.502s-41.5 -17.5 -63.5 -17.5c-6.66699 0 -12.834 3.5 -18.501 10.5s-8.5 16.5 -8.5 28.5c0 12.667 2.66699 22.5 8 29.5s11.666 10.5 18.999 10.5c21.333 0 41.333 6.5 60 19.5s38 37.5 58 73.5
c20 36.667 37.5 62.834 52.5 78.501s32.167 23.5 51.5 23.5c15.333 0 31 -4.66699 47 -14s30.333 -21.333 43 -36s23 -31.167 31 -49.5s12 -36.166 12 -53.499c0 -15.333 -2.66699 -31 -8 -47s-13 -30.5 -23 -43.5s-22 -23.5 -36 -31.5s-30 -12 -48 -12
c-26.667 0 -51 7.66699 -73 23s-39.333 34.333 -52 57zM145.002 126.998c12 -23.333 26.666 -41.167 43.999 -53.5s36.666 -18.5 57.999 -18.5c34 0 59.333 13 76 39c-15.333 32.667 -32.666 57.167 -51.999 73.5s-38.666 24.5 -57.999 24.5c-14 0 -26.333 -5.5 -37 -16.5
s-21 -27.167 -31 -48.5z" />
    <glyph glyph-name="uniFEE4" unicode="&#x645;" horiz-adv-x="430" arabic-form="medial" 
d="M86 31c-11.333 -11.333 -24.5029 -20.4961 -39.5029 -27.4961s-30.5 -10.5 -46.5 -10.5c-8 0 -14.5 3.33301 -19.5 10s-7.5 16.667 -7.5 30s2.5 23.166 7.5 29.499s11.5 9.5 19.5 9.5c20.667 0 39.834 6.16699 57.501 18.5s37.5 31.166 59.5 56.499
c20.667 23.333 38.167 39 52.5 47s29.5 12 45.5 12c15.333 0 29.833 -4.33301 43.5 -13s32.167 -25.334 55.5 -50.001c14 -14.667 26.167 -26.667 36.5 -36s20 -16.5 29 -21.5s17.5 -8.5 25.5 -10.5s16.333 -3 25 -3c7.33301 0 14.166 -3.33301 20.499 -10
s9.5 -16.334 9.5 -29.001s-3.16699 -22.5 -9.5 -29.5s-13.166 -10.5 -20.499 -10.5c-17.333 0 -32.666 2.66699 -45.999 8s-26.666 13.333 -39.999 24c-12.667 -34 -29.5 -60.333 -50.5 -79s-46.167 -28 -75.5 -28c-54.667 0 -98.667 37.667 -132 113zM127.997 77.0039
c10 -25.333 23.832 -45.667 41.499 -61s38.167 -23 61.5 -23c18 0 34.333 4.83301 49 14.5s27 23.167 37 40.5c-23.333 33.333 -43.666 55.5 -60.999 66.5s-34 16.5 -50 16.5c-14.667 0 -29.167 -5 -43.5 -15s-25.833 -23 -34.5 -39z" />
    <glyph glyph-name="uniFEE6" unicode="&#x646;" horiz-adv-x="520" arabic-form="final" 
d="M237 221c-10.667 4.66699 -22.499 12 -35.499 22s-23.5 20.667 -31.5 32l49 60c8 -10.667 18.667 -21 32 -31s24.666 -17.667 33.999 -23zM87.001 127c-5.33301 -12.667 -9.33203 -28.668 -11.999 -48.001s-4 -38.666 -4 -57.999c0 -50 11.667 -87.5 35 -112.5
s61 -37.5 113 -37.5c40 0 76.667 6.66699 110 20s58.666 31.666 75.999 54.999c-3.33301 38.667 -8.66602 72.334 -15.999 101.001s-16 52.667 -26 72l47 65c15.333 -36 32.666 -63.667 51.999 -83s38.666 -29 57.999 -29c7.33301 0 14.166 -3.66699 20.499 -11
s9.5 -17.333 9.5 -30s-3.16699 -22.167 -9.5 -28.5s-13.166 -9.5 -20.499 -9.5c-16.667 0 -30.667 3 -42 9s-20.333 13 -27 21l-1 -1c0.666992 -30 -1.5 -56 -6.5 -78s-13.833 -43 -26.5 -63c-16 -25.333 -41.667 -47.166 -77 -65.499s-79.666 -27.5 -132.999 -27.5
c-62 0 -107.833 16.333 -137.5 49s-44.5 77 -44.5 133c0 17.333 1.33301 34.166 4 50.499s6.16699 31 10.5 44s9 24 14 33s10.167 15.167 15.5 18.5z" />
    <glyph glyph-name="uniFEE7" unicode="&#x646;" horiz-adv-x="230" arabic-form="initial" 
d="M138 331c14.667 -21.333 25.9971 -45.834 33.9971 -73.501s12 -55.167 12 -82.5c0 -18 -3.16699 -37.667 -9.5 -59s-16.5 -42 -30.5 -62c-13.333 -20.667 -33 -36 -59 -46s-54.333 -15 -85 -15c-7.33301 0 -13.666 2.83301 -18.999 8.5s-8 15.834 -8 30.501
c0 12 2.33301 21.667 7 29s11.334 11 20.001 11c29.333 0 55 2.66699 77 8s42 13.333 60 24c-4 29.333 -10.667 56.5 -20 81.5s-19.666 44.833 -30.999 59.5zM120.997 390.999c-10.667 4.66699 -22.499 12 -35.499 22s-23.5 20.667 -31.5 32l49 60
c8 -10.667 18.667 -21 32 -31s24.666 -17.667 33.999 -23z" />
    <glyph glyph-name="uniFEE8" unicode="&#x646;" horiz-adv-x="305" arabic-form="medial" 
d="M147 218c11.333 -51.333 29.8301 -88.5 55.4971 -111.5s59.834 -34.5 102.501 -34.5c7.33301 0 14.166 -3.33301 20.499 -10s9.5 -16.334 9.5 -29.001s-3.16699 -22.5 -9.5 -29.5s-13.166 -10.5 -20.499 -10.5c-42 0 -76.167 7.83301 -102.5 23.5
s-47.166 40.167 -62.499 73.5c-14.667 -30.667 -33.5 -54.5 -56.5 -71.5s-50.833 -25.5 -83.5 -25.5c-7.33301 0 -13.666 3.33301 -18.999 10s-8 16.667 -8 30c0 12.667 2.5 22.334 7.5 29.001s11.5 10 19.5 10c25.333 0 48.333 4.83301 69 14.5s38.667 26.5 54 50.5l-6 44z
M139.997 290c-10.667 4.66699 -22.499 12 -35.499 22s-23.5 20.667 -31.5 32l49 60c8 -10.667 18.667 -21 32 -31s24.666 -17.667 33.999 -23z" />
    <glyph glyph-name="uniFEE9" unicode="&#x647;" horiz-adv-x="556" arabic-form="isolated" 
d="M238 422l7.99609 0.00390625c32 -14.667 64.5 -33.334 97.5 -56.001s62.667 -45.834 89 -69.501s47.833 -46.5 64.5 -68.5s25 -39.667 25 -53c0 -15.333 -3.33301 -31.666 -10 -48.999s-16.667 -34 -30 -50c-16.667 -20 -33.667 -34 -51 -42s-37.666 -12 -60.999 -12
c-19.333 0 -37.5 3.5 -54.5 10.5s-30.833 15.167 -41.5 24.5c-11.333 -9.33301 -23.666 -17.5 -36.999 -24.5s-26.666 -12.833 -39.999 -17.5s-26.5 -8.33398 -39.5 -11.001s-24.5 -4 -34.5 -4c-11.333 0 -24.833 4 -40.5 12s-34.5 23.667 -56.5 47l12 13
c51.333 3.33301 90.833 8 118.5 14s51.167 13 70.5 21c-10.667 14.667 -18.334 29.667 -23.001 45s-7 29 -7 41c0 25.333 8.5 49.666 25.5 72.999s39.5 41.666 67.5 54.999c-5.33301 5.33301 -14.666 11 -27.999 17s-26.666 11.667 -39.999 17zM246.996 254.004
c0 -25.333 3.49902 -47.501 10.499 -66.501s16.833 -34.5 29.5 -46.5c18 14.667 33.167 32.334 45.5 53.001s20.166 39.667 23.499 57c-2.66699 12.667 -7.5 21.5 -14.5 26.5s-16.833 7.5 -29.5 7.5c-9.33301 0 -20.666 -2.66699 -33.999 -8s-23.666 -13 -30.999 -23z
M390.995 238.003c-2 -10 -5.00098 -21 -9.00098 -33s-9 -24 -15 -36s-12.667 -23.5 -20 -34.5s-15 -20.5 -23 -28.5c6 -4.66699 14.667 -9 26 -13s24 -6 38 -6c22 0 41.5 5 58.5 15s29.5 23.333 37.5 40c-10 12.667 -23.167 28.5 -39.5 47.5s-34.166 35.167 -53.499 48.5z
" />
    <glyph glyph-name="uniFEEA" unicode="&#x647;" horiz-adv-x="399" arabic-form="final" 
d="M236 409c6 -12.667 11.334 -25.499 16.001 -38.499s9.33398 -28 14.001 -45s9.5 -36.333 14.5 -58s10.167 -47.5 15.5 -77.5c4.66699 -24 9.66699 -43.667 15 -59s11.833 -27.333 19.5 -36s17 -14.667 28 -18s24.5 -5 40.5 -5c7.33301 0 14.166 -3.33301 20.499 -10
s9.5 -16.334 9.5 -29.001s-3.16699 -22.5 -9.5 -29.5s-13.166 -10.5 -20.499 -10.5c-42 0 -74.333 8.33301 -97 25s-39.334 46 -50.001 88l-26 -26c-14 -14.667 -27.333 -24.334 -40 -29.001s-25.667 -7 -39 -7c-14 0 -27.667 2.83301 -41 8.5s-25.333 12.834 -36 21.501
s-19.167 18.334 -25.5 29.001s-9.5 21 -9.5 31c0 8.66699 2.16699 19.5 6.5 32.5s10.166 24.167 17.499 33.5c7.33301 10 24 23.667 50 41s62 35.666 108 54.999l-24 61zM229.001 246.001c-38 -13.333 -69.6689 -26.166 -95.002 -38.499s-43.666 -23.833 -54.999 -34.5
c7.33301 -18.667 19.333 -33.667 36 -45s38 -17 64 -17c14 0 27 2 39 6s22 8.66699 30 14c-2.66699 19.333 -5.16699 38.666 -7.5 57.999s-6.16602 38.333 -11.499 57z" />
    <glyph glyph-name="uniFEEB" unicode="&#x647;" horiz-adv-x="438" arabic-form="initial" 
d="M112 400c32 -14.667 64.4951 -33.3311 97.4951 -55.998s62.667 -45.834 89 -69.501s47.833 -46.5 64.5 -68.5s25 -39.667 25 -53c0 -15.333 -3.33301 -31.666 -10 -48.999s-16.667 -34 -30 -50c-16.667 -20 -33.667 -34 -51 -42s-37.666 -12 -60.999 -12
c-18 0 -36.667 3.33301 -56 10s-34 15 -44 25c-22 -15.333 -44.833 -26.166 -68.5 -32.499s-46.167 -9.5 -67.5 -9.5c-7.33301 0 -13.666 3.66699 -18.999 11s-8 16.666 -8 27.999c0 12 2.83301 21.667 8.5 29s11.834 11 18.501 11c18.667 0 36.167 1.16699 52.5 3.5
s29.833 5.5 40.5 9.5c-10.667 14.667 -18.167 29.667 -22.5 45s-6.83301 29 -7.5 41c-0.666992 25.333 7.83301 49.666 25.5 72.999s40.167 41.666 67.5 54.999c-5.33301 5.33301 -14.666 11 -27.999 17s-26.666 11.667 -39.999 17l16 67h8zM112.995 232.003
c0 -25.333 3.49902 -47.501 10.499 -66.501s16.833 -34.5 29.5 -46.5c18 14.667 33.167 32.334 45.5 53.001s20.166 39.667 23.499 57c-2.66699 12.667 -7.5 21.5 -14.5 26.5s-16.833 7.5 -29.5 7.5c-9.33301 0 -20.666 -2.66699 -33.999 -8s-23.666 -13 -30.999 -23z
M256.994 216.002c-2 -10 -5.00098 -21 -9.00098 -33s-9 -24 -15 -36s-12.667 -23.5 -20 -34.5s-15 -20.5 -23 -28.5c6 -4.66699 14.667 -9 26 -13s24 -6 38 -6c22 0 41.5 5 58.5 15s29.5 23.333 37.5 40c-10 12.667 -23.167 28.5 -39.5 47.5s-34.166 35.167 -53.499 48.5z
" />
    <glyph glyph-name="uniFEEC" unicode="&#x647;" horiz-adv-x="396" arabic-form="medial" 
d="M172 356c40.667 -23.333 69.1709 -46.833 85.5039 -70.5s24.5 -50.5 24.5 -80.5c0 -18.667 -4.16699 -37.167 -12.5 -55.5s-20 -35.666 -35 -51.999s-33 -31.333 -54 -45s-44.167 -25.167 -69.5 -34.5c2 -14 6.33301 -28.5 13 -43.5s15 -29.167 25 -42.5
s21.333 -25.333 34 -36s26 -18.667 40 -24c5.33301 64.667 23.666 114.167 54.999 148.5s70.666 51.5 117.999 51.5c7.33301 0 14.166 -3.33301 20.499 -10s9.5 -16.334 9.5 -29.001s-3.16699 -22.5 -9.5 -29.5s-13.166 -10.5 -20.499 -10.5c-32 0 -57.333 -3 -76 -9
s-33.667 -14.667 -45 -26c-5.33301 -14 -8 -30.667 -8 -50c0.666992 -19.333 5 -35.833 13 -49.5s21.667 -24.167 41 -31.5l-58 -66c-61.333 26.667 -108.833 61.667 -142.5 105s-53.834 89 -60.501 137l-28.5 -6.5c-10.333 -2.33301 -20.833 -3.5 -31.5 -3.5
c-8 0 -14.5 3.33301 -19.5 10s-7.5 16 -7.5 28c0 12.667 2.66699 22.667 8 30s11.666 11 18.999 11c10 0 20 0.666992 30 2s18.667 2.66602 26 3.99902c0.666992 26.667 4.16699 53.334 10.5 80.001s14.5 52.167 24.5 76.5s22 46.833 36 67.5s29 38.667 45 54zM252.004 175
c-4.66699 16.667 -15.499 34.333 -32.499 53s-37.167 33.667 -60.5 45c-6.66699 -9.33301 -13.167 -21.5 -19.5 -36.5s-11.833 -31 -16.5 -48s-8.5 -34.667 -11.5 -53s-4.5 -35.833 -4.5 -52.5c32.667 5.33301 61.667 16.5 87 33.5s44.666 36.5 57.999 58.5z" />
    <glyph glyph-name="uniFEEE" unicode="&#x648;" horiz-adv-x="363" arabic-form="final" 
d="M5 -174c41.333 11.333 76.999 24 106.999 38s55.167 28.333 75.5 43s36.333 29.334 48 44.001s19.5 28.667 23.5 42c-28.667 0.666992 -53.5 4.5 -74.5 11.5s-38.5 16 -52.5 27s-24.333 23.5 -31 37.5s-10 28.667 -10 44s2.83301 31 8.5 47s13.334 30.5 23.001 43.5
s20.5 23.5 32.5 31.5s24 12 36 12c14 0 27.667 -4.33301 41 -13s25.5 -20.834 36.5 -36.501s20.333 -34.167 28 -55.5s12.5 -44.666 14.5 -69.999h52c7.33301 0 14.166 -3.33301 20.499 -10s9.5 -16.334 9.5 -29.001s-3.16699 -22.5 -9.5 -29.5s-13.166 -10.5 -20.499 -10.5
h-58c-8 -40 -25.167 -78 -51.5 -114s-61.833 -65.667 -106.5 -89l-128 16zM124.999 116c6 -12.667 18.167 -23.167 36.5 -31.5s39.5 -12.5 63.5 -12.5h42c-4.66699 28.667 -14.5 52.5 -29.5 71.5s-32.167 28.5 -51.5 28.5c-14 0 -26.833 -5.33301 -38.5 -16
s-19.167 -24 -22.5 -40z" />
    <glyph glyph-name="uniFEF0" unicode="&#x649;" horiz-adv-x="555" arabic-form="final" 
d="M106 100c-5.33301 -13.333 -9.50098 -26.667 -12.501 -40s-4.5 -29.666 -4.5 -48.999c0 -44 15 -78.333 45 -103s75.667 -37 137 -37c47.333 0 90.666 4 129.999 12s70 18.667 92 32c-16.667 14.667 -37 29.334 -61 44.001s-46.667 26 -68 34
c3.33301 11.333 7.5 22.5 12.5 33.5s9.16699 19.833 12.5 26.5c6.66699 2.66699 14.334 5.16699 23.001 7.5s19.167 4.33301 31.5 6s27.166 3 44.499 4s38 1.5 62 1.5c7.33301 0 14.166 -3.33301 20.499 -10s9.5 -16.334 9.5 -29.001s-3.16699 -22.5 -9.5 -29.5
s-13.166 -10.5 -20.499 -10.5h-64c14.667 -8 25.834 -18 33.501 -30s11.5 -22 11.5 -30c0 -14 -4.33301 -29 -13 -45s-19.334 -28.667 -32.001 -38c-21.333 -18 -53.166 -32.833 -95.499 -44.5s-92.166 -17.5 -149.499 -17.5c-64.667 0 -113.667 15.667 -147 47
s-50 75.666 -50 132.999c0 29.333 4.5 55 13.5 77s18.833 36.333 29.5 43z" />
    <glyph glyph-name="uniFEF2" unicode="&#x64a;" horiz-adv-x="555" arabic-form="final" 
d="M105 100c-5.33301 -13.333 -9.50098 -26.667 -12.501 -40s-4.5 -29.666 -4.5 -48.999c0 -44 15 -78.333 45 -103s75.667 -37 137 -37c47.333 0 90.666 4 129.999 12s70 18.667 92 32c-16.667 14.667 -37 29.334 -61 44.001s-46.667 26 -68 34
c3.33301 11.333 7.5 22.5 12.5 33.5s9.16699 19.833 12.5 26.5c6.66699 2.66699 14.334 5.16699 23.001 7.5s19.167 4.33301 31.5 6s27.166 3 44.499 4s38 1.5 62 1.5c7.33301 0 14.166 -3.33301 20.499 -10s9.5 -16.334 9.5 -29.001s-3.16699 -22.5 -9.5 -29.5
s-13.166 -10.5 -20.499 -10.5h-64c14.667 -8 25.834 -18 33.501 -30s11.5 -22 11.5 -30c0 -14 -4.33301 -29 -13 -45s-19.334 -28.667 -32.001 -38c-21.333 -18 -53.166 -32.833 -95.499 -44.5s-92.166 -17.5 -149.499 -17.5c-64.667 0 -113.667 15.667 -147 47
s-50 75.666 -50 132.999c0 29.333 4.5 55 13.5 77s18.833 36.333 29.5 43zM321.999 -361.001c-9.33301 4 -19.499 10 -30.499 18s-20.5 16.333 -28.5 25l-34 -50c-10.667 4.66699 -22.5 11.5 -35.5 20.5s-23.5 19.167 -31.5 30.5l46 61c6.66699 -8.66699 15 -17.667 25 -27
s19.667 -16.666 29 -21.999l39 56c8.66699 -10 19.667 -19.833 33 -29.5s24.666 -16.834 33.999 -21.501z" />
    <glyph glyph-name="uniFEF3" unicode="&#x64a;" horiz-adv-x="231" arabic-form="initial" 
d="M138 331c14.667 -21.333 25.9971 -45.834 33.9971 -73.501s12 -55.167 12 -82.5c0 -18 -3.16699 -37.667 -9.5 -59s-16.5 -42 -30.5 -62c-13.333 -20.667 -33 -36 -59 -46s-54.333 -15 -85 -15c-7.33301 0 -13.666 2.83301 -18.999 8.5s-8 15.834 -8 30.501
c0 12 2.33301 21.667 7 29s11.334 11 20.001 11c29.333 0 55 2.66699 77 8s42 13.333 60 24c-4 29.333 -10.667 56.5 -20 81.5s-19.666 44.833 -30.999 59.5zM174.997 -188.001c-9.33301 4 -19.499 10 -30.499 18s-20.5 16.333 -28.5 25l-34 -50
c-10.667 4.66699 -22.5 11.5 -35.5 20.5s-23.5 19.167 -31.5 30.5l46 61c6.66699 -8.66699 15 -17.667 25 -27s19.667 -16.666 29 -21.999l39 56c8.66699 -10 19.667 -19.833 33 -29.5s24.666 -16.834 33.999 -21.501z" />
    </font>
</defs>
</svg>
